Public Sans-Thin.ufo
<glyph name="exclam" format="2">
	<advance width="442"/>
	<unicode hex="0021"/>
	<guideline x="153" y="98" angle="90"/>
	<guideline x="225" y="105" angle="90"/>
	<outline>
		<contour>
			<point x="159" y="295" type="line"/>
			<point x="218" y="295" type="line"/>
			<point x="404" y="1481" type="line"/>
			<point x="308" y="1481" type="line"/>
		</contour>
		<contour>
			<point x="91" y="0" type="line"/>
			<point x="204" y="0" type="line"/>
			<point x="226" y="158" type="line"/>
			<point x="112" y="158" type="line"/>
		</contour>
	</outline>
</glyph>
<glyph name="numbersign" format="2">
	<advance width="1159"/>
	<unicode hex="0023"/>
	<outline>
		<contour>
			<point x="750" y="-2" type="line"/>
			<point x="977" y="1473" type="line"/>
			<point x="901" y="1483" type="line"/>
			<point x="674" y="10" type="line"/>
		</contour>
		<contour>
			<point x="98" y="500" type="line"/>
			<point x="1057" y="500" type="line"/>
			<point x="1057" y="575" type="line"/>
			<point x="98" y="575" type="line"/>
		</contour>
		<contour>
			<point x="344" y="-2" type="line"/>
			<point x="571" y="1473" type="line"/>
			<point x="496" y="1483" type="line"/>
			<point x="268" y="10" type="line"/>
		</contour>
		<contour>
			<point x="164" y="920" type="line"/>
			<point x="1122" y="920" type="line"/>
			<point x="1122" y="995" type="line"/>
			<point x="164" y="995" type="line"/>
		</contour>
	</outline>
</glyph>
<glyph name="dollar" format="2">
	<advance width="1221"/>
	<unicode hex="0024"/>
	<outline>
		<contour>
			<point x="543" y="-20" type="curve" smooth="yes"/>
			<point x="809" y="-20"/>
			<point x="1022" y="145"/>
			<point x="1053" y="362" type="curve" smooth="yes"/>
			<point x="1075" y="524"/>
			<point x="1018" y="670"/>
			<point x="815" y="745" type="curve" smooth="yes"/>
			<point x="594" y="827" type="line" smooth="yes"/>
			<point x="391" y="903"/>
			<point x="328" y="965"/>
			<point x="346" y="1092" type="curve" smooth="yes"/>
			<point x="377" y="1317"/>
			<point x="592" y="1415"/>
			<point x="754" y="1415" type="curve" smooth="yes"/>
			<point x="940" y="1415"/>
			<point x="1047" y="1311"/>
			<point x="1055" y="1090" type="curve"/>
			<point x="1130" y="1106" type="line"/>
			<point x="1141" y="1311"/>
			<point x="1022" y="1499"/>
			<point x="770" y="1499" type="curve" smooth="yes"/>
			<point x="496" y="1499"/>
			<point x="297" y="1323"/>
			<point x="264" y="1090" type="curve" smooth="yes"/>
			<point x="240" y="913"/>
			<point x="344" y="815"/>
			<point x="530" y="750" type="curve" smooth="yes"/>
			<point x="766" y="668" type="line" smooth="yes"/>
			<point x="932" y="610"/>
			<point x="993" y="510"/>
			<point x="971" y="358" type="curve" smooth="yes"/>
			<point x="946" y="176"/>
			<point x="737" y="66"/>
			<point x="555" y="66" type="curve" smooth="yes"/>
			<point x="356" y="66"/>
			<point x="219" y="160"/>
			<point x="197" y="360" type="curve"/>
			<point x="117" y="342" type="line"/>
			<point x="125" y="113"/>
			<point x="295" y="-20"/>
		</contour>
		<contour>
			<point x="469" y="-233" type="line"/>
			<point x="553" y="-233" type="line"/>
			<point x="590" y="31" type="line"/>
			<point x="506" y="31" type="line"/>
		</contour>
		<contour>
			<point x="721" y="1448" type="line"/>
			<point x="807" y="1448" type="line"/>
			<point x="844" y="1712" type="line"/>
			<point x="758" y="1712" type="line"/>
		</contour>
	</outline>
</glyph>
<glyph name="percent" format="2">
	<advance width="1657"/>
	<unicode hex="0025"/>
	<outline>
		<contour>
			<point x="1158" y="-20" type="curve" smooth="yes"/>
			<point x="1334" y="-20"/>
			<point x="1478" y="125"/>
			<point x="1517" y="408" type="curve" smooth="yes"/>
			<point x="1555" y="684"/>
			<point x="1453" y="831"/>
			<point x="1279" y="831" type="curve" smooth="yes"/>
			<point x="1103" y="831"/>
			<point x="957" y="684"/>
			<point x="919" y="408" type="curve" smooth="yes"/>
			<point x="878" y="125"/>
			<point x="984" y="-20"/>
		</contour>
		<contour>
			<point x="441" y="653" type="curve" smooth="yes"/>
			<point x="617" y="653"/>
			<point x="759" y="799"/>
			<point x="800" y="1079" type="curve" smooth="yes"/>
			<point x="839" y="1358"/>
			<point x="736" y="1503"/>
			<point x="560" y="1503" type="curve" smooth="yes"/>
			<point x="386" y="1503"/>
			<point x="239" y="1358"/>
			<point x="200" y="1079" type="curve" smooth="yes"/>
			<point x="161" y="799"/>
			<point x="267" y="653"/>
		</contour>
		<contour>
			<point x="447" y="713" type="curve" smooth="yes"/>
			<point x="304" y="713"/>
			<point x="234" y="868"/>
			<point x="263" y="1079" type="curve" smooth="yes"/>
			<point x="294" y="1288"/>
			<point x="409" y="1444"/>
			<point x="550" y="1444" type="curve" smooth="yes"/>
			<point x="693" y="1444"/>
			<point x="765" y="1290"/>
			<point x="734" y="1079" type="curve" smooth="yes"/>
			<point x="706" y="866"/>
			<point x="591" y="713"/>
		</contour>
		<contour>
			<point x="1166" y="41" type="curve" smooth="yes"/>
			<point x="1029" y="41"/>
			<point x="953" y="201"/>
			<point x="982" y="406" type="curve" smooth="yes"/>
			<point x="1011" y="608"/>
			<point x="1132" y="770"/>
			<point x="1269" y="770" type="curve" smooth="yes"/>
			<point x="1406" y="770"/>
			<point x="1482" y="610"/>
			<point x="1453" y="406" type="curve" smooth="yes"/>
			<point x="1424" y="201"/>
			<point x="1304" y="41"/>
		</contour>
		<component base="fraction" xScale="0.92" yxScale="0.1405" xOffset="555"/>
	</outline>
</glyph>
<glyph name="ampersand" format="2">
	<advance width="1207"/>
	<unicode hex="0026"/>
	<guideline x="222" y="297" angle="310.1301"/>
	<outline>
		<contour>
			<point x="390" y="-10" type="curve" smooth="yes"/>
			<point x="538" y="-10"/>
			<point x="681" y="53"/>
			<point x="828" y="184" type="curve"/>
			<point x="951" y="0" type="line"/>
			<point x="1041" y="0" type="line"/>
			<point x="886" y="244" type="line"/>
			<point x="1000" y="375"/>
			<point x="1082" y="514"/>
			<point x="1123" y="754" type="curve"/>
			<point x="1060" y="754" type="line"/>
			<point x="1021" y="508"/>
			<point x="902" y="348"/>
			<point x="849" y="299" type="curve"/>
			<point x="533" y="786" type="line"/>
			<point x="873" y="958"/>
			<point x="923" y="1118"/>
			<point x="933" y="1194" type="curve" smooth="yes"/>
			<point x="962" y="1386"/>
			<point x="816" y="1503"/>
			<point x="648" y="1503" type="curve" smooth="yes"/>
			<point x="470" y="1503"/>
			<point x="329" y="1368"/>
			<point x="304" y="1198" type="curve" smooth="yes"/>
			<point x="286" y="1067"/>
			<point x="329" y="944"/>
			<point x="427" y="815" type="curve"/>
			<point x="204" y="696"/>
			<point x="87" y="557"/>
			<point x="60" y="373" type="curve" smooth="yes"/>
			<point x="30" y="143"/>
			<point x="157" y="-10"/>
		</contour>
		<contour>
			<point x="409" y="66" type="curve" smooth="yes"/>
			<point x="230" y="66"/>
			<point x="112" y="186"/>
			<point x="136" y="365" type="curve" smooth="yes"/>
			<point x="161" y="528"/>
			<point x="286" y="659"/>
			<point x="462" y="756" type="curve"/>
			<point x="794" y="242" type="line"/>
			<point x="683" y="139"/>
			<point x="546" y="66"/>
		</contour>
		<contour>
			<point x="501" y="848" type="curve"/>
			<point x="478" y="883" type="line" smooth="yes"/>
			<point x="445" y="928"/>
			<point x="363" y="1065"/>
			<point x="382" y="1200" type="curve" smooth="yes"/>
			<point x="398" y="1317"/>
			<point x="490" y="1425"/>
			<point x="636" y="1425" type="curve" smooth="yes"/>
			<point x="757" y="1425"/>
			<point x="882" y="1368"/>
			<point x="857" y="1198" type="curve" smooth="yes"/>
			<point x="843" y="1098"/>
			<point x="779" y="1004"/>
		</contour>
	</outline>
</glyph>
<glyph name="quotesingle" format="1">
  <advance width="458"/>
  <unicode hex="0027"/>
  <outline>
    <contour>
      <point x="275" y="1072" type="line"/>
      <point x="337" y="1072" type="line"/>
      <point x="429" y="1446" type="line"/>
      <point x="291" y="1446" type="line"/>
    </contour>
  </outline>
</glyph>
<glyph name="parenleft" format="2">
	<advance width="530"/>
	<unicode hex="0028"/>
	<outline>
		<contour>
			<point x="307" y="-213" type="curve"/>
			<point x="352" y="-213" type="line"/>
			<point x="264" y="90"/>
			<point x="233" y="379"/>
			<point x="276" y="684" type="curve" smooth="yes"/>
			<point x="322" y="1006"/>
			<point x="467" y="1333"/>
			<point x="629" y="1597" type="curve"/>
			<point x="584" y="1597" type="line"/>
			<point x="393" y="1346"/>
			<point x="233" y="1022"/>
			<point x="186" y="686" type="curve" smooth="yes"/>
			<point x="139" y="340"/>
			<point x="195" y="74"/>
		</contour>
	</outline>
</glyph>
<glyph name="asterisk" format="2">
	<advance width="643"/>
	<unicode hex="002A"/>
	<outline>
		<contour>
			<point x="278" y="901" type="line"/>
			<point x="435" y="1147" type="line"/>
			<point x="585" y="909" type="line"/>
			<point x="650" y="958" type="line"/>
			<point x="480" y="1174" type="line"/>
			<point x="714" y="1255" type="line"/>
			<point x="693" y="1319" type="line"/>
			<point x="462" y="1223" type="line"/>
			<point x="472" y="1481" type="line"/>
			<point x="388" y="1481" type="line"/>
			<point x="402" y="1223" type="line"/>
			<point x="173" y="1307" type="line"/>
			<point x="151" y="1241" type="line"/>
			<point x="388" y="1171" type="line"/>
			<point x="212" y="944" type="line"/>
		</contour>
	</outline>
</glyph>
<glyph name="plus" format="2">
	<advance width="1003"/>
	<unicode hex="002B"/>
	<outline>
		<contour>
			<point x="442" y="344" type="line"/>
			<point x="512" y="344" type="line"/>
			<point x="623" y="1145" type="line"/>
			<point x="553" y="1145" type="line"/>
		</contour>
		<contour>
			<point x="158" y="705" type="line"/>
			<point x="895" y="707" type="line"/>
			<point x="905" y="782" type="line"/>
			<point x="168" y="780" type="line"/>
		</contour>
	</outline>
</glyph>
<glyph name="comma" format="1">
  <advance width="395"/>
  <unicode hex="002C"/>
  <outline>
    <contour>
      <point x="-24" y="-222" type="line"/>
      <point x="34" y="-222" type="line"/>
      <point x="196" y="24" type="line"/>
      <point x="214" y="160" type="line"/>
      <point x="62" y="160" type="line"/>
      <point x="40" y="0" type="line"/>
      <point x="106" y="0" type="line"/>
    </contour>
  </outline>
</glyph>
<glyph name="hyphen" format="1">
  <advance width="692"/>
  <unicode hex="002D"/>
  <outline>
    <contour>
      <point x="125" y="478" type="line"/>
      <point x="557" y="480" type="line"/>
      <point x="567" y="558" type="line"/>
      <point x="135" y="556" type="line"/>
    </contour>
  </outline>
</glyph>
<glyph name="period" format="1">
  <advance width="352"/>
  <unicode hex="002E"/>
  <outline>
    <contour>
      <point x="47" y="0" type="line"/>
      <point x="159" y="0" type="line"/>
      <point x="181" y="154" type="line"/>
      <point x="69" y="154" type="line"/>
    </contour>
  </outline>
</glyph>
<glyph name="slash" format="1">
  <advance width="592"/>
  <unicode hex="002F"/>
  <outline>
    <contour>
      <point x="-59" y="-118" type="line"/>
      <point x="17" y="-118" type="line"/>
      <point x="693" y="1446" type="line"/>
      <point x="617" y="1446" type="line"/>
    </contour>
  </outline>
</glyph>
<glyph name="zero" format="1">
  <advance width="1093"/>
  <unicode hex="0030"/>
  <outline>
    <contour>
      <point x="470" y="-20" type="curve" smooth="yes"/>
      <point x="732" y="-20"/>
      <point x="942" y="218"/>
      <point x="1012" y="720" type="curve" smooth="yes"/>
      <point x="1082" y="1224"/>
      <point x="940" y="1466"/>
      <point x="680" y="1466" type="curve" smooth="yes"/>
      <point x="420" y="1466"/>
      <point x="210" y="1222"/>
      <point x="138" y="716" type="curve" smooth="yes"/>
      <point x="68" y="216"/>
      <point x="208" y="-20"/>
    </contour>
    <contour>
      <point x="484" y="62" type="curve" smooth="yes"/>
      <point x="264" y="62"/>
      <point x="158" y="260"/>
      <point x="222" y="720" type="curve" smooth="yes"/>
      <point x="288" y="1184"/>
      <point x="450" y="1384"/>
      <point x="668" y="1384" type="curve" smooth="yes"/>
      <point x="888" y="1384"/>
      <point x="990" y="1186"/>
      <point x="926" y="720" type="curve" smooth="yes"/>
      <point x="860" y="258"/>
      <point x="706" y="62"/>
    </contour>
  </outline>
</glyph>
<glyph name="one" format="1">
  <advance width="734"/>
  <unicode hex="0031"/>
  <outline>
    <contour>
      <point x="303" y="0" type="line"/>
      <point x="381" y="0" type="line"/>
      <point x="585" y="1446" type="line"/>
      <point x="521" y="1446" type="line"/>
      <point x="505" y="1336"/>
      <point x="457" y="1296"/>
      <point x="209" y="1296" type="curve"/>
      <point x="199" y="1218" type="line"/>
      <point x="475" y="1218" type="line"/>
    </contour>
  </outline>
</glyph>
<glyph name="two" format="1">
  <advance width="1078"/>
  <unicode hex="0032"/>
  <outline>
    <contour>
      <point x="81" y="0" type="line"/>
      <point x="885" y="0" type="line"/>
      <point x="897" y="82" type="line"/>
      <point x="173" y="82" type="line"/>
      <point x="179" y="126" type="line" smooth="yes"/>
      <point x="245" y="596"/>
      <point x="949" y="554"/>
      <point x="1023" y="1080" type="curve" smooth="yes"/>
      <point x="1055" y="1312"/>
      <point x="921" y="1466"/>
      <point x="685" y="1466" type="curve" smooth="yes"/>
      <point x="413" y="1466"/>
      <point x="235" y="1272"/>
      <point x="195" y="1048" type="curve"/>
      <point x="277" y="1048" type="line"/>
      <point x="311" y="1236"/>
      <point x="453" y="1382"/>
      <point x="665" y="1382" type="curve" smooth="yes"/>
      <point x="861" y="1382"/>
      <point x="971" y="1262"/>
      <point x="945" y="1082" type="curve" smooth="yes"/>
      <point x="881" y="616"/>
      <point x="173" y="650"/>
      <point x="99" y="126" type="curve" smooth="yes"/>
      <point x="93" y="82" type="line"/>
    </contour>
  </outline>
</glyph>
<glyph name="three" format="1">
  <advance width="1111"/>
  <unicode hex="0033"/>
  <outline>
    <contour>
      <point x="455" y="-20" type="curve" smooth="yes"/>
      <point x="739" y="-24"/>
      <point x="949" y="144"/>
      <point x="983" y="388" type="curve" smooth="yes"/>
      <point x="1009" y="568"/>
      <point x="925" y="708"/>
      <point x="731" y="768" type="curve"/>
      <point x="913" y="834"/>
      <point x="1023" y="964"/>
      <point x="1043" y="1108" type="curve" smooth="yes"/>
      <point x="1073" y="1322"/>
      <point x="927" y="1466"/>
      <point x="671" y="1466" type="curve" smooth="yes"/>
      <point x="449" y="1466"/>
      <point x="235" y="1298"/>
      <point x="199" y="1048" type="curve"/>
      <point x="281" y="1048" type="line"/>
      <point x="313" y="1272"/>
      <point x="505" y="1384"/>
      <point x="663" y="1384" type="curve" smooth="yes"/>
      <point x="891" y="1384"/>
      <point x="981" y="1244"/>
      <point x="963" y="1108" type="curve" smooth="yes"/>
      <point x="941" y="950"/>
      <point x="753" y="802"/>
      <point x="545" y="802" type="curve" smooth="yes"/>
      <point x="433" y="802" type="line"/>
      <point x="423" y="720" type="line"/>
      <point x="535" y="720" type="line" smooth="yes"/>
      <point x="761" y="720"/>
      <point x="933" y="608"/>
      <point x="901" y="382" type="curve" smooth="yes"/>
      <point x="873" y="190"/>
      <point x="703" y="62"/>
      <point x="475" y="62" type="curve" smooth="yes"/>
      <point x="275" y="62"/>
      <point x="159" y="190"/>
      <point x="161" y="384" type="curve"/>
      <point x="81" y="384" type="line"/>
      <point x="57" y="142"/>
      <point x="225" y="-16"/>
    </contour>
  </outline>
</glyph>
<glyph name="four" format="1">
  <advance width="1132"/>
  <unicode hex="0034"/>
  <outline>
    <contour>
      <point x="668" y="0" type="line"/>
      <point x="744" y="0" type="line"/>
      <point x="802" y="418" type="line"/>
      <point x="1038" y="418" type="line"/>
      <point x="1050" y="500" type="line"/>
      <point x="814" y="500" type="line"/>
      <point x="946" y="1446" type="line"/>
      <point x="864" y="1446" type="line"/>
      <point x="100" y="516" type="line"/>
      <point x="86" y="418" type="line"/>
      <point x="726" y="418" type="line"/>
    </contour>
    <contour>
      <point x="176" y="500" type="line"/>
      <point x="846" y="1312" type="line"/>
      <point x="730" y="500" type="line"/>
    </contour>
  </outline>
</glyph>
<glyph name="five" format="1">
  <advance width="1171"/>
  <unicode hex="0035"/>
  <outline>
    <contour>
      <point x="517" y="-20" type="curve" smooth="yes"/>
      <point x="785" y="-20"/>
      <point x="993" y="178"/>
      <point x="1035" y="474" type="curve" smooth="yes"/>
      <point x="1079" y="786"/>
      <point x="887" y="942"/>
      <point x="673" y="942" type="curve" smooth="yes"/>
      <point x="535" y="942"/>
      <point x="401" y="898"/>
      <point x="305" y="780" type="curve"/>
      <point x="431" y="1366" type="line"/>
      <point x="1087" y="1366" type="line"/>
      <point x="1099" y="1446" type="line"/>
      <point x="365" y="1446" type="line"/>
      <point x="197" y="676" type="line"/>
      <point x="287" y="676" type="line" smooth="yes"/>
      <point x="287" y="676"/>
      <point x="287" y="676"/>
      <point x="287" y="676" type="curve" smooth="yes"/>
      <point x="421" y="840"/>
      <point x="527" y="864"/>
      <point x="661" y="864" type="curve" smooth="yes"/>
      <point x="841" y="864"/>
      <point x="989" y="718"/>
      <point x="955" y="472" type="curve" smooth="yes"/>
      <point x="917" y="208"/>
      <point x="751" y="58"/>
      <point x="531" y="58" type="curve" smooth="yes"/>
      <point x="341" y="58"/>
      <point x="213" y="186"/>
      <point x="185" y="380" type="curve"/>
      <point x="101" y="380" type="line"/>
      <point x="119" y="140"/>
      <point x="287" y="-20"/>
    </contour>
  </outline>
</glyph>
<glyph name="six" format="1">
  <advance width="1093"/>
  <unicode hex="0036"/>
  <outline>
    <contour>
      <point x="501" y="-4" type="curve" smooth="yes"/>
      <point x="767" y="-4"/>
      <point x="949" y="194"/>
      <point x="989" y="490" type="curve" smooth="yes"/>
      <point x="1031" y="790"/>
      <point x="885" y="962"/>
      <point x="629" y="962" type="curve" smooth="yes"/>
      <point x="441" y="962"/>
      <point x="267" y="822"/>
      <point x="201" y="624" type="curve"/>
      <point x="257" y="1154"/>
      <point x="437" y="1404"/>
      <point x="717" y="1404" type="curve" smooth="yes"/>
      <point x="881" y="1404"/>
      <point x="983" y="1300"/>
      <point x="999" y="1148" type="curve"/>
      <point x="1075" y="1148" type="line"/>
      <point x="1061" y="1360"/>
      <point x="919" y="1482"/>
      <point x="727" y="1482" type="curve" smooth="yes"/>
      <point x="405" y="1482"/>
      <point x="203" y="1178"/>
      <point x="139" y="724" type="curve" smooth="yes"/>
      <point x="73" y="258"/>
      <point x="223" y="-4"/>
    </contour>
    <contour>
      <point x="517" y="78" type="curve" smooth="yes"/>
      <point x="303" y="78"/>
      <point x="189" y="274"/>
      <point x="227" y="524" type="curve"/>
      <point x="255" y="728"/>
      <point x="447" y="880"/>
      <point x="627" y="880" type="curve" smooth="yes"/>
      <point x="859" y="880"/>
      <point x="939" y="722"/>
      <point x="907" y="486" type="curve" smooth="yes"/>
      <point x="871" y="242"/>
      <point x="717" y="78"/>
    </contour>
  </outline>
</glyph>
<glyph name="seven" format="1">
  <advance width="1074"/>
  <unicode hex="0037"/>
  <outline>
    <contour>
      <point x="265" y="0" type="curve"/>
      <point x="345" y="0" type="line"/>
      <point x="435" y="274"/>
      <point x="771" y="946"/>
      <point x="1093" y="1366" type="curve"/>
      <point x="1105" y="1446" type="line"/>
      <point x="231" y="1446" type="line"/>
      <point x="219" y="1366" type="line"/>
      <point x="999" y="1366" type="line"/>
      <point x="639" y="872"/>
      <point x="367" y="294"/>
    </contour>
  </outline>
</glyph>
<glyph name="eight" format="1">
  <advance width="1196"/>
  <unicode hex="0038"/>
  <outline>
    <contour>
      <point x="524" y="-2" type="curve" smooth="yes"/>
      <point x="816" y="-2"/>
      <point x="1026" y="160"/>
      <point x="1060" y="402" type="curve" smooth="yes"/>
      <point x="1084" y="572"/>
      <point x="970" y="746"/>
      <point x="828" y="774" type="curve"/>
      <point x="972" y="830"/>
      <point x="1072" y="926"/>
      <point x="1096" y="1092" type="curve" smooth="yes"/>
      <point x="1130" y="1334"/>
      <point x="970" y="1474"/>
      <point x="732" y="1474" type="curve" smooth="yes"/>
      <point x="496" y="1474"/>
      <point x="294" y="1334"/>
      <point x="260" y="1092" type="curve" smooth="yes"/>
      <point x="238" y="926"/>
      <point x="312" y="830"/>
      <point x="440" y="774" type="curve"/>
      <point x="290" y="746"/>
      <point x="128" y="572"/>
      <point x="104" y="402" type="curve" smooth="yes"/>
      <point x="70" y="160"/>
      <point x="234" y="-2"/>
    </contour>
    <contour>
      <point x="536" y="76" type="curve" smooth="yes"/>
      <point x="298" y="76"/>
      <point x="158" y="202"/>
      <point x="184" y="396" type="curve" smooth="yes"/>
      <point x="212" y="588"/>
      <point x="390" y="728"/>
      <point x="626" y="728" type="curve" smooth="yes"/>
      <point x="866" y="728"/>
      <point x="1004" y="588"/>
      <point x="978" y="396" type="curve" smooth="yes"/>
      <point x="950" y="202"/>
      <point x="774" y="76"/>
    </contour>
    <contour>
      <point x="640" y="818" type="curve" smooth="yes"/>
      <point x="440" y="818"/>
      <point x="316" y="912"/>
      <point x="342" y="1096" type="curve" smooth="yes"/>
      <point x="368" y="1278"/>
      <point x="520" y="1394"/>
      <point x="720" y="1394" type="curve" smooth="yes"/>
      <point x="922" y="1394"/>
      <point x="1042" y="1280"/>
      <point x="1016" y="1096" type="curve" smooth="yes"/>
      <point x="990" y="912"/>
      <point x="842" y="818"/>
    </contour>
  </outline>
</glyph>
<glyph name="nine" format="1">
  <advance width="1112"/>
  <unicode hex="0039"/>
  <outline>
    <contour>
      <point x="439" y="-4" type="curve" smooth="yes"/>
      <point x="763" y="-4"/>
      <point x="971" y="300"/>
      <point x="1035" y="754" type="curve" smooth="yes"/>
      <point x="1099" y="1220"/>
      <point x="953" y="1482"/>
      <point x="675" y="1482" type="curve" smooth="yes"/>
      <point x="407" y="1482"/>
      <point x="229" y="1284"/>
      <point x="187" y="988" type="curve" smooth="yes"/>
      <point x="145" y="688"/>
      <point x="291" y="516"/>
      <point x="547" y="516" type="curve" smooth="yes"/>
      <point x="735" y="516"/>
      <point x="909" y="656"/>
      <point x="975" y="854" type="curve"/>
      <point x="919" y="324"/>
      <point x="729" y="74"/>
      <point x="449" y="74" type="curve" smooth="yes"/>
      <point x="285" y="74"/>
      <point x="175" y="176"/>
      <point x="157" y="328" type="curve"/>
      <point x="83" y="328" type="line"/>
      <point x="97" y="116"/>
      <point x="247" y="-4"/>
    </contour>
    <contour>
      <point x="549" y="598" type="curve" smooth="yes"/>
      <point x="317" y="598"/>
      <point x="237" y="756"/>
      <point x="269" y="992" type="curve" smooth="yes"/>
      <point x="303" y="1236"/>
      <point x="459" y="1400"/>
      <point x="657" y="1400" type="curve" smooth="yes"/>
      <point x="873" y="1400"/>
      <point x="987" y="1204"/>
      <point x="949" y="954" type="curve"/>
      <point x="919" y="750"/>
      <point x="729" y="598"/>
    </contour>
  </outline>
</glyph>
<glyph name="colon" format="2">
	<advance width="362"/>
	<unicode hex="003A"/>
	<outline>
		<contour>
			<point x="168" y="840" type="line"/>
			<point x="283" y="840" type="line"/>
			<point x="305" y="999" type="line"/>
			<point x="190" y="999" type="line"/>
		</contour>
		<contour>
			<point x="49" y="6" type="line"/>
			<point x="164" y="6" type="line"/>
			<point x="186" y="164" type="line"/>
			<point x="72" y="164" type="line"/>
		</contour>
	</outline>
</glyph>
<glyph name="semicolon" format="1">
  <advance width="391"/>
  <unicode hex="003B"/>
  <outline>
    <contour>
      <point x="11" y="-262" type="line"/>
      <point x="49" y="-262" type="line"/>
      <point x="201" y="18" type="line"/>
      <point x="219" y="154" type="line"/>
      <point x="107" y="154" type="line"/>
      <point x="87" y="0" type="line"/>
      <point x="137" y="0" type="line"/>
    </contour>
    <contour>
      <point x="193" y="820" type="line"/>
      <point x="305" y="820" type="line"/>
      <point x="327" y="976" type="line"/>
      <point x="213" y="976" type="line"/>
    </contour>
  </outline>
</glyph>
<glyph name="less" format="2">
	<advance width="992"/>
	<unicode hex="003C"/>
	<outline>
		<contour>
			<point x="831" y="356" type="line"/>
			<point x="844" y="449" type="line"/>
			<point x="272" y="715" type="line"/>
			<point x="922" y="979" type="line"/>
			<point x="934" y="1079" type="line"/>
			<point x="166" y="762" type="line"/>
			<point x="154" y="666" type="line"/>
		</contour>
	</outline>
</glyph>
<glyph name="equal" format="2">
	<advance width="1004"/>
	<unicode hex="003D"/>
	<outline>
		<contour>
			<point x="186" y="905" type="line"/>
			<point x="924" y="907" type="line"/>
			<point x="934" y="983" type="line"/>
			<point x="197" y="981" type="line"/>
		</contour>
		<contour>
			<point x="125" y="465" type="line"/>
			<point x="862" y="467" type="line"/>
			<point x="872" y="543" type="line"/>
			<point x="135" y="541" type="line"/>
		</contour>
	</outline>
</glyph>
<glyph name="greater" format="2">
	<advance width="988"/>
	<unicode hex="003E"/>
	<outline>
		<contour>
			<point x="110" y="356" type="line"/>
			<point x="873" y="666" type="line"/>
			<point x="888" y="762" type="line"/>
			<point x="210" y="1079" type="line"/>
			<point x="196" y="979" type="line"/>
			<point x="769" y="715" type="line"/>
			<point x="124" y="449" type="line"/>
		</contour>
	</outline>
</glyph>
<glyph name="question" format="2">
	<advance width="963"/>
	<unicode hex="003F"/>
	<outline>
		<contour>
			<point x="380" y="299" type="curve"/>
			<point x="456" y="299" type="line"/>
			<point x="509" y="672"/>
			<point x="912" y="778"/>
			<point x="964" y="1139" type="curve" smooth="yes"/>
			<point x="994" y="1360"/>
			<point x="863" y="1501"/>
			<point x="626" y="1501" type="curve" smooth="yes"/>
			<point x="450" y="1501"/>
			<point x="273" y="1401"/>
			<point x="173" y="1245" type="curve"/>
			<point x="245" y="1206" type="line"/>
			<point x="302" y="1319"/>
			<point x="470" y="1417"/>
			<point x="613" y="1417" type="curve" smooth="yes"/>
			<point x="798" y="1417"/>
			<point x="902" y="1311"/>
			<point x="878" y="1139" type="curve" smooth="yes"/>
			<point x="830" y="807"/>
			<point x="435" y="698"/>
		</contour>
		<contour>
			<point x="320" y="0" type="line"/>
			<point x="433" y="0" type="line"/>
			<point x="456" y="158" type="line"/>
			<point x="343" y="158" type="line"/>
		</contour>
	</outline>
</glyph>
<glyph name="at" format="1">
  <advance width="1554"/>
  <unicode hex="0040"/>
  <outline>
    <contour>
      <point x="695" y="-220" type="curve" smooth="yes"/>
      <point x="847" y="-220"/>
      <point x="991" y="-166"/>
      <point x="1125" y="-70" type="curve"/>
      <point x="1087" y="-2" type="line"/>
      <point x="981" y="-74"/>
      <point x="893" y="-134"/>
      <point x="729" y="-134" type="curve" smooth="yes"/>
      <point x="311" y="-134"/>
      <point x="149" y="168"/>
      <point x="195" y="504" type="curve" smooth="yes"/>
      <point x="249" y="886"/>
      <point x="535" y="1206"/>
      <point x="915" y="1206" type="curve" smooth="yes"/>
      <point x="1165" y="1206"/>
      <point x="1429" y="1046"/>
      <point x="1373" y="652" type="curve" smooth="yes"/>
      <point x="1339" y="406"/>
      <point x="1203" y="242"/>
      <point x="1065" y="242" type="curve" smooth="yes"/>
      <point x="991" y="242"/>
      <point x="969" y="286"/>
      <point x="1007" y="418" type="curve" smooth="yes"/>
      <point x="1141" y="876" type="line"/>
      <point x="1067" y="876" type="line"/>
      <point x="1035" y="792" type="line" smooth="yes"/>
      <point x="1031" y="782"/>
      <point x="1023" y="782"/>
      <point x="1023" y="786" type="curve" smooth="yes"/>
      <point x="995" y="872"/>
      <point x="925" y="926"/>
      <point x="827" y="926" type="curve" smooth="yes"/>
      <point x="633" y="926"/>
      <point x="463" y="728"/>
      <point x="427" y="474" type="curve" smooth="yes"/>
      <point x="397" y="266"/>
      <point x="495" y="130"/>
      <point x="619" y="130" type="curve" smooth="yes"/>
      <point x="745" y="130"/>
      <point x="831" y="192"/>
      <point x="895" y="274" type="curve" smooth="yes"/>
      <point x="909" y="288"/>
      <point x="913" y="288"/>
      <point x="915" y="270" type="curve" smooth="yes"/>
      <point x="919" y="184"/>
      <point x="965" y="158"/>
      <point x="1051" y="158" type="curve" smooth="yes"/>
      <point x="1243" y="158"/>
      <point x="1423" y="364"/>
      <point x="1465" y="664" type="curve" smooth="yes"/>
      <point x="1527" y="1100"/>
      <point x="1231" y="1288"/>
      <point x="929" y="1288" type="curve" smooth="yes"/>
      <point x="509" y="1288"/>
      <point x="169" y="930"/>
      <point x="109" y="508" type="curve" smooth="yes"/>
      <point x="53" y="108"/>
      <point x="263" y="-220"/>
    </contour>
    <contour>
      <point x="641" y="216" type="curve" smooth="yes"/>
      <point x="541" y="216"/>
      <point x="493" y="312"/>
      <point x="517" y="476" type="curve" smooth="yes"/>
      <point x="545" y="676"/>
      <point x="665" y="840"/>
      <point x="819" y="840" type="curve" smooth="yes"/>
      <point x="921" y="840"/>
      <point x="1015" y="742"/>
      <point x="951" y="518" type="curve" smooth="yes"/>
      <point x="903" y="352"/>
      <point x="769" y="216"/>
    </contour>
  </outline>
</glyph>
<glyph name="A" format="1">
  <advance width="1214"/>
  <unicode hex="0041"/>
  <outline>
    <contour>
      <point x="-3" y="0" type="line"/>
      <point x="74" y="0" type="line"/>
      <point x="294" y="456" type="line"/>
      <point x="904" y="456" type="line"/>
      <point x="992" y="0" type="line"/>
      <point x="1071" y="0" type="line"/>
      <point x="789" y="1446" type="line"/>
      <point x="687" y="1446" type="line"/>
    </contour>
    <contour>
      <point x="332" y="542" type="line"/>
      <point x="729" y="1362" type="line"/>
      <point x="888" y="542" type="line"/>
    </contour>
    <contour>
      <point x="534" y="0" type="move" name="bottom"/>
    </contour>
    <contour>
      <point x="1072" y="24" type="move" name="ogonek"/>
    </contour>
    <contour>
      <point x="738" y="1446" type="move" name="top"/>
    </contour>
  </outline>
</glyph>
<glyph name="B" format="1">
  <advance width="1217"/>
  <unicode hex="0042"/>
  <outline>
    <contour>
      <point x="137" y="0" type="line"/>
      <point x="519" y="0" type="line"/>
      <point x="833" y="0"/>
      <point x="1032" y="126"/>
      <point x="1068" y="382" type="curve"/>
      <point x="1096" y="576"/>
      <point x="1010" y="698"/>
      <point x="822" y="733" type="curve"/>
      <point x="1023" y="793"/>
      <point x="1108" y="906"/>
      <point x="1132" y="1068" type="curve" smooth="yes"/>
      <point x="1166" y="1312"/>
      <point x="1010" y="1446"/>
      <point x="712" y="1446" type="curve" smooth="yes"/>
      <point x="341" y="1446" type="line"/>
    </contour>
    <contour>
      <point x="221" y="82" type="line"/>
      <point x="307" y="690" type="line"/>
      <point x="633" y="690" type="line" smooth="yes"/>
      <point x="857" y="690"/>
      <point x="1029" y="610"/>
      <point x="997" y="378" type="curve" smooth="yes"/>
      <point x="967" y="164"/>
      <point x="800" y="82"/>
      <point x="516" y="82" type="curve"/>
    </contour>
    <contour>
      <point x="317" y="772" type="line"/>
      <point x="401" y="1366" type="line"/>
      <point x="697" y="1366" type="line" smooth="yes"/>
      <point x="941" y="1366"/>
      <point x="1089" y="1276"/>
      <point x="1059" y="1066" type="curve" smooth="yes"/>
      <point x="1027" y="826"/>
      <point x="804" y="772"/>
      <point x="638" y="772" type="curve" smooth="yes"/>
    </contour>
  </outline>
</glyph>
<glyph name="C" format="1">
  <advance width="1275"/>
  <unicode hex="0043"/>
  <outline>
    <contour>
      <point x="616" y="-20" type="curve" smooth="yes"/>
      <point x="834" y="-20"/>
      <point x="1066" y="136"/>
      <point x="1114" y="344" type="curve"/>
      <point x="1039" y="370" type="line"/>
      <point x="969" y="176"/>
      <point x="807" y="62"/>
      <point x="623" y="62" type="curve" smooth="yes"/>
      <point x="356" y="62"/>
      <point x="239" y="302"/>
      <point x="239" y="578" type="curve" smooth="yes"/>
      <point x="239" y="949"/>
      <point x="452" y="1384"/>
      <point x="802" y="1384" type="curve" smooth="yes"/>
      <point x="1028" y="1384"/>
      <point x="1134" y="1248"/>
      <point x="1142" y="1060" type="curve"/>
      <point x="1223" y="1070" type="line"/>
      <point x="1231" y="1278"/>
      <point x="1075" y="1466"/>
      <point x="801" y="1466" type="curve" smooth="yes"/>
      <point x="399" y="1466"/>
      <point x="159" y="989"/>
      <point x="159" y="576" type="curve" smooth="yes"/>
      <point x="159" y="259"/>
      <point x="300" y="-20"/>
    </contour>
    <contour>
      <point x="616" y="0" type="move" name="bottom"/>
    </contour>
    <contour>
      <point x="806" y="1446" type="move" name="top"/>
    </contour>
  </outline>
</glyph>
<glyph name="D" format="1">
  <advance width="1261"/>
  <unicode hex="0044"/>
  <outline>
    <contour>
      <point x="140" y="0" type="line"/>
      <point x="338" y="0" type="line" smooth="yes"/>
      <point x="970" y="0"/>
      <point x="1171" y="416"/>
      <point x="1171" y="916" type="curve" smooth="yes"/>
      <point x="1171" y="1273"/>
      <point x="985" y="1442"/>
      <point x="559" y="1444" type="curve" smooth="yes"/>
      <point x="451" y="1444"/>
      <point x="345" y="1446"/>
      <point x="341" y="1446" type="curve"/>
    </contour>
    <contour>
      <point x="230" y="82" type="line"/>
      <point x="410" y="1364" type="line"/>
      <point x="534" y="1364" type="line" smooth="yes"/>
      <point x="890" y="1364"/>
      <point x="1093" y="1259"/>
      <point x="1093" y="904" type="curve" smooth="yes"/>
      <point x="1093" y="423"/>
      <point x="902" y="82"/>
      <point x="339" y="82" type="curve" smooth="yes"/>
    </contour>
    <contour>
      <point x="492" y="0" type="move" name="bottom"/>
    </contour>
    <contour>
      <point x="648" y="724" type="move" name="center"/>
    </contour>
    <contour>
      <point x="839" y="1446" type="move" name="top"/>
    </contour>
  </outline>
</glyph>
<glyph name="E" format="1">
  <advance width="1100"/>
  <unicode hex="0045"/>
  <outline>
    <contour>
      <point x="127" y="0" type="line"/>
      <point x="917" y="0" type="line"/>
      <point x="929" y="82" type="line"/>
      <point x="211" y="84" type="line"/>
      <point x="297" y="690" type="line"/>
      <point x="941" y="690" type="line"/>
      <point x="951" y="772" type="line"/>
      <point x="307" y="772" type="line"/>
      <point x="391" y="1366" type="line"/>
      <point x="1083" y="1366" type="line"/>
      <point x="1095" y="1446" type="line"/>
      <point x="331" y="1446" type="line"/>
    </contour>
    <contour>
      <point x="531" y="0" type="move" name="bottom"/>
    </contour>
    <contour>
      <point x="911" y="20" type="move" name="ogonek"/>
    </contour>
    <contour>
      <point x="695" y="1446" type="move" name="top"/>
    </contour>
  </outline>
</glyph>
<glyph name="F" format="1">
  <advance width="1064"/>
  <unicode hex="0046"/>
  <outline>
    <contour>
      <point x="129" y="0" type="line"/>
      <point x="207" y="0" type="line"/>
      <point x="305" y="692" type="line"/>
      <point x="931" y="692" type="line"/>
      <point x="941" y="774" type="line"/>
      <point x="317" y="774" type="line"/>
      <point x="399" y="1366" type="line"/>
      <point x="1073" y="1366" type="line"/>
      <point x="1083" y="1446" type="line"/>
      <point x="331" y="1446" type="line"/>
    </contour>
  </outline>
</glyph>
<glyph name="G" format="2">
	<advance width="1330"/>
	<unicode hex="0047"/>
	<anchor x="787" y="1446" name="top"/>
	<anchor x="581" y="0" name="bottom"/>
	<outline>
		<contour>
			<point x="579" y="-20" type="curve" smooth="yes"/>
			<point x="785" y="-20"/>
			<point x="937" y="100"/>
			<point x="1031" y="252" type="curve"/>
			<point x="995" y="0" type="line"/>
			<point x="1067" y="0" type="line"/>
			<point x="1171" y="736" type="line"/>
			<point x="727" y="736" type="line"/>
			<point x="717" y="666" type="line"/>
			<point x="1089" y="666" type="line"/>
			<point x="1065" y="498" type="line" smooth="yes"/>
			<point x="1039" y="314"/>
			<point x="875" y="58"/>
			<point x="591" y="58" type="curve" smooth="yes"/>
			<point x="299" y="58"/>
			<point x="169" y="298"/>
			<point x="229" y="730" type="curve" smooth="yes"/>
			<point x="287" y="1138"/>
			<point x="489" y="1384"/>
			<point x="777" y="1384" type="curve" smooth="yes"/>
			<point x="969" y="1384"/>
			<point x="1102" y="1242"/>
			<point x="1103" y="1060" type="curve"/>
			<point x="1191" y="1076" type="line"/>
			<point x="1201" y="1288"/>
			<point x="1011" y="1466"/>
			<point x="789" y="1466" type="curve" smooth="yes"/>
			<point x="463" y="1466"/>
			<point x="219" y="1198"/>
			<point x="153" y="718" type="curve" smooth="yes"/>
			<point x="87" y="252"/>
			<point x="245" y="-20"/>
		</contour>
	</outline>
</glyph>
<glyph name="H" format="1">
  <advance width="1278"/>
  <unicode hex="0048"/>
  <outline>
    <contour>
      <point x="127" y="0" type="line"/>
      <point x="199" y="0" type="line"/>
      <point x="299" y="712" type="line"/>
      <point x="1033" y="712" type="line"/>
      <point x="933" y="0" type="line"/>
      <point x="1005" y="0" type="line"/>
      <point x="1209" y="1446" type="line"/>
      <point x="1137" y="1446" type="line"/>
      <point x="1045" y="794" type="line"/>
      <point x="311" y="794" type="line"/>
      <point x="403" y="1446" type="line"/>
      <point x="331" y="1446" type="line"/>
    </contour>
    <contour>
      <point x="567" y="0" type="move" name="bottom"/>
    </contour>
    <contour>
      <point x="771" y="1446" type="move" name="top"/>
    </contour>
  </outline>
</glyph>
<glyph name="I" format="1">
  <advance width="474"/>
  <unicode hex="0049"/>
  <outline>
    <contour>
      <point x="129" y="0" type="line"/>
      <point x="201" y="0" type="line"/>
      <point x="403" y="1446" type="line"/>
      <point x="331" y="1446" type="line"/>
    </contour>
    <contour>
      <point x="167" y="0" type="move" name="bottom"/>
    </contour>
    <contour>
      <point x="193" y="20" type="move" name="ogonek"/>
    </contour>
    <contour>
      <point x="369" y="1446" type="move" name="top"/>
    </contour>
  </outline>
</glyph>
<glyph name="J" format="1">
  <advance width="686"/>
  <unicode hex="004A"/>
  <outline>
    <contour>
      <point x="197" y="-20" type="curve" smooth="yes"/>
      <point x="369" y="-20"/>
      <point x="437" y="96"/>
      <point x="463" y="280" type="curve" smooth="yes"/>
      <point x="627" y="1446" type="line"/>
      <point x="555" y="1446" type="line"/>
      <point x="395" y="308" type="line" smooth="yes"/>
      <point x="371" y="126"/>
      <point x="321" y="62"/>
      <point x="205" y="62" type="curve" smooth="yes"/>
      <point x="111" y="62"/>
      <point x="71" y="104"/>
      <point x="33" y="124" type="curve"/>
      <point x="3" y="38" type="line"/>
      <point x="13" y="26"/>
      <point x="93" y="-20"/>
    </contour>
    <contour>
      <point x="591" y="1446" type="move" name="top"/>
    </contour>
  </outline>
</glyph>
<glyph name="K" format="1">
  <advance width="1182"/>
  <unicode hex="004B"/>
  <outline>
    <contour>
      <point x="127" y="0" type="line"/>
      <point x="203" y="0" type="line"/>
      <point x="273" y="496" type="line"/>
      <point x="581" y="814" type="line"/>
      <point x="945" y="0" type="line"/>
      <point x="1039" y="0" type="line"/>
      <point x="651" y="876" type="line"/>
      <point x="1211" y="1446" type="line"/>
      <point x="1113" y="1446" type="line"/>
      <point x="289" y="612" type="line"/>
      <point x="405" y="1446" type="line"/>
      <point x="331" y="1446" type="line"/>
    </contour>
    <contour>
      <point x="535" y="0" type="move" name="bottom"/>
    </contour>
    <contour>
      <point x="771" y="1446" type="move" name="top"/>
    </contour>
  </outline>
</glyph>
<glyph name="L" format="1">
  <advance width="1028"/>
  <unicode hex="004C"/>
  <outline>
    <contour>
      <point x="127" y="0" type="line"/>
      <point x="885" y="0" type="line"/>
      <point x="897" y="86" type="line"/>
      <point x="217" y="86" type="line"/>
      <point x="409" y="1446" type="line"/>
      <point x="331" y="1446" type="line"/>
    </contour>
    <contour>
      <point x="495" y="0" type="move" name="bottom"/>
    </contour>
    <contour>
      <point x="371" y="1446" type="move" name="top"/>
    </contour>
    <contour>
      <point x="881" y="1446" type="move" name="topright"/>
    </contour>
  </outline>
</glyph>
<glyph name="M" format="1">
  <advance width="1576"/>
  <unicode hex="004D"/>
  <outline>
    <contour>
      <point x="119" y="0" type="line"/>
      <point x="197" y="0" type="line"/>
      <point x="369" y="1216" type="line"/>
      <point x="645" y="0" type="line"/>
      <point x="751" y="0" type="line"/>
      <point x="1377" y="1232" type="line"/>
      <point x="1203" y="0" type="line"/>
      <point x="1283" y="0" type="line"/>
      <point x="1485" y="1446" type="line"/>
      <point x="1407" y="1446" type="line"/>
      <point x="709" y="88" type="line"/>
      <point x="403" y="1446" type="line"/>
      <point x="321" y="1446" type="line"/>
    </contour>
  </outline>
</glyph>
<glyph name="N" format="1">
  <advance width="1322"/>
  <unicode hex="004E"/>
  <outline>
    <contour>
      <point x="127" y="0" type="line"/>
      <point x="199" y="0" type="line"/>
      <point x="381" y="1286" type="line"/>
      <point x="997" y="0" type="line"/>
      <point x="1059" y="0" type="line"/>
      <point x="1263" y="1446" type="line"/>
      <point x="1191" y="1446" type="line"/>
      <point x="1009" y="156" type="line"/>
      <point x="389" y="1446" type="line"/>
      <point x="331" y="1446" type="line"/>
    </contour>
    <contour>
      <point x="549" y="0" type="move" name="bottom"/>
    </contour>
    <contour>
      <point x="797" y="1446" type="move" name="top"/>
    </contour>
  </outline>
</glyph>
<glyph name="O" format="1">
  <advance width="1359"/>
  <unicode hex="004F"/>
  <outline>
    <contour>
      <point x="606" y="-20" type="curve" smooth="yes"/>
      <point x="942" y="-20"/>
      <point x="1180" y="238"/>
      <point x="1248" y="720" type="curve" smooth="yes"/>
      <point x="1316" y="1206"/>
      <point x="1152" y="1466"/>
      <point x="816" y="1466" type="curve" smooth="yes"/>
      <point x="478" y="1466"/>
      <point x="236" y="1204"/>
      <point x="168" y="716" type="curve" smooth="yes"/>
      <point x="100" y="236"/>
      <point x="266" y="-20"/>
    </contour>
    <contour>
      <point x="620" y="62" type="curve" smooth="yes"/>
      <point x="322" y="62"/>
      <point x="188" y="278"/>
      <point x="250" y="720" type="curve" smooth="yes"/>
      <point x="312" y="1164"/>
      <point x="508" y="1384"/>
      <point x="804" y="1384" type="curve" smooth="yes"/>
      <point x="1100" y="1384"/>
      <point x="1230" y="1166"/>
      <point x="1168" y="720" type="curve" smooth="yes"/>
      <point x="1106" y="276"/>
      <point x="916" y="62"/>
    </contour>
    <contour>
      <point x="612" y="0" type="move" name="bottom"/>
    </contour>
    <contour>
      <point x="1128" y="1212" type="move" name="horn"/>
    </contour>
    <contour>
      <point x="740" y="18" type="move" name="ogonek"/>
    </contour>
    <contour>
      <point x="816" y="1446" type="move" name="top"/>
    </contour>
  </outline>
</glyph>
<glyph name="P" format="1">
  <advance width="1220"/>
  <unicode hex="0050"/>
  <outline>
    <contour>
      <point x="129" y="0" type="line"/>
      <point x="207" y="0" type="line"/>
      <point x="285" y="554" type="line"/>
      <point x="627" y="554" type="line" smooth="yes"/>
      <point x="899" y="554"/>
      <point x="1117" y="716"/>
      <point x="1159" y="1006" type="curve" smooth="yes"/>
      <point x="1199" y="1296"/>
      <point x="1021" y="1446"/>
      <point x="741" y="1446" type="curve" smooth="yes"/>
      <point x="331" y="1446" type="line"/>
    </contour>
    <contour>
      <point x="297" y="640" type="line"/>
      <point x="399" y="1362" type="line"/>
      <point x="727" y="1362" type="line" smooth="yes"/>
      <point x="971" y="1362"/>
      <point x="1111" y="1252"/>
      <point x="1079" y="1012" type="curve" smooth="yes"/>
      <point x="1045" y="772"/>
      <point x="869" y="640"/>
      <point x="639" y="640" type="curve" smooth="yes"/>
    </contour>
  </outline>
</glyph>
<glyph name="Q" format="1">
  <advance width="1340"/>
  <unicode hex="0051"/>
  <outline>
    <contour>
      <point x="1087" y="-238" type="curve"/>
      <point x="1099" y="-158" type="line"/>
      <point x="983" y="-152"/>
      <point x="887" y="-100"/>
      <point x="845" y="36" type="curve"/>
      <point x="1077" y="158"/>
      <point x="1193" y="388"/>
      <point x="1239" y="720" type="curve" smooth="yes"/>
      <point x="1307" y="1210"/>
      <point x="1141" y="1466"/>
      <point x="805" y="1466" type="curve" smooth="yes"/>
      <point x="467" y="1466"/>
      <point x="227" y="1210"/>
      <point x="159" y="720" type="curve" smooth="yes"/>
      <point x="89" y="226"/>
      <point x="267" y="-20"/>
      <point x="595" y="-20" type="curve" smooth="yes"/>
      <point x="647" y="-20"/>
      <point x="699" y="-12"/>
      <point x="761" y="2" type="curve"/>
      <point x="827" y="-196"/>
      <point x="999" y="-238"/>
    </contour>
    <contour>
      <point x="607" y="62" type="curve" smooth="yes"/>
      <point x="313" y="62"/>
      <point x="177" y="274"/>
      <point x="239" y="716" type="curve" smooth="yes"/>
      <point x="301" y="1154"/>
      <point x="493" y="1384"/>
      <point x="793" y="1384" type="curve" smooth="yes"/>
      <point x="1093" y="1384"/>
      <point x="1221" y="1154"/>
      <point x="1159" y="720" type="curve" smooth="yes"/>
      <point x="1097" y="274"/>
      <point x="901" y="62"/>
    </contour>
  </outline>
</glyph>
<glyph name="R" format="1">
  <advance width="1239"/>
  <unicode hex="0052"/>
  <outline>
    <contour>
      <point x="137" y="0" type="line"/>
      <point x="209" y="0" type="line"/>
      <point x="307" y="688" type="line"/>
      <point x="753" y="688" type="line"/>
      <point x="925" y="0" type="line"/>
      <point x="1007" y="0" type="line"/>
      <point x="831" y="706" type="line"/>
      <point x="965" y="742"/>
      <point x="1135" y="846"/>
      <point x="1169" y="1088" type="curve" smooth="yes"/>
      <point x="1201" y="1326"/>
      <point x="1067" y="1446"/>
      <point x="809" y="1446" type="curve" smooth="yes"/>
      <point x="341" y="1446" type="line"/>
    </contour>
    <contour>
      <point x="317" y="770" type="line"/>
      <point x="401" y="1366" type="line"/>
      <point x="797" y="1366" type="line" smooth="yes"/>
      <point x="1015" y="1366"/>
      <point x="1117" y="1280"/>
      <point x="1089" y="1074" type="curve" smooth="yes"/>
      <point x="1059" y="856"/>
      <point x="909" y="770"/>
      <point x="653" y="770" type="curve" smooth="yes"/>
    </contour>
    <contour>
      <point x="535" y="0" type="move" name="bottom"/>
    </contour>
    <contour>
      <point x="725" y="1446" type="move" name="top"/>
    </contour>
  </outline>
</glyph>
<glyph name="S" format="1">
  <advance width="1227"/>
  <unicode hex="0053"/>
  <outline>
    <contour>
      <point x="548" y="-20" type="curve" smooth="yes"/>
      <point x="864" y="-20"/>
      <point x="1046" y="150"/>
      <point x="1074" y="354" type="curve" smooth="yes"/>
      <point x="1098" y="518"/>
      <point x="1042" y="668"/>
      <point x="842" y="728" type="curve" smooth="yes"/>
      <point x="570" y="808" type="line" smooth="yes"/>
      <point x="368" y="868"/>
      <point x="310" y="942"/>
      <point x="328" y="1066" type="curve" smooth="yes"/>
      <point x="358" y="1286"/>
      <point x="576" y="1382"/>
      <point x="734" y="1382" type="curve" smooth="yes"/>
      <point x="916" y="1382"/>
      <point x="1070" y="1300"/>
      <point x="1074" y="1064" type="curve"/>
      <point x="1150" y="1080" type="line"/>
      <point x="1160" y="1280"/>
      <point x="1052" y="1464"/>
      <point x="750" y="1464" type="curve" smooth="yes"/>
      <point x="482" y="1464"/>
      <point x="280" y="1292"/>
      <point x="248" y="1064" type="curve" smooth="yes"/>
      <point x="224" y="892"/>
      <point x="322" y="798"/>
      <point x="510" y="744" type="curve" smooth="yes"/>
      <point x="796" y="664" type="line" smooth="yes"/>
      <point x="960" y="618"/>
      <point x="1016" y="504"/>
      <point x="994" y="350" type="curve" smooth="yes"/>
      <point x="970" y="180"/>
      <point x="792" y="58"/>
      <point x="560" y="58" type="curve" smooth="yes"/>
      <point x="364" y="58"/>
      <point x="196" y="156"/>
      <point x="184" y="352" type="curve"/>
      <point x="104" y="334" type="line"/>
      <point x="112" y="110"/>
      <point x="306" y="-20"/>
    </contour>
    <contour>
      <point x="530" y="0" type="move" name="bottom"/>
    </contour>
    <contour>
      <point x="744" y="1446" type="move" name="top"/>
    </contour>
  </outline>
</glyph>
<glyph name="T" format="1">
  <advance width="1090"/>
  <unicode hex="0054"/>
  <outline>
    <contour>
      <point x="455" y="0" type="line"/>
      <point x="527" y="0" type="line"/>
      <point x="719" y="1366" type="line"/>
      <point x="1139" y="1366" type="line"/>
      <point x="1149" y="1446" type="line"/>
      <point x="201" y="1446" type="line"/>
      <point x="191" y="1366" type="line"/>
      <point x="647" y="1366" type="line"/>
    </contour>
    <contour>
      <point x="495" y="4" type="move" name="bottom"/>
    </contour>
    <contour>
      <point x="697" y="1446" type="move" name="top"/>
    </contour>
  </outline>
</glyph>
<glyph name="U" format="2">
	<advance width="1307"/>
	<unicode hex="0055"/>
	<anchor x="736" y="18" name="ogonek"/>
	<anchor x="812" y="1481" name="top"/>
	<anchor x="1199" y="1241" name="horn"/>
	<anchor x="599" y="4" name="bottom"/>
	<outline>
		<contour>
			<point x="599" y="-20" type="curve" smooth="yes"/>
			<point x="902" y="-20"/>
			<point x="1072" y="137"/>
			<point x="1117" y="459" type="curve" smooth="yes"/>
			<point x="1260" y="1481" type="line"/>
			<point x="1187" y="1481" type="line"/>
			<point x="1043" y="455" type="line" smooth="yes"/>
			<point x="1007" y="193"/>
			<point x="861" y="57"/>
			<point x="609" y="57" type="curve" smooth="yes"/>
			<point x="359" y="57"/>
			<point x="259" y="197"/>
			<point x="296" y="455" type="curve" smooth="yes"/>
			<point x="439" y="1481" type="line"/>
			<point x="359" y="1481" type="line"/>
			<point x="220" y="489" type="line" smooth="yes"/>
			<point x="171" y="141"/>
			<point x="290" y="-20"/>
		</contour>
	</outline>
</glyph>
<glyph name="V" format="1">
  <advance width="1120"/>
  <unicode hex="0056"/>
  <outline>
    <contour>
      <point x="429" y="0" type="line"/>
      <point x="535" y="0" type="line"/>
      <point x="1221" y="1446" type="line"/>
      <point x="1143" y="1446" type="line"/>
      <point x="493" y="82" type="line"/>
      <point x="239" y="1446" type="line"/>
      <point x="161" y="1446" type="line"/>
    </contour>
  </outline>
</glyph>
<glyph name="W" format="1">
  <advance width="1766"/>
  <unicode hex="0057"/>
  <outline>
    <contour>
      <point x="371" y="0" type="line"/>
      <point x="467" y="0" type="line"/>
      <point x="989" y="1296" type="line"/>
      <point x="1141" y="0" type="line"/>
      <point x="1241" y="0" type="line"/>
      <point x="1827" y="1446" type="line"/>
      <point x="1749" y="1446" type="line"/>
      <point x="1207" y="98" type="line"/>
      <point x="1047" y="1446" type="line"/>
      <point x="975" y="1446" type="line"/>
      <point x="433" y="98" type="line"/>
      <point x="283" y="1446" type="line"/>
      <point x="201" y="1446" type="line"/>
    </contour>
    <contour>
      <point x="1013" y="1446" type="move" name="top"/>
    </contour>
  </outline>
</glyph>
<glyph name="X" format="1">
  <advance width="1156"/>
  <unicode hex="0058"/>
  <outline>
    <contour>
      <point x="-3" y="0" type="line"/>
      <point x="89" y="0" type="line"/>
      <point x="599" y="664" type="line"/>
      <point x="921" y="0" type="line"/>
      <point x="1013" y="0" type="line"/>
      <point x="655" y="742" type="line"/>
      <point x="1193" y="1446" type="line"/>
      <point x="1101" y="1446" type="line"/>
      <point x="619" y="816" type="line"/>
      <point x="317" y="1446" type="line"/>
      <point x="221" y="1446" type="line"/>
      <point x="561" y="742" type="line"/>
    </contour>
  </outline>
</glyph>
<glyph name="Y" format="1">
  <advance width="1094"/>
  <unicode hex="0059"/>
  <outline>
    <contour>
      <point x="443" y="0" type="line"/>
      <point x="513" y="0" type="line"/>
      <point x="601" y="622" type="line"/>
      <point x="1155" y="1446" type="line"/>
      <point x="1075" y="1446" type="line"/>
      <point x="577" y="702" type="line"/>
      <point x="281" y="1446" type="line"/>
      <point x="201" y="1446" type="line"/>
      <point x="529" y="624" type="line"/>
    </contour>
    <contour>
      <point x="479" y="0" type="move" name="bottom"/>
    </contour>
    <contour>
      <point x="679" y="1450" type="move" name="top"/>
    </contour>
  </outline>
</glyph>
<glyph name="Z" format="1">
  <advance width="1097"/>
  <unicode hex="005A"/>
  <outline>
    <contour>
      <point x="37" y="0" type="line"/>
      <point x="913" y="0" type="line"/>
      <point x="925" y="78" type="line"/>
      <point x="139" y="78" type="line"/>
      <point x="1109" y="1386" type="line"/>
      <point x="1117" y="1446" type="line"/>
      <point x="257" y="1446" type="line"/>
      <point x="247" y="1368" type="line"/>
      <point x="1011" y="1368" type="line"/>
      <point x="47" y="62" type="line"/>
    </contour>
    <contour>
      <point x="497" y="0" type="move" name="bottom"/>
    </contour>
    <contour>
      <point x="687" y="1446" type="move" name="top"/>
    </contour>
  </outline>
</glyph>
<glyph name="bracketleft" format="2">
	<advance width="527"/>
	<unicode hex="005B"/>
	<outline>
		<contour>
			<point x="97" y="-330" type="line"/>
			<point x="364" y="-330" type="line"/>
			<point x="374" y="-256" type="line"/>
			<point x="183" y="-256" type="line"/>
			<point x="419" y="1407" type="line"/>
			<point x="609" y="1407" type="line"/>
			<point x="620" y="1481" type="line"/>
			<point x="349" y="1481" type="line"/>
		</contour>
	</outline>
</glyph>
<glyph name="backslash" format="1">
  <advance width="592"/>
  <unicode hex="005C"/>
  <outline>
    <contour>
      <point x="395" y="-118" type="line"/>
      <point x="473" y="-118" type="line"/>
      <point x="237" y="1446" type="line"/>
      <point x="161" y="1446" type="line"/>
    </contour>
  </outline>
</glyph>
<glyph name="asciicircum" format="2">
	<advance width="887"/>
	<unicode hex="005E"/>
	<outline>
		<contour>
			<point x="78" y="279" type="line"/>
			<point x="162" y="279" type="line"/>
			<point x="502" y="948" type="line"/>
			<point x="649" y="274" type="line"/>
			<point x="739" y="274" type="line"/>
			<point x="571" y="1006" type="line" smooth="yes"/>
			<point x="549" y="1106"/>
			<point x="492" y="1098"/>
			<point x="446" y="1006" type="curve" smooth="yes"/>
		</contour>
	</outline>
</glyph>
<glyph name="underscore" format="1">
  <advance width="909"/>
  <unicode hex="005F"/>
  <outline>
    <contour>
      <point x="30" y="-198" type="line"/>
      <point x="678" y="-196" type="line"/>
      <point x="690" y="-118" type="line"/>
      <point x="42" y="-120" type="line"/>
    </contour>
  </outline>
</glyph>
<glyph name="a" format="1">
  <advance width="1020"/>
  <unicode hex="0061"/>
  <outline>
    <contour>
      <point x="345" y="-20" type="curve" smooth="yes"/>
      <point x="485" y="-20"/>
      <point x="627" y="28"/>
      <point x="735" y="200" type="curve"/>
      <point x="711" y="0" type="line"/>
      <point x="777" y="0" type="line"/>
      <point x="877" y="716" type="line" smooth="yes"/>
      <point x="907" y="926"/>
      <point x="783" y="1054"/>
      <point x="581" y="1054" type="curve" smooth="yes"/>
      <point x="359" y="1054"/>
      <point x="217" y="904"/>
      <point x="187" y="758" type="curve"/>
      <point x="265" y="758" type="line"/>
      <point x="305" y="900"/>
      <point x="429" y="978"/>
      <point x="567" y="978" type="curve" smooth="yes"/>
      <point x="729" y="978"/>
      <point x="829" y="880"/>
      <point x="805" y="714" type="curve" smooth="yes"/>
      <point x="791" y="614" type="line"/>
      <point x="571" y="606" type="line" smooth="yes"/>
      <point x="253" y="594"/>
      <point x="111" y="496"/>
      <point x="79" y="264" type="curve" smooth="yes"/>
      <point x="55" y="88"/>
      <point x="157" y="-20"/>
    </contour>
    <contour>
      <point x="367" y="54" type="curve" smooth="yes"/>
      <point x="221" y="54"/>
      <point x="137" y="134"/>
      <point x="155" y="270" type="curve" smooth="yes"/>
      <point x="181" y="450"/>
      <point x="291" y="526"/>
      <point x="595" y="532" type="curve" smooth="yes"/>
      <point x="779" y="536" type="line"/>
      <point x="751" y="334" type="line" smooth="yes"/>
      <point x="731" y="194"/>
      <point x="525" y="54"/>
    </contour>
    <contour>
      <point x="435" y="0" type="move" name="bottom"/>
    </contour>
    <contour>
      <point x="769" y="28" type="move" name="ogonek"/>
    </contour>
    <contour>
      <point x="579" y="1034" type="move" name="top"/>
    </contour>
  </outline>
</glyph>
<glyph name="b" format="2">
	<advance width="1094"/>
	<unicode hex="0062"/>
	<outline>
		<contour>
			<point x="514" y="-20" type="curve" smooth="yes"/>
			<point x="773" y="-20"/>
			<point x="932" y="188"/>
			<point x="979" y="520" type="curve" smooth="yes"/>
			<point x="1020" y="812"/>
			<point x="938" y="1054"/>
			<point x="664" y="1054" type="curve" smooth="yes"/>
			<point x="426" y="1054"/>
			<point x="328" y="884"/>
			<point x="304" y="840" type="curve"/>
			<point x="394" y="1486" type="line"/>
			<point x="321" y="1486" type="line"/>
			<point x="113" y="0" type="line"/>
			<point x="178" y="0" type="line"/>
			<point x="214" y="212" type="line"/>
			<point x="222" y="164"/>
			<point x="260" y="-20"/>
		</contour>
		<contour>
			<point x="521" y="54" type="curve" smooth="yes"/>
			<point x="325" y="54"/>
			<point x="218" y="208"/>
			<point x="235" y="356" type="curve"/>
			<point x="279" y="678" type="line"/>
			<point x="294" y="722"/>
			<point x="357" y="978"/>
			<point x="646" y="978" type="curve" smooth="yes"/>
			<point x="861" y="978"/>
			<point x="941" y="798"/>
			<point x="901" y="520" type="curve" smooth="yes"/>
			<point x="857" y="200"/>
			<point x="710" y="54"/>
		</contour>
	</outline>
</glyph>
<glyph name="c" format="2">
	<advance width="1016"/>
	<unicode hex="0063"/>
	<anchor x="599" y="1034" name="top"/>
	<anchor x="456" y="0" name="bottom"/>
	<outline>
		<contour>
			<point x="452" y="-20" type="curve" smooth="yes"/>
			<point x="608" y="-20"/>
			<point x="780" y="56"/>
			<point x="854" y="276" type="curve"/>
			<point x="778" y="276" type="line"/>
			<point x="725" y="122"/>
			<point x="599" y="54"/>
			<point x="471" y="54" type="curve" smooth="yes"/>
			<point x="255" y="54"/>
			<point x="152" y="238"/>
			<point x="190" y="516" type="curve" smooth="yes"/>
			<point x="230" y="792"/>
			<point x="389" y="978"/>
			<point x="602" y="978" type="curve" smooth="yes"/>
			<point x="723" y="978"/>
			<point x="826" y="918"/>
			<point x="845" y="754" type="curve"/>
			<point x="923" y="758" type="line"/>
			<point x="912" y="966"/>
			<point x="765" y="1054"/>
			<point x="604" y="1054" type="curve" smooth="yes"/>
			<point x="347" y="1054"/>
			<point x="160" y="830"/>
			<point x="114" y="512" type="curve" smooth="yes"/>
			<point x="70" y="196"/>
			<point x="194" y="-20"/>
		</contour>
	</outline>
</glyph>
<glyph name="d" format="2">
	<advance width="1094"/>
	<unicode hex="0064"/>
	<anchor x="1039" y="1446" name="caron"/>
	<anchor x="461" y="0" name="bottom"/>
	<anchor x="556" y="516" name="center"/>
	<outline>
		<contour>
			<point x="430" y="-20" type="curve" smooth="yes"/>
			<point x="684" y="-20"/>
			<point x="773" y="164"/>
			<point x="795" y="212" type="curve"/>
			<point x="771" y="0" type="line"/>
			<point x="835" y="0" type="line"/>
			<point x="1045" y="1486" type="line"/>
			<point x="974" y="1486" type="line"/>
			<point x="886" y="856" type="line"/>
			<point x="871" y="900"/>
			<point x="804" y="1054"/>
			<point x="581" y="1054" type="curve" smooth="yes"/>
			<point x="308" y="1054"/>
			<point x="157" y="812"/>
			<point x="115" y="520" type="curve" smooth="yes"/>
			<point x="69" y="188"/>
			<point x="172" y="-20"/>
		</contour>
		<contour>
			<point x="441" y="54" type="curve" smooth="yes"/>
			<point x="256" y="54"/>
			<point x="147" y="200"/>
			<point x="193" y="520" type="curve" smooth="yes"/>
			<point x="231" y="798"/>
			<point x="363" y="978"/>
			<point x="577" y="978" type="curve" smooth="yes"/>
			<point x="846" y="978"/>
			<point x="857" y="722"/>
			<point x="859" y="678" type="curve"/>
			<point x="813" y="356" type="line"/>
			<point x="789" y="208"/>
			<point x="640" y="54"/>
		</contour>
	</outline>
</glyph>
<glyph name="e" format="1">
  <advance width="1049"/>
  <unicode hex="0065"/>
  <outline>
    <contour>
      <point x="468" y="-20" type="curve" smooth="yes"/>
      <point x="638" y="-20"/>
      <point x="792" y="66"/>
      <point x="874" y="276" type="curve"/>
      <point x="798" y="276" type="line"/>
      <point x="738" y="138"/>
      <point x="628" y="58"/>
      <point x="480" y="58" type="curve" smooth="yes"/>
      <point x="240" y="58"/>
      <point x="166" y="262"/>
      <point x="198" y="496" type="curve"/>
      <point x="916" y="496" type="line"/>
      <point x="924" y="554" type="line"/>
      <point x="970" y="872"/>
      <point x="852" y="1054"/>
      <point x="608" y="1054" type="curve" smooth="yes"/>
      <point x="350" y="1054"/>
      <point x="172" y="850"/>
      <point x="124" y="508" type="curve" smooth="yes"/>
      <point x="76" y="170"/>
      <point x="220" y="-20"/>
    </contour>
    <contour>
      <point x="212" y="574" type="line"/>
      <point x="238" y="768"/>
      <point x="364" y="976"/>
      <point x="596" y="976" type="curve" smooth="yes"/>
      <point x="810" y="976"/>
      <point x="884" y="804"/>
      <point x="852" y="574" type="curve"/>
    </contour>
    <contour>
      <point x="458" y="0" type="move" name="bottom"/>
    </contour>
    <contour>
      <point x="636" y="36" type="move" name="ogonek"/>
    </contour>
    <contour>
      <point x="606" y="1034" type="move" name="top"/>
    </contour>
  </outline>
</glyph>
<glyph name="f" format="1">
  <advance width="740"/>
  <unicode hex="0066"/>
  <outline>
    <contour>
      <point x="235" y="0" type="line"/>
      <point x="307" y="0" type="line"/>
      <point x="441" y="966" type="line"/>
      <point x="703" y="966" type="line"/>
      <point x="713" y="1034" type="line"/>
      <point x="451" y="1034" type="line"/>
      <point x="477" y="1222" type="line" smooth="yes"/>
      <point x="491" y="1322"/>
      <point x="523" y="1378"/>
      <point x="613" y="1378" type="curve" smooth="yes"/>
      <point x="771" y="1378" type="line"/>
      <point x="779" y="1446" type="line"/>
      <point x="641" y="1446" type="line" smooth="yes"/>
      <point x="497" y="1446"/>
      <point x="427" y="1366"/>
      <point x="403" y="1206" type="curve" smooth="yes"/>
      <point x="379" y="1034" type="line"/>
      <point x="153" y="1034" type="line"/>
      <point x="143" y="966" type="line"/>
      <point x="371" y="966" type="line"/>
    </contour>
  </outline>
</glyph>
<glyph name="g" format="1">
  <advance width="1074"/>
  <unicode hex="0067"/>
  <outline>
    <contour>
      <point x="390" y="-342" type="curve" smooth="yes"/>
      <point x="661" y="-342"/>
      <point x="832" y="-234"/>
      <point x="857" y="-42" type="curve" smooth="yes"/>
      <point x="877" y="116"/>
      <point x="803" y="214"/>
      <point x="610" y="226" type="curve" smooth="yes"/>
      <point x="522" y="232"/>
      <point x="452" y="236"/>
      <point x="395" y="240" type="curve" smooth="yes"/>
      <point x="245" y="252"/>
      <point x="204" y="266"/>
      <point x="211" y="318" type="curve" smooth="yes"/>
      <point x="216" y="354"/>
      <point x="282" y="404"/>
      <point x="475" y="408" type="curve" smooth="yes"/>
      <point x="480" y="408"/>
      <point x="486" y="408"/>
      <point x="495" y="408" type="curve" smooth="yes"/>
      <point x="747" y="408"/>
      <point x="874" y="544"/>
      <point x="896" y="716" type="curve" smooth="yes"/>
      <point x="903" y="770"/>
      <point x="890" y="850"/>
      <point x="875" y="890" type="curve"/>
      <point x="1052" y="932" type="line"/>
      <point x="1065" y="1049" type="line"/>
      <point x="1040" y="1039"/>
      <point x="871" y="965"/>
      <point x="844" y="952" type="curve"/>
      <point x="780" y="1017"/>
      <point x="704" y="1050"/>
      <point x="583" y="1050" type="curve" smooth="yes"/>
      <point x="347" y="1050"/>
      <point x="192" y="928"/>
      <point x="166" y="724" type="curve" smooth="yes"/>
      <point x="148" y="592"/>
      <point x="185" y="515"/>
      <point x="294" y="446" type="curve"/>
      <point x="196" y="415"/>
      <point x="142" y="368"/>
      <point x="135" y="314" type="curve" smooth="yes"/>
      <point x="126" y="250"/>
      <point x="169" y="227"/>
      <point x="200" y="205" type="curve"/>
      <point x="167" y="177"/>
      <point x="11" y="106"/>
      <point x="-9" y="-48" type="curve" smooth="yes"/>
      <point x="-33" y="-232"/>
      <point x="111" y="-342"/>
    </contour>
    <contour>
      <point x="408" y="-268" type="curve" smooth="yes"/>
      <point x="173" y="-268"/>
      <point x="49" y="-190"/>
      <point x="67" y="-48" type="curve" smooth="yes"/>
      <point x="84" y="82"/>
      <point x="231" y="172"/>
      <point x="288" y="168" type="curve" smooth="yes"/>
      <point x="604" y="146" type="line" smooth="yes"/>
      <point x="754" y="136"/>
      <point x="796" y="72"/>
      <point x="782" y="-34" type="curve" smooth="yes"/>
      <point x="761" y="-194"/>
      <point x="594" y="-268"/>
    </contour>
    <contour>
      <point x="498" y="482" type="curve" smooth="yes"/>
      <point x="310" y="482"/>
      <point x="217" y="564"/>
      <point x="237" y="720" type="curve" smooth="yes"/>
      <point x="258" y="882"/>
      <point x="380" y="976"/>
      <point x="571" y="976" type="curve" smooth="yes"/>
      <point x="743" y="976"/>
      <point x="848" y="898"/>
      <point x="825" y="728" type="curve" smooth="yes"/>
      <point x="804" y="566"/>
      <point x="695" y="482"/>
    </contour>
    <contour>
      <point x="612" y="1034" type="move" name="top"/>
    </contour>
  </outline>
</glyph>
<glyph name="h" format="2">
	<advance width="1071"/>
	<unicode hex="0068"/>
	<anchor x="355" y="1446" name="top"/>
	<anchor x="492" y="0" name="bottom"/>
	<outline>
		<contour>
			<point x="112" y="0" type="line"/>
			<point x="185" y="0" type="line"/>
			<point x="287" y="720" type="line"/>
			<point x="311" y="896"/>
			<point x="469" y="978"/>
			<point x="637" y="978" type="curve" smooth="yes"/>
			<point x="799" y="978"/>
			<point x="887" y="888"/>
			<point x="864" y="736" type="curve" smooth="yes"/>
			<point x="761" y="0" type="line"/>
			<point x="833" y="0" type="line"/>
			<point x="940" y="766" type="line" smooth="yes"/>
			<point x="965" y="936"/>
			<point x="839" y="1054"/>
			<point x="650" y="1054" type="curve" smooth="yes"/>
			<point x="495" y="1054"/>
			<point x="366" y="978"/>
			<point x="303" y="880" type="curve"/>
			<point x="389" y="1486" type="line"/>
			<point x="322" y="1486" type="line"/>
		</contour>
	</outline>
</glyph>
<glyph name="i" format="1">
  <advance width="489"/>
  <unicode hex="0069"/>
  <outline>
    <contour>
      <point x="137" y="0" type="line"/>
      <point x="209" y="0" type="line"/>
      <point x="353" y="1034" type="line"/>
      <point x="281" y="1034" type="line"/>
    </contour>
    <contour>
      <point x="309" y="1294" type="line"/>
      <point x="397" y="1294" type="line"/>
      <point x="415" y="1414" type="line"/>
      <point x="327" y="1414" type="line"/>
    </contour>
    <contour>
      <point x="171" y="0" type="move" name="bottom"/>
    </contour>
  </outline>
</glyph>
<glyph name="j" format="1">
  <advance width="438"/>
  <unicode hex="006A"/>
  <outline>
    <contour>
      <point x="-73" y="-332" type="curve" smooth="yes"/>
      <point x="91" y="-332"/>
      <point x="139" y="-260"/>
      <point x="161" y="-100" type="curve" smooth="yes"/>
      <point x="321" y="1034" type="line"/>
      <point x="249" y="1034" type="line"/>
      <point x="91" y="-90" type="line" smooth="yes"/>
      <point x="73" y="-214"/>
      <point x="31" y="-258"/>
      <point x="-65" y="-260" type="curve" smooth="yes"/>
      <point x="-179" y="-262" type="line"/>
      <point x="-187" y="-314" type="line" smooth="yes"/>
      <point x="-187" y="-314"/>
      <point x="-181" y="-332"/>
    </contour>
    <contour>
      <point x="279" y="1294" type="line"/>
      <point x="367" y="1294" type="line"/>
      <point x="383" y="1414" type="line"/>
      <point x="295" y="1414" type="line"/>
    </contour>
  </outline>
</glyph>
<glyph name="k" format="1">
  <advance width="1042"/>
  <unicode hex="006B"/>
  <outline>
    <contour>
      <point x="117" y="0" type="line"/>
      <point x="189" y="0" type="line"/>
      <point x="233" y="316" type="line"/>
      <point x="523" y="592" type="line"/>
      <point x="777" y="0" type="line"/>
      <point x="869" y="0" type="line"/>
      <point x="587" y="658" type="line"/>
      <point x="981" y="1034" type="line"/>
      <point x="879" y="1034" type="line"/>
      <point x="249" y="428" type="line"/>
      <point x="397" y="1486" type="line"/>
      <point x="327" y="1486" type="line"/>
    </contour>
    <contour>
      <point x="443" y="0" type="move" name="bottom"/>
    </contour>
  </outline>
</glyph>
<glyph name="l" format="1">
  <advance width="528"/>
  <unicode hex="006C"/>
  <outline>
    <contour>
      <point x="273" y="-8" type="curve" smooth="yes"/>
      <point x="285" y="-8"/>
      <point x="311" y="-6"/>
      <point x="335" y="0" type="curve"/>
      <point x="343" y="58" type="line"/>
      <point x="285" y="58" type="line"/>
      <point x="233" y="58"/>
      <point x="185" y="108"/>
      <point x="203" y="242" type="curve"/>
      <point x="379" y="1486" type="line"/>
      <point x="307" y="1486" type="line"/>
      <point x="131" y="242" type="line"/>
      <point x="111" y="100"/>
      <point x="147" y="-8"/>
    </contour>
    <contour>
      <point x="171" y="2" type="move" name="bottom"/>
    </contour>
    <contour>
      <point x="341" y="1524" type="move" name="top"/>
    </contour>
    <contour>
      <point x="591" y="1446" type="move" name="topright"/>
    </contour>
  </outline>
</glyph>
<glyph name="m" format="1">
  <advance width="1562"/>
  <unicode hex="006D"/>
  <outline>
    <contour>
      <point x="99" y="0" type="line"/>
      <point x="169" y="0" type="line"/>
      <point x="271" y="720" type="line" smooth="yes"/>
      <point x="297" y="906"/>
      <point x="455" y="978"/>
      <point x="575" y="978" type="curve" smooth="yes"/>
      <point x="681" y="978"/>
      <point x="799" y="904"/>
      <point x="777" y="752" type="curve" smooth="yes"/>
      <point x="673" y="0" type="line"/>
      <point x="743" y="0" type="line"/>
      <point x="845" y="720" type="line" smooth="yes"/>
      <point x="873" y="924"/>
      <point x="1039" y="978"/>
      <point x="1149" y="978" type="curve" smooth="yes"/>
      <point x="1273" y="978"/>
      <point x="1377" y="920"/>
      <point x="1343" y="670" type="curve" smooth="yes"/>
      <point x="1249" y="0" type="line"/>
      <point x="1319" y="0" type="line"/>
      <point x="1413" y="670" type="line" smooth="yes"/>
      <point x="1461" y="1002"/>
      <point x="1287" y="1054"/>
      <point x="1159" y="1054" type="curve" smooth="yes"/>
      <point x="1031" y="1054"/>
      <point x="917" y="990"/>
      <point x="843" y="882" type="curve"/>
      <point x="817" y="994"/>
      <point x="697" y="1054"/>
      <point x="587" y="1054" type="curve" smooth="yes"/>
      <point x="439" y="1054"/>
      <point x="347" y="972"/>
      <point x="287" y="880" type="curve"/>
      <point x="309" y="1034" type="line"/>
      <point x="243" y="1034" type="line"/>
    </contour>
  </outline>
</glyph>
<glyph name="n" format="1">
  <advance width="1060"/>
  <unicode hex="006E"/>
  <outline>
    <contour>
      <point x="99" y="0" type="line"/>
      <point x="169" y="0" type="line"/>
      <point x="271" y="720" type="line" smooth="yes"/>
      <point x="295" y="896"/>
      <point x="453" y="978"/>
      <point x="623" y="978" type="curve" smooth="yes"/>
      <point x="783" y="978"/>
      <point x="869" y="870"/>
      <point x="841" y="670" type="curve" smooth="yes"/>
      <point x="745" y="0" type="line"/>
      <point x="817" y="0" type="line"/>
      <point x="911" y="670" type="line" smooth="yes"/>
      <point x="949" y="934"/>
      <point x="823" y="1054"/>
      <point x="633" y="1054" type="curve" smooth="yes"/>
      <point x="479" y="1054"/>
      <point x="351" y="978"/>
      <point x="289" y="880" type="curve"/>
      <point x="309" y="1034" type="line"/>
      <point x="243" y="1034" type="line"/>
    </contour>
    <contour>
      <point x="461" y="0" type="move" name="bottom"/>
    </contour>
    <contour>
      <point x="623" y="1034" type="move" name="top"/>
    </contour>
  </outline>
</glyph>
<glyph name="o" format="1">
  <advance width="1034"/>
  <unicode hex="006F"/>
  <outline>
    <contour>
      <point x="445" y="-20" type="curve" smooth="yes"/>
      <point x="707" y="-20"/>
      <point x="885" y="198"/>
      <point x="929" y="514" type="curve" smooth="yes"/>
      <point x="973" y="830"/>
      <point x="857" y="1054"/>
      <point x="599" y="1054" type="curve" smooth="yes"/>
      <point x="335" y="1054"/>
      <point x="155" y="828"/>
      <point x="109" y="510" type="curve" smooth="yes"/>
      <point x="65" y="196"/>
      <point x="181" y="-20"/>
    </contour>
    <contour>
      <point x="459" y="54" type="curve" smooth="yes"/>
      <point x="237" y="54"/>
      <point x="147" y="240"/>
      <point x="185" y="514" type="curve" smooth="yes"/>
      <point x="225" y="790"/>
      <point x="367" y="978"/>
      <point x="587" y="978" type="curve" smooth="yes"/>
      <point x="807" y="978"/>
      <point x="893" y="792"/>
      <point x="853" y="514" type="curve" smooth="yes"/>
      <point x="815" y="238"/>
      <point x="681" y="54"/>
    </contour>
    <contour>
      <point x="451" y="0" type="move" name="bottom"/>
    </contour>
    <contour>
      <point x="901" y="714" type="move" name="horn"/>
    </contour>
    <contour>
      <point x="565" y="20" type="move" name="ogonek"/>
    </contour>
    <contour>
      <point x="597" y="1034" type="move" name="top"/>
    </contour>
  </outline>
</glyph>
<glyph name="p" format="1">
  <advance width="1082"/>
  <unicode hex="0070"/>
  <outline>
    <contour>
      <point x="63" y="-322" type="line"/>
      <point x="135" y="-322" type="line"/>
      <point x="199" y="136" type="line"/>
      <point x="267" y="32"/>
      <point x="355" y="-20"/>
      <point x="465" y="-20" type="curve" smooth="yes"/>
      <point x="729" y="-20"/>
      <point x="927" y="204"/>
      <point x="975" y="536" type="curve" smooth="yes"/>
      <point x="1023" y="882"/>
      <point x="867" y="1054"/>
      <point x="637" y="1054" type="curve" smooth="yes"/>
      <point x="437" y="1054"/>
      <point x="335" y="918"/>
      <point x="299" y="880" type="curve"/>
      <point x="321" y="1034" type="line"/>
      <point x="253" y="1034" type="line"/>
    </contour>
    <contour>
      <point x="475" y="54" type="curve" smooth="yes"/>
      <point x="363" y="54"/>
      <point x="281" y="112"/>
      <point x="209" y="202" type="curve"/>
      <point x="279" y="710" type="line" smooth="yes"/>
      <point x="295" y="826"/>
      <point x="439" y="978"/>
      <point x="617" y="978" type="curve" smooth="yes"/>
      <point x="797" y="978"/>
      <point x="941" y="838"/>
      <point x="897" y="528" type="curve" smooth="yes"/>
      <point x="857" y="232"/>
      <point x="681" y="54"/>
    </contour>
  </outline>
</glyph>
<glyph name="q" format="2">
	<advance width="1092"/>
	<unicode hex="0071"/>
	<outline>
		<contour>
			<point x="719" y="-322" type="line"/>
			<point x="788" y="-322" type="line"/>
			<point x="980" y="1034" type="line"/>
			<point x="912" y="1034" type="line"/>
			<point x="891" y="880" type="line"/>
			<point x="864" y="918"/>
			<point x="801" y="1054"/>
			<point x="601" y="1054" type="curve" smooth="yes"/>
			<point x="370" y="1054"/>
			<point x="166" y="882"/>
			<point x="118" y="536" type="curve" smooth="yes"/>
			<point x="72" y="204"/>
			<point x="206" y="-20"/>
			<point x="471" y="-20" type="curve" smooth="yes"/>
			<point x="616" y="-20"/>
			<point x="732" y="62"/>
			<point x="790" y="192" type="curve"/>
		</contour>
		<contour>
			<point x="482" y="54" type="curve" smooth="yes"/>
			<point x="276" y="54"/>
			<point x="152" y="232"/>
			<point x="192" y="528" type="curve" smooth="yes"/>
			<point x="236" y="838"/>
			<point x="418" y="978"/>
			<point x="599" y="978" type="curve" smooth="yes"/>
			<point x="776" y="978"/>
			<point x="878" y="826"/>
			<point x="862" y="710" type="curve" smooth="yes"/>
			<point x="814" y="364" type="line"/>
			<point x="796" y="232"/>
			<point x="685" y="54"/>
		</contour>
	</outline>
</glyph>
<glyph name="r" format="1">
  <advance width="710"/>
  <unicode hex="0072"/>
  <outline>
    <contour>
      <point x="97" y="0" type="line"/>
      <point x="169" y="0" type="line"/>
      <point x="271" y="720" type="line" smooth="yes"/>
      <point x="293" y="880"/>
      <point x="427" y="976"/>
      <point x="663" y="974" type="curve"/>
      <point x="675" y="1054" type="line"/>
      <point x="495" y="1054"/>
      <point x="351" y="978"/>
      <point x="287" y="880" type="curve"/>
      <point x="309" y="1034" type="line"/>
      <point x="243" y="1034" type="line"/>
    </contour>
    <contour>
      <point x="134" y="0" type="move" name="bottom"/>
    </contour>
    <contour>
      <point x="443" y="1034" type="move" name="top"/>
    </contour>
  </outline>
</glyph>
<glyph name="s" format="1">
  <advance width="909"/>
  <unicode hex="0073"/>
  <outline>
    <contour>
      <point x="395" y="-20" type="curve" smooth="yes"/>
      <point x="573" y="-20"/>
      <point x="738" y="78"/>
      <point x="764" y="266" type="curve" smooth="yes"/>
      <point x="780" y="378"/>
      <point x="741" y="480"/>
      <point x="608" y="522" type="curve" smooth="yes"/>
      <point x="389" y="590" type="line" smooth="yes"/>
      <point x="286" y="622"/>
      <point x="232" y="668"/>
      <point x="245" y="760" type="curve" smooth="yes"/>
      <point x="261" y="877"/>
      <point x="347" y="978"/>
      <point x="532" y="978" type="curve" smooth="yes"/>
      <point x="656" y="978"/>
      <point x="740" y="922"/>
      <point x="736" y="782" type="curve"/>
      <point x="812" y="778" type="line"/>
      <point x="827" y="942"/>
      <point x="726" y="1054"/>
      <point x="534" y="1054" type="curve" smooth="yes"/>
      <point x="338" y="1054"/>
      <point x="194" y="941"/>
      <point x="170" y="768" type="curve" smooth="yes"/>
      <point x="150" y="628"/>
      <point x="229" y="556"/>
      <point x="362" y="514" type="curve" smooth="yes"/>
      <point x="581" y="446" type="line" smooth="yes"/>
      <point x="666" y="419"/>
      <point x="702" y="364"/>
      <point x="689" y="270" type="curve" smooth="yes"/>
      <point x="670" y="136"/>
      <point x="553" y="56"/>
      <point x="397" y="56" type="curve" smooth="yes"/>
      <point x="246" y="56"/>
      <point x="148" y="130"/>
      <point x="142" y="274" type="curve"/>
      <point x="66" y="278" type="line"/>
      <point x="60" y="88"/>
      <point x="191" y="-20"/>
    </contour>
    <contour>
      <point x="267" y="0" type="move" name="bottom"/>
    </contour>
    <contour>
      <point x="542" y="1034" type="move" name="top"/>
    </contour>
  </outline>
</glyph>
<glyph name="t" format="1">
  <advance width="639"/>
  <unicode hex="0074"/>
  <outline>
    <contour>
      <point x="351" y="0" type="curve" smooth="yes"/>
      <point x="397" y="0"/>
      <point x="443" y="2"/>
      <point x="467" y="10" type="curve"/>
      <point x="477" y="78" type="line"/>
      <point x="397" y="78" type="line" smooth="yes"/>
      <point x="285" y="78"/>
      <point x="251" y="98"/>
      <point x="271" y="242" type="curve" smooth="yes"/>
      <point x="373" y="966" type="line"/>
      <point x="593" y="966" type="line"/>
      <point x="603" y="1034" type="line"/>
      <point x="383" y="1034" type="line"/>
      <point x="423" y="1324" type="line"/>
      <point x="367" y="1324" type="line"/>
      <point x="307" y="1034" type="line"/>
      <point x="153" y="1034" type="line"/>
      <point x="143" y="966" type="line"/>
      <point x="299" y="966" type="line"/>
      <point x="195" y="232" type="line" smooth="yes"/>
      <point x="171" y="66"/>
      <point x="207" y="0"/>
    </contour>
    <contour>
      <point x="305" y="0" type="move" name="bottom"/>
    </contour>
    <contour>
      <point x="337" y="620" type="move" name="center"/>
    </contour>
    <contour>
      <point x="771" y="1472" type="move" name="topright"/>
    </contour>
  </outline>
</glyph>
<glyph name="u" format="1">
  <advance width="1040"/>
  <unicode hex="0075"/>
  <outline>
    <contour>
      <point x="444" y="-18" type="curve" smooth="yes"/>
      <point x="584" y="-20"/>
      <point x="712" y="68"/>
      <point x="762" y="192" type="curve"/>
      <point x="742" y="2" type="line"/>
      <point x="808" y="2" type="line"/>
      <point x="952" y="1038" type="line"/>
      <point x="882" y="1038" type="line"/>
      <point x="786" y="364" type="line"/>
      <point x="756" y="152"/>
      <point x="596" y="58"/>
      <point x="450" y="58" type="curve" smooth="yes"/>
      <point x="334" y="58"/>
      <point x="176" y="120"/>
      <point x="208" y="348" type="curve" smooth="yes"/>
      <point x="306" y="1038" type="line"/>
      <point x="234" y="1038" type="line"/>
      <point x="136" y="348" type="line" smooth="yes"/>
      <point x="98" y="70"/>
      <point x="286" y="-16"/>
    </contour>
    <contour>
      <point x="444" y="0" type="move" name="bottom"/>
    </contour>
    <contour>
      <point x="900" y="856" type="move" name="horn"/>
    </contour>
    <contour>
      <point x="794" y="22" type="move" name="ogonek"/>
    </contour>
    <contour>
      <point x="592" y="1034" type="move" name="top"/>
    </contour>
  </outline>
</glyph>
<glyph name="v" format="1">
  <advance width="934"/>
  <unicode hex="0076"/>
  <outline>
    <contour>
      <point x="337" y="0" type="line"/>
      <point x="453" y="0" type="line"/>
      <point x="927" y="1034" type="line"/>
      <point x="855" y="1034" type="line"/>
      <point x="417" y="88" type="line"/>
      <point x="393" y="88" type="line"/>
      <point x="231" y="1034" type="line"/>
      <point x="153" y="1034" type="line"/>
    </contour>
  </outline>
</glyph>
<glyph name="w" format="1">
  <advance width="1420"/>
  <unicode hex="0077"/>
  <outline>
    <contour>
      <point x="277" y="0" type="line"/>
      <point x="403" y="0" type="line"/>
      <point x="765" y="900" type="line"/>
      <point x="895" y="0" type="line"/>
      <point x="1015" y="0" type="line"/>
      <point x="1423" y="1034" type="line"/>
      <point x="1349" y="1034" type="line"/>
      <point x="975" y="90" type="line"/>
      <point x="953" y="90" type="line"/>
      <point x="817" y="1034" type="line"/>
      <point x="751" y="1034" type="line"/>
      <point x="363" y="86" type="line"/>
      <point x="341" y="86" type="line"/>
      <point x="221" y="1034" type="line"/>
      <point x="143" y="1034" type="line"/>
    </contour>
    <contour>
      <point x="791" y="1034" type="move" name="top"/>
    </contour>
  </outline>
</glyph>
<glyph name="x" format="1">
  <advance width="970"/>
  <unicode hex="0078"/>
  <outline>
    <contour>
      <point x="-3" y="0" type="line"/>
      <point x="87" y="0" type="line"/>
      <point x="477" y="474" type="line"/>
      <point x="737" y="0" type="line"/>
      <point x="827" y="0" type="line"/>
      <point x="533" y="536" type="line"/>
      <point x="943" y="1034" type="line"/>
      <point x="853" y="1034" type="line"/>
      <point x="495" y="598" type="line"/>
      <point x="259" y="1034" type="line"/>
      <point x="169" y="1034" type="line"/>
      <point x="439" y="536" type="line"/>
    </contour>
  </outline>
</glyph>
<glyph name="y" format="1">
  <advance width="908"/>
  <unicode hex="0079"/>
  <outline>
    <contour>
      <point x="75" y="-330" type="curve" smooth="yes"/>
      <point x="189" y="-330"/>
      <point x="283" y="-280"/>
      <point x="349" y="-150" type="curve" smooth="yes"/>
      <point x="931" y="1034" type="line"/>
      <point x="861" y="1034" type="line"/>
      <point x="405" y="112" type="line"/>
      <point x="201" y="1034" type="line"/>
      <point x="123" y="1034" type="line"/>
      <point x="351" y="6" type="line"/>
      <point x="283" y="-132" type="line"/>
      <point x="247" y="-204"/>
      <point x="191" y="-260"/>
      <point x="73" y="-260" type="curve" smooth="yes"/>
      <point x="-29" y="-260" type="line"/>
      <point x="-37" y="-314" type="line" smooth="yes"/>
      <point x="-37" y="-314"/>
      <point x="-17" y="-330"/>
    </contour>
    <contour>
      <point x="533" y="1034" type="move" name="top"/>
    </contour>
  </outline>
</glyph>
<glyph name="z" format="1">
  <advance width="913"/>
  <unicode hex="007A"/>
  <outline>
    <contour>
      <point x="38" y="0" type="line"/>
      <point x="730" y="0" type="line"/>
      <point x="738" y="68" type="line"/>
      <point x="130" y="68" type="line"/>
      <point x="850" y="952" type="line"/>
      <point x="862" y="1034" type="line"/>
      <point x="222" y="1034" type="line"/>
      <point x="212" y="966" type="line"/>
      <point x="774" y="966" type="line"/>
      <point x="48" y="76" type="line"/>
    </contour>
    <contour>
      <point x="396" y="0" type="move" name="bottom"/>
    </contour>
    <contour>
      <point x="542" y="1034" type="move" name="top"/>
    </contour>
  </outline>
</glyph>
<glyph name="braceleft" format="2">
	<advance width="515"/>
	<unicode hex="007B"/>
	<outline>
		<contour>
			<point x="302" y="-330" type="curve" smooth="yes"/>
			<point x="353" y="-330" type="line"/>
			<point x="364" y="-256" type="line"/>
			<point x="312" y="-256" type="line" smooth="yes"/>
			<point x="220" y="-256"/>
			<point x="200" y="-221"/>
			<point x="210" y="-145" type="curve" smooth="yes"/>
			<point x="275" y="324" type="line" smooth="yes"/>
			<point x="298" y="489"/>
			<point x="230" y="561"/>
			<point x="136" y="569" type="curve" smooth="yes"/>
			<point x="120" y="571"/>
			<point x="124" y="582"/>
			<point x="138" y="584" type="curve" smooth="yes"/>
			<point x="237" y="594"/>
			<point x="325" y="676"/>
			<point x="347" y="838" type="curve" smooth="yes"/>
			<point x="413" y="1303" type="line" smooth="yes"/>
			<point x="423" y="1376"/>
			<point x="460" y="1407"/>
			<point x="544" y="1407" type="curve" smooth="yes"/>
			<point x="597" y="1407" type="line"/>
			<point x="607" y="1481" type="line"/>
			<point x="556" y="1481" type="line" smooth="yes"/>
			<point x="419" y="1481"/>
			<point x="347" y="1405"/>
			<point x="333" y="1303" type="curve" smooth="yes"/>
			<point x="267" y="838" type="line" smooth="yes"/>
			<point x="249" y="717"/>
			<point x="167" y="616"/>
			<point x="24" y="614" type="curve"/>
			<point x="11" y="537" type="line"/>
			<point x="153" y="537"/>
			<point x="208" y="420"/>
			<point x="196" y="324" type="curve" smooth="yes"/>
			<point x="128" y="-145" type="line" smooth="yes"/>
			<point x="114" y="-248"/>
			<point x="157" y="-330"/>
		</contour>
	</outline>
</glyph>
<glyph name="bar" format="1">
  <advance width="470"/>
  <unicode hex="007C"/>
  <outline>
    <contour>
      <point x="84" y="-322" type="line"/>
      <point x="152" y="-322" type="line"/>
      <point x="430" y="1652" type="line"/>
      <point x="360" y="1652" type="line"/>
    </contour>
  </outline>
</glyph>
<glyph name="asciitilde" format="2">
	<advance width="1006"/>
	<unicode hex="007E"/>
	<outline>
		<contour>
			<point x="166" y="670" type="line"/>
			<point x="211" y="713"/>
			<point x="276" y="758"/>
			<point x="371" y="758" type="curve" smooth="yes"/>
			<point x="502" y="758"/>
			<point x="553" y="670"/>
			<point x="700" y="670" type="curve" smooth="yes"/>
			<point x="813" y="670"/>
			<point x="885" y="719"/>
			<point x="915" y="756" type="curve"/>
			<point x="901" y="825" type="line"/>
			<point x="862" y="786"/>
			<point x="811" y="741"/>
			<point x="713" y="741" type="curve" smooth="yes"/>
			<point x="582" y="741"/>
			<point x="508" y="831"/>
			<point x="377" y="831" type="curve" smooth="yes"/>
			<point x="272" y="831"/>
			<point x="207" y="782"/>
			<point x="152" y="735" type="curve"/>
		</contour>
	</outline>
</glyph>
<glyph name="exclamdown" format="2">
	<advance width="447"/>
	<unicode hex="00A1"/>
	<outline>
		<contour>
			<point x="66" y="-330" type="line"/>
			<point x="162" y="-330" type="line"/>
			<point x="285" y="762" type="line"/>
			<point x="225" y="762" type="line"/>
		</contour>
		<contour>
			<point x="217" y="901" type="line"/>
			<point x="330" y="901" type="line"/>
			<point x="350" y="1059" type="line"/>
			<point x="238" y="1059" type="line"/>
		</contour>
	</outline>
</glyph>
<glyph name="cent" format="1">
  <advance width="993"/>
  <unicode hex="00A2"/>
  <outline>
    <contour>
      <point x="549" y="1210" type="line"/>
      <point x="621" y="1210" type="line"/>
      <point x="621" y="1446" type="line"/>
      <point x="549" y="1446" type="line"/>
    </contour>
    <contour>
      <point x="549" y="0" type="line"/>
      <point x="621" y="0" type="line"/>
      <point x="621" y="236" type="line"/>
      <point x="549" y="236" type="line"/>
    </contour>
    <component base="c" xOffset="31" yOffset="222"/>
  </outline>
</glyph>
<glyph name="sterling" format="2">
	<advance width="1101"/>
	<unicode hex="00A3"/>
	<outline>
		<contour>
			<point x="-53" y="0" type="line"/>
			<point x="573" y="0" type="line" smooth="yes"/>
			<point x="737" y="0"/>
			<point x="866" y="72"/>
			<point x="944" y="219" type="curve"/>
			<point x="881" y="250" type="line"/>
			<point x="817" y="123"/>
			<point x="721" y="80"/>
			<point x="586" y="80" type="curve" smooth="yes"/>
			<point x="184" y="80" type="line"/>
			<point x="219" y="117"/>
			<point x="315" y="229"/>
			<point x="348" y="463" type="curve" smooth="yes"/>
			<point x="358" y="543"/>
			<point x="360" y="616"/>
			<point x="356" y="717" type="curve"/>
			<point x="678" y="717" type="line"/>
			<point x="690" y="793" type="line"/>
			<point x="358" y="793" type="line"/>
			<point x="338" y="897"/>
			<point x="336" y="1034"/>
			<point x="348" y="1133" type="curve" smooth="yes"/>
			<point x="375" y="1313"/>
			<point x="520" y="1415"/>
			<point x="680" y="1415" type="curve" smooth="yes"/>
			<point x="817" y="1415"/>
			<point x="885" y="1362"/>
			<point x="918" y="1270" type="curve"/>
			<point x="991" y="1309" type="line"/>
			<point x="969" y="1403"/>
			<point x="844" y="1501"/>
			<point x="688" y="1501" type="curve" smooth="yes"/>
			<point x="455" y="1501"/>
			<point x="231" y="1284"/>
			<point x="264" y="944" type="curve" smooth="yes"/>
			<point x="281" y="791" type="line"/>
			<point x="100" y="791" type="line"/>
			<point x="90" y="715" type="line"/>
			<point x="279" y="715" type="line"/>
			<point x="281" y="590"/>
			<point x="274" y="502"/>
			<point x="264" y="428" type="curve" smooth="yes"/>
			<point x="229" y="186"/>
			<point x="131" y="78"/>
			<point x="35" y="78" type="curve" smooth="yes"/>
			<point x="-43" y="78" type="line"/>
		</contour>
	</outline>
</glyph>
<glyph name="currency" format="2">
	<advance width="965"/>
	<unicode hex="00A4"/>
	<outline>
		<contour>
			<point x="162" y="365" type="line"/>
			<point x="268" y="467" type="line" smooth="yes"/>
			<point x="276" y="477"/>
			<point x="285" y="475"/>
			<point x="291" y="469" type="curve" smooth="yes"/>
			<point x="336" y="430"/>
			<point x="395" y="408"/>
			<point x="463" y="408" type="curve" smooth="yes"/>
			<point x="535" y="408"/>
			<point x="604" y="436"/>
			<point x="666" y="481" type="curve"/>
			<point x="756" y="367" type="line"/>
			<point x="817" y="426" type="line"/>
			<point x="733" y="526" type="line" smooth="yes"/>
			<point x="725" y="537"/>
			<point x="729" y="545"/>
			<point x="735" y="555" type="curve" smooth="yes"/>
			<point x="778" y="606"/>
			<point x="807" y="674"/>
			<point x="817" y="745" type="curve" smooth="yes"/>
			<point x="827" y="821"/>
			<point x="813" y="893"/>
			<point x="782" y="950" type="curve"/>
			<point x="905" y="1067" type="line"/>
			<point x="862" y="1126" type="line"/>
			<point x="748" y="1020" type="line" smooth="yes"/>
			<point x="739" y="1012"/>
			<point x="733" y="1012"/>
			<point x="723" y="1018" type="curve" smooth="yes"/>
			<point x="680" y="1059"/>
			<point x="621" y="1079"/>
			<point x="557" y="1079" type="curve" smooth="yes"/>
			<point x="487" y="1079"/>
			<point x="414" y="1055"/>
			<point x="356" y="1010" type="curve"/>
			<point x="272" y="1122" type="line"/>
			<point x="211" y="1065" type="line"/>
			<point x="287" y="965" type="line" smooth="yes"/>
			<point x="291" y="958"/>
			<point x="293" y="950"/>
			<point x="285" y="940" type="curve" smooth="yes"/>
			<point x="242" y="887"/>
			<point x="211" y="819"/>
			<point x="201" y="745" type="curve" smooth="yes"/>
			<point x="190" y="668"/>
			<point x="201" y="596"/>
			<point x="233" y="535" type="curve"/>
			<point x="119" y="428" type="line"/>
		</contour>
		<contour>
			<point x="479" y="496" type="curve" smooth="yes"/>
			<point x="346" y="496"/>
			<point x="266" y="612"/>
			<point x="285" y="745" type="curve" smooth="yes"/>
			<point x="303" y="877"/>
			<point x="418" y="995"/>
			<point x="549" y="995" type="curve" smooth="yes"/>
			<point x="680" y="995"/>
			<point x="760" y="877"/>
			<point x="741" y="745" type="curve" smooth="yes"/>
			<point x="723" y="612"/>
			<point x="608" y="496"/>
		</contour>
	</outline>
</glyph>
<glyph name="yen" format="2">
	<advance width="1067"/>
	<unicode hex="00A5"/>
	<outline>
		<contour>
			<point x="423" y="0" type="line"/>
			<point x="507" y="0" type="line"/>
			<point x="599" y="653" type="line"/>
			<point x="1170" y="1481" type="line"/>
			<point x="1086" y="1481" type="line"/>
			<point x="564" y="719" type="line"/>
			<point x="261" y="1481" type="line"/>
			<point x="165" y="1481" type="line"/>
			<point x="509" y="621" type="line"/>
		</contour>
		<contour>
			<point x="173" y="315" type="line"/>
			<point x="845" y="317" type="line"/>
			<point x="857" y="393" type="line"/>
			<point x="183" y="391" type="line"/>
		</contour>
		<contour>
			<point x="212" y="596" type="line"/>
			<point x="886" y="598" type="line"/>
			<point x="896" y="674" type="line"/>
			<point x="222" y="672" type="line"/>
		</contour>
	</outline>
</glyph>
<glyph name="brokenbar" format="1">
  <advance width="460"/>
  <unicode hex="00A6"/>
  <outline>
    <contour>
      <point x="250" y="864" type="line"/>
      <point x="318" y="864" type="line"/>
      <point x="430" y="1652" type="line"/>
      <point x="360" y="1652" type="line"/>
    </contour>
    <contour>
      <point x="84" y="-322" type="line"/>
      <point x="152" y="-322" type="line"/>
      <point x="262" y="466" type="line"/>
      <point x="194" y="466" type="line"/>
    </contour>
  </outline>
</glyph>
<glyph name="section" format="2">
	<advance width="898"/>
	<unicode hex="00A7"/>
	<outline>
		<contour>
			<point x="378" y="-135" type="curve" smooth="yes"/>
			<point x="574" y="-135"/>
			<point x="726" y="-23"/>
			<point x="749" y="127" type="curve" smooth="yes"/>
			<point x="763" y="240"/>
			<point x="706" y="319"/>
			<point x="601" y="389" type="curve"/>
			<point x="701" y="436"/>
			<point x="802" y="506"/>
			<point x="820" y="647" type="curve" smooth="yes"/>
			<point x="839" y="774"/>
			<point x="783" y="881"/>
			<point x="611" y="965" type="curve" smooth="yes"/>
			<point x="456" y="1038" type="line" smooth="yes"/>
			<point x="312" y="1106"/>
			<point x="290" y="1178"/>
			<point x="298" y="1247" type="curve" smooth="yes"/>
			<point x="314" y="1352"/>
			<point x="417" y="1421"/>
			<point x="579" y="1421" type="curve" smooth="yes"/>
			<point x="691" y="1421"/>
			<point x="769" y="1356"/>
			<point x="820" y="1266" type="curve"/>
			<point x="888" y="1309" type="line"/>
			<point x="837" y="1411"/>
			<point x="730" y="1501"/>
			<point x="581" y="1501" type="curve" smooth="yes"/>
			<point x="388" y="1501"/>
			<point x="241" y="1391"/>
			<point x="218" y="1243" type="curve" smooth="yes"/>
			<point x="206" y="1149"/>
			<point x="226" y="1061"/>
			<point x="384" y="969" type="curve"/>
			<point x="263" y="924"/>
			<point x="161" y="831"/>
			<point x="142" y="705" type="curve" smooth="yes"/>
			<point x="128" y="592"/>
			<point x="173" y="496"/>
			<point x="314" y="432" type="curve" smooth="yes"/>
			<point x="482" y="356" type="line" smooth="yes"/>
			<point x="642" y="283"/>
			<point x="679" y="209"/>
			<point x="667" y="127" type="curve" smooth="yes"/>
			<point x="650" y="10"/>
			<point x="536" y="-55"/>
			<point x="394" y="-55" type="curve" smooth="yes"/>
			<point x="253" y="-55"/>
			<point x="144" y="25"/>
			<point x="97" y="141" type="curve"/>
			<point x="32" y="100" type="line"/>
			<point x="81" y="-45"/>
			<point x="224" y="-135"/>
		</contour>
		<contour>
			<point x="499" y="442" type="curve"/>
			<point x="378" y="504" type="line" smooth="yes"/>
			<point x="239" y="571"/>
			<point x="212" y="625"/>
			<point x="224" y="711" type="curve" smooth="yes"/>
			<point x="239" y="813"/>
			<point x="359" y="913"/>
			<point x="480" y="924" type="curve"/>
			<point x="593" y="872" type="line" smooth="yes"/>
			<point x="732" y="807"/>
			<point x="751" y="737"/>
			<point x="736" y="635" type="curve" smooth="yes"/>
			<point x="722" y="526"/>
			<point x="607" y="434"/>
		</contour>
	</outline>
</glyph>
<glyph name="copyright" format="2">
	<advance width="1522"/>
	<unicode hex="00A9"/>
	<outline>
		<contour>
			<point x="685" y="-20" type="curve" smooth="yes"/>
			<point x="1068" y="-20"/>
			<point x="1431" y="317"/>
			<point x="1490" y="741" type="curve" smooth="yes"/>
			<point x="1549" y="1159"/>
			<point x="1283" y="1501"/>
			<point x="898" y="1501" type="curve" smooth="yes"/>
			<point x="511" y="1501"/>
			<point x="148" y="1159"/>
			<point x="91" y="741" type="curve" smooth="yes"/>
			<point x="32" y="317"/>
			<point x="296" y="-20"/>
		</contour>
		<contour>
			<point x="736" y="317" type="curve" smooth="yes"/>
			<point x="859" y="317"/>
			<point x="976" y="397"/>
			<point x="1064" y="524" type="curve"/>
			<point x="1011" y="563" type="line"/>
			<point x="949" y="463"/>
			<point x="853" y="395"/>
			<point x="751" y="395" type="curve" smooth="yes"/>
			<point x="595" y="395"/>
			<point x="501" y="539"/>
			<point x="531" y="750" type="curve" smooth="yes"/>
			<point x="560" y="956"/>
			<point x="693" y="1100"/>
			<point x="851" y="1100" type="curve" smooth="yes"/>
			<point x="937" y="1100"/>
			<point x="1005" y="1049"/>
			<point x="1050" y="944" type="curve"/>
			<point x="1123" y="987" type="line"/>
			<point x="1068" y="1096"/>
			<point x="988" y="1178"/>
			<point x="857" y="1178" type="curve" smooth="yes"/>
			<point x="652" y="1178"/>
			<point x="484" y="999"/>
			<point x="450" y="745" type="curve" smooth="yes"/>
			<point x="413" y="489"/>
			<point x="529" y="317"/>
		</contour>
		<contour>
			<point x="697" y="68" type="curve" smooth="yes"/>
			<point x="364" y="68"/>
			<point x="116" y="332"/>
			<point x="173" y="741" type="curve" smooth="yes"/>
			<point x="230" y="1145"/>
			<point x="552" y="1415"/>
			<point x="886" y="1415" type="curve" smooth="yes"/>
			<point x="1211" y="1415"/>
			<point x="1465" y="1145"/>
			<point x="1408" y="741" type="curve" smooth="yes"/>
			<point x="1351" y="332"/>
			<point x="1021" y="68"/>
		</contour>
	</outline>
</glyph>
<glyph name="ordfeminine" format="1">
  <advance width="792"/>
  <unicode hex="00AA"/>
  <outline>
    <contour>
      <point x="374" y="790" type="curve" smooth="yes"/>
      <point x="458" y="790"/>
      <point x="526" y="824"/>
      <point x="602" y="902" type="curve"/>
      <point x="604" y="802" type="line"/>
      <point x="672" y="802" type="line"/>
      <point x="674" y="886" type="line"/>
      <point x="676" y="936"/>
      <point x="678" y="976"/>
      <point x="684" y="1016" type="curve" smooth="yes"/>
      <point x="690" y="1054"/>
      <point x="700" y="1132"/>
      <point x="716" y="1236" type="curve" smooth="yes"/>
      <point x="734" y="1374"/>
      <point x="666" y="1460"/>
      <point x="524" y="1460" type="curve" smooth="yes"/>
      <point x="412" y="1460"/>
      <point x="316" y="1406"/>
      <point x="260" y="1314" type="curve"/>
      <point x="314" y="1288" type="line"/>
      <point x="376" y="1370"/>
      <point x="430" y="1394"/>
      <point x="508" y="1394" type="curve" smooth="yes"/>
      <point x="614" y="1394"/>
      <point x="666" y="1346"/>
      <point x="652" y="1244" type="curve" smooth="yes"/>
      <point x="646" y="1194" type="line"/>
      <point x="512" y="1180" type="line" smooth="yes"/>
      <point x="322" y="1160"/>
      <point x="216" y="1092"/>
      <point x="198" y="968" type="curve" smooth="yes"/>
      <point x="182" y="856"/>
      <point x="248" y="790"/>
    </contour>
    <contour>
      <point x="396" y="852" type="curve" smooth="yes"/>
      <point x="310" y="852"/>
      <point x="258" y="898"/>
      <point x="268" y="970" type="curve" smooth="yes"/>
      <point x="280" y="1054"/>
      <point x="360" y="1108"/>
      <point x="526" y="1122" type="curve" smooth="yes"/>
      <point x="636" y="1132" type="line"/>
      <point x="620" y="1016" type="line" smooth="yes"/>
      <point x="616" y="980"/>
      <point x="590" y="948"/>
      <point x="550" y="914" type="curve" smooth="yes"/>
      <point x="502" y="872"/>
      <point x="454" y="852"/>
    </contour>
  </outline>
</glyph>
<glyph name="guillemetleft" format="2">
	<advance width="784"/>
	<unicode hex="00AB"/>
	<outline>
		<contour>
			<point x="586" y="156" type="line"/>
			<point x="637" y="156" type="line"/>
			<point x="465" y="514" type="line"/>
			<point x="743" y="889" type="line"/>
			<point x="690" y="889" type="line"/>
			<point x="367" y="514" type="line"/>
		</contour>
		<contour>
			<point x="279" y="156" type="line"/>
			<point x="330" y="156" type="line"/>
			<point x="158" y="514" type="line"/>
			<point x="436" y="889" type="line"/>
			<point x="383" y="889" type="line"/>
			<point x="59" y="514" type="line"/>
		</contour>
	</outline>
</glyph>
<glyph name="logicalnot" format="2">
	<advance width="1005"/>
	<unicode hex="00AC"/>
	<outline>
		<contour>
			<point x="158" y="705" type="line"/>
			<point x="895" y="707" type="line"/>
			<point x="907" y="782" type="line"/>
			<point x="170" y="780" type="line"/>
		</contour>
		<contour>
			<point x="788" y="428" type="line"/>
			<point x="856" y="428" type="line"/>
			<point x="905" y="768" type="line"/>
			<point x="834" y="768" type="line"/>
		</contour>
	</outline>
</glyph>
<glyph name="registered" format="2">
	<advance width="999"/>
	<unicode hex="00AE"/>
	<outline>
		<contour>
			<point x="502" y="549" type="curve" smooth="yes"/>
			<point x="743" y="549"/>
			<point x="969" y="760"/>
			<point x="1006" y="1024" type="curve" smooth="yes"/>
			<point x="1042" y="1288"/>
			<point x="877" y="1501"/>
			<point x="637" y="1501" type="curve" smooth="yes"/>
			<point x="391" y="1501"/>
			<point x="168" y="1288"/>
			<point x="131" y="1024" type="curve" smooth="yes"/>
			<point x="92" y="760"/>
			<point x="258" y="549"/>
		</contour>
		<contour>
			<point x="512" y="618" type="curve" smooth="yes"/>
			<point x="291" y="618"/>
			<point x="162" y="776"/>
			<point x="197" y="1024" type="curve" smooth="yes"/>
			<point x="231" y="1270"/>
			<point x="406" y="1432"/>
			<point x="627" y="1432" type="curve" smooth="yes"/>
			<point x="844" y="1432"/>
			<point x="975" y="1270"/>
			<point x="940" y="1024" type="curve" smooth="yes"/>
			<point x="905" y="776"/>
			<point x="729" y="618"/>
		</contour>
		<contour>
			<point x="375" y="784" type="line"/>
			<point x="430" y="784" type="line"/>
			<point x="463" y="1012" type="line"/>
			<point x="582" y="1012" type="line"/>
			<point x="629" y="784" type="line"/>
			<point x="688" y="784" type="line"/>
			<point x="637" y="1016" type="line"/>
			<point x="684" y="1032"/>
			<point x="739" y="1063"/>
			<point x="750" y="1143" type="curve" smooth="yes"/>
			<point x="760" y="1219"/>
			<point x="717" y="1257"/>
			<point x="631" y="1257" type="curve" smooth="yes"/>
			<point x="442" y="1257" type="line"/>
		</contour>
		<contour>
			<point x="469" y="1069" type="line"/>
			<point x="489" y="1202" type="line"/>
			<point x="604" y="1202" type="line" smooth="yes"/>
			<point x="684" y="1202"/>
			<point x="696" y="1169"/>
			<point x="692" y="1135" type="curve" smooth="yes"/>
			<point x="684" y="1081"/>
			<point x="639" y="1069"/>
			<point x="590" y="1069" type="curve" smooth="yes"/>
		</contour>
	</outline>
</glyph>
<glyph name="degree" format="2">
	<advance width="877"/>
	<unicode hex="00B0"/>
	<outline>
		<contour>
			<point x="519" y="1114" type="curve" smooth="yes"/>
			<point x="679" y="1114"/>
			<point x="812" y="1239"/>
			<point x="837" y="1413" type="curve" smooth="yes"/>
			<point x="861" y="1589"/>
			<point x="763" y="1714"/>
			<point x="605" y="1714" type="curve" smooth="yes"/>
			<point x="443" y="1714"/>
			<point x="312" y="1589"/>
			<point x="288" y="1413" type="curve" smooth="yes"/>
			<point x="263" y="1239"/>
			<point x="359" y="1114"/>
		</contour>
		<contour>
			<point x="527" y="1186" type="curve" smooth="yes"/>
			<point x="407" y="1186"/>
			<point x="343" y="1278"/>
			<point x="359" y="1411" type="curve" smooth="yes"/>
			<point x="378" y="1544"/>
			<point x="470" y="1636"/>
			<point x="589" y="1636" type="curve" smooth="yes"/>
			<point x="714" y="1636"/>
			<point x="777" y="1544"/>
			<point x="757" y="1411" type="curve" smooth="yes"/>
			<point x="738" y="1278"/>
			<point x="650" y="1186"/>
		</contour>
	</outline>
</glyph>
<glyph name="plusminus" format="2">
	<advance width="1005"/>
	<unicode hex="00B1"/>
	<outline>
		<contour>
			<point x="464" y="483" type="line"/>
			<point x="531" y="483" type="line"/>
			<point x="644" y="1284" type="line"/>
			<point x="574" y="1284" type="line"/>
		</contour>
		<contour>
			<point x="83" y="166" type="line"/>
			<point x="820" y="168" type="line"/>
			<point x="830" y="244" type="line"/>
			<point x="93" y="242" type="line"/>
		</contour>
		<contour>
			<point x="179" y="844" type="line"/>
			<point x="916" y="846" type="line"/>
			<point x="927" y="922" type="line"/>
			<point x="189" y="920" type="line"/>
		</contour>
	</outline>
</glyph>
<glyph name="micro" format="1">
  <advance width="1091"/>
  <unicode hex="00B5"/>
  <outline>
    <contour>
      <point x="61" y="-330" type="line"/>
      <point x="135" y="-330" type="line"/>
      <point x="191" y="74" type="line"/>
      <point x="247" y="4"/>
      <point x="319" y="-20"/>
      <point x="411" y="-20" type="curve" smooth="yes"/>
      <point x="527" y="-20"/>
      <point x="621" y="30"/>
      <point x="793" y="164" type="curve"/>
      <point x="769" y="0" type="line"/>
      <point x="837" y="0" type="line"/>
      <point x="987" y="1060" type="line"/>
      <point x="913" y="1060" type="line"/>
      <point x="803" y="268" type="line"/>
      <point x="665" y="138"/>
      <point x="537" y="56"/>
      <point x="417" y="56" type="curve" smooth="yes"/>
      <point x="291" y="56"/>
      <point x="203" y="158"/>
      <point x="219" y="274" type="curve" smooth="yes"/>
      <point x="331" y="1060" type="line"/>
      <point x="257" y="1060" type="line"/>
    </contour>
  </outline>
</glyph>
<glyph name="paragraph" format="1">
  <advance width="1006"/>
  <unicode hex="00B6"/>
  <outline>
    <contour>
      <point x="420" y="-166" type="line"/>
      <point x="482" y="-166" type="line"/>
      <point x="700" y="1384" type="line"/>
      <point x="778" y="1384" type="line"/>
      <point x="560" y="-166" type="line"/>
      <point x="622" y="-166" type="line"/>
      <point x="840" y="1384" type="line"/>
      <point x="948" y="1384" type="line"/>
      <point x="956" y="1446" type="line"/>
      <point x="666" y="1446" type="line" smooth="yes"/>
      <point x="384" y="1446"/>
      <point x="218" y="1220"/>
      <point x="188" y="1002" type="curve" smooth="yes"/>
      <point x="158" y="796"/>
      <point x="266" y="592"/>
      <point x="526" y="592" type="curve"/>
    </contour>
  </outline>
</glyph>
<glyph name="periodcentered" format="2">
	<advance width="397"/>
	<unicode hex="00B7"/>
	<outline>
		<contour>
			<point x="142" y="668" type="line"/>
			<point x="292" y="668" type="line"/>
			<point x="314" y="825" type="line"/>
			<point x="165" y="825" type="line"/>
		</contour>
	</outline>
</glyph>
<glyph name="ordmasculine" format="1">
  <advance width="790"/>
  <unicode hex="00BA"/>
  <outline>
    <contour>
      <point x="432" y="794" type="curve" smooth="yes"/>
      <point x="612" y="794"/>
      <point x="728" y="932"/>
      <point x="756" y="1126" type="curve" smooth="yes"/>
      <point x="784" y="1328"/>
      <point x="698" y="1464"/>
      <point x="528" y="1464" type="curve" smooth="yes"/>
      <point x="358" y="1464"/>
      <point x="234" y="1328"/>
      <point x="206" y="1126" type="curve" smooth="yes"/>
      <point x="178" y="932"/>
      <point x="254" y="794"/>
    </contour>
    <contour>
      <point x="442" y="858" type="curve" smooth="yes"/>
      <point x="310" y="858"/>
      <point x="256" y="966"/>
      <point x="280" y="1132" type="curve" smooth="yes"/>
      <point x="302" y="1288"/>
      <point x="386" y="1396"/>
      <point x="518" y="1396" type="curve" smooth="yes"/>
      <point x="650" y="1396"/>
      <point x="704" y="1288"/>
      <point x="682" y="1132" type="curve" smooth="yes"/>
      <point x="660" y="966"/>
      <point x="574" y="858"/>
    </contour>
  </outline>
</glyph>
<glyph name="guillemetright" format="1">
  <advance width="763"/>
  <unicode hex="00BB"/>
  <outline>
    <contour>
      <point x="341" y="152" type="line"/>
      <point x="389" y="152" type="line"/>
      <point x="701" y="502" type="line"/>
      <point x="487" y="868" type="line"/>
      <point x="437" y="868" type="line"/>
      <point x="607" y="502" type="line"/>
    </contour>
    <contour>
      <point x="41" y="152" type="line"/>
      <point x="89" y="152" type="line"/>
      <point x="401" y="502" type="line"/>
      <point x="187" y="868" type="line"/>
      <point x="139" y="868" type="line"/>
      <point x="307" y="502" type="line"/>
    </contour>
  </outline>
</glyph>
<glyph name="questiondown" format="2">
	<advance width="945"/>
	<unicode hex="00BF"/>
	<outline>
		<contour>
			<point x="333" y="-350" type="curve" smooth="yes"/>
			<point x="511" y="-350"/>
			<point x="685" y="-250"/>
			<point x="785" y="-94" type="curve"/>
			<point x="712" y="-53" type="line"/>
			<point x="656" y="-168"/>
			<point x="486" y="-266"/>
			<point x="343" y="-266" type="curve" smooth="yes"/>
			<point x="157" y="-266"/>
			<point x="52" y="-158"/>
			<point x="75" y="14" type="curve" smooth="yes"/>
			<point x="116" y="326"/>
			<point x="499" y="338"/>
			<point x="554" y="760" type="curve"/>
			<point x="476" y="760" type="line"/>
			<point x="425" y="367"/>
			<point x="34" y="356"/>
			<point x="-11" y="14" type="curve" smooth="yes"/>
			<point x="-40" y="-207"/>
			<point x="93" y="-350"/>
		</contour>
		<contour>
			<point x="476" y="901" type="line"/>
			<point x="591" y="901" type="line"/>
			<point x="611" y="1059" type="line"/>
			<point x="497" y="1059" type="line"/>
		</contour>
	</outline>
</glyph>
<glyph name="AE" format="2">
	<advance width="1725"/>
	<unicode hex="00C6"/>
	<anchor x="1296" y="1481" name="top"/>
	<outline>
		<contour>
			<point x="-74" y="0" type="line"/>
			<point x="4" y="0" type="line"/>
			<point x="322" y="475" type="line"/>
			<point x="815" y="475" type="line"/>
			<point x="747" y="0" type="line"/>
			<point x="1511" y="0" type="line"/>
			<point x="1522" y="80" type="line"/>
			<point x="842" y="80" type="line"/>
			<point x="930" y="709" type="line"/>
			<point x="1454" y="709" type="line"/>
			<point x="1464" y="788" type="line"/>
			<point x="942" y="788" type="line"/>
			<point x="1028" y="1401" type="line"/>
			<point x="1681" y="1401" type="line"/>
			<point x="1692" y="1481" type="line"/>
			<point x="911" y="1481" type="line"/>
		</contour>
		<contour>
			<point x="369" y="555" type="line"/>
			<point x="944" y="1403" type="line"/>
			<point x="825" y="555" type="line"/>
		</contour>
	</outline>
</glyph>
<glyph name="Eth" format="1">
  <advance width="1303"/>
  <unicode hex="00D0"/>
  <outline>
    <contour>
      <point x="106" y="688" type="line"/>
      <point x="704" y="688" type="line"/>
      <point x="704" y="770" type="line"/>
      <point x="106" y="770" type="line"/>
    </contour>
    <component base="D" xOffset="32"/>
  </outline>
</glyph>
<glyph name="multiply" format="2">
	<advance width="970"/>
	<unicode hex="00D7"/>
	<outline>
		<contour>
			<point x="162" y="362" type="line"/>
			<point x="911" y="1073" type="line"/>
			<point x="868" y="1126" type="line"/>
			<point x="119" y="418" type="line"/>
		</contour>
		<contour>
			<point x="762" y="362" type="line"/>
			<point x="821" y="418" type="line"/>
			<point x="268" y="1122" type="line"/>
			<point x="209" y="1069" type="line"/>
		</contour>
	</outline>
</glyph>
<glyph name="Oslash" format="2">
	<advance width="1379"/>
	<unicode hex="00D8"/>
	<anchor x="824" y="1481" name="top"/>
	<outline>
		<contour>
			<point x="60" y="-27" type="line"/>
			<point x="239" y="162" type="line"/>
			<point x="314" y="41"/>
			<point x="441" y="-20"/>
			<point x="611" y="-20" type="curve" smooth="yes"/>
			<point x="955" y="-20"/>
			<point x="1203" y="244"/>
			<point x="1271" y="737" type="curve" smooth="yes"/>
			<point x="1299" y="942"/>
			<point x="1287" y="1108"/>
			<point x="1240" y="1233" type="curve"/>
			<point x="1435" y="1442" type="line"/>
			<point x="1375" y="1505" type="line"/>
			<point x="1199" y="1317" type="line"/>
			<point x="1119" y="1438"/>
			<point x="994" y="1501"/>
			<point x="826" y="1501" type="curve" smooth="yes"/>
			<point x="482" y="1501"/>
			<point x="234" y="1233"/>
			<point x="165" y="733" type="curve" smooth="yes"/>
			<point x="136" y="530"/>
			<point x="146" y="367"/>
			<point x="196" y="246" type="curve"/>
			<point x="3" y="39" type="line"/>
		</contour>
		<contour>
			<point x="628" y="66" type="curve" smooth="yes"/>
			<point x="474" y="66"/>
			<point x="368" y="121"/>
			<point x="304" y="233" type="curve"/>
			<point x="1168" y="1159" type="line"/>
			<point x="1199" y="1051"/>
			<point x="1201" y="911"/>
			<point x="1177" y="737" type="curve" smooth="yes"/>
			<point x="1113" y="283"/>
			<point x="931" y="66"/>
		</contour>
		<contour>
			<point x="267" y="322" type="line"/>
			<point x="237" y="428"/>
			<point x="234" y="565"/>
			<point x="257" y="737" type="curve" smooth="yes"/>
			<point x="323" y="1192"/>
			<point x="511" y="1415"/>
			<point x="814" y="1415" type="curve" smooth="yes"/>
			<point x="966" y="1415"/>
			<point x="1070" y="1360"/>
			<point x="1132" y="1247" type="curve"/>
		</contour>
	</outline>
</glyph>
<glyph name="Yacute" format="1">
  <advance width="1094"/>
  <unicode hex="00DD"/>
  <outline>
    <component base="Y"/>
    <component base="acutecomb" xOffset="555" yOffset="416"/>
    <contour>
      <point x="542" y="2" type="move" name="bottom"/>
    </contour>
  </outline>
</glyph>
<glyph name="Thorn" format="1">
  <advance width="1223"/>
  <unicode hex="00DE"/>
  <outline>
    <contour>
      <point x="129" y="0" type="line"/>
      <point x="211" y="0" type="line"/>
      <point x="261" y="354" type="line"/>
      <point x="603" y="354" type="line" smooth="yes"/>
      <point x="873" y="354"/>
      <point x="1087" y="466"/>
      <point x="1127" y="760" type="curve" smooth="yes"/>
      <point x="1163" y="1018"/>
      <point x="983" y="1130"/>
      <point x="701" y="1130" type="curve" smooth="yes"/>
      <point x="369" y="1130" type="line"/>
      <point x="415" y="1446" type="line"/>
      <point x="331" y="1446" type="line"/>
    </contour>
    <contour>
      <point x="271" y="432" type="line"/>
      <point x="359" y="1052" type="line"/>
      <point x="689" y="1052" type="line" smooth="yes"/>
      <point x="931" y="1052"/>
      <point x="1071" y="976"/>
      <point x="1041" y="760" type="curve" smooth="yes"/>
      <point x="1007" y="522"/>
      <point x="843" y="432"/>
      <point x="613" y="432" type="curve" smooth="yes"/>
    </contour>
  </outline>
</glyph>
<glyph name="germandbls" format="1">
  <advance width="1076"/>
  <unicode hex="00DF"/>
  <outline>
    <contour>
      <point x="525" y="-20" type="curve" smooth="yes"/>
      <point x="705" y="-20"/>
      <point x="877" y="94"/>
      <point x="907" y="308" type="curve" smooth="yes"/>
      <point x="943" y="558"/>
      <point x="741" y="618"/>
      <point x="633" y="658" type="curve" smooth="yes"/>
      <point x="531" y="694"/>
      <point x="499" y="710"/>
      <point x="507" y="776" type="curve" smooth="yes"/>
      <point x="517" y="844"/>
      <point x="559" y="866"/>
      <point x="677" y="930" type="curve" smooth="yes"/>
      <point x="781" y="986"/>
      <point x="893" y="1030"/>
      <point x="915" y="1188" type="curve" smooth="yes"/>
      <point x="931" y="1306"/>
      <point x="891" y="1446"/>
      <point x="679" y="1446" type="curve" smooth="yes"/>
      <point x="461" y="1446"/>
      <point x="289" y="1292"/>
      <point x="253" y="1034" type="curve"/>
      <point x="109" y="0" type="line"/>
      <point x="181" y="0" type="line"/>
      <point x="329" y="1044" type="line" smooth="yes"/>
      <point x="359" y="1268"/>
      <point x="493" y="1372"/>
      <point x="653" y="1372" type="curve" smooth="yes"/>
      <point x="789" y="1372"/>
      <point x="855" y="1304"/>
      <point x="841" y="1194" type="curve" smooth="yes"/>
      <point x="823" y="1074"/>
      <point x="731" y="1038"/>
      <point x="647" y="994" type="curve" smooth="yes"/>
      <point x="509" y="924"/>
      <point x="445" y="872"/>
      <point x="431" y="774" type="curve" smooth="yes"/>
      <point x="413" y="636"/>
      <point x="517" y="608"/>
      <point x="599" y="580" type="curve" smooth="yes"/>
      <point x="727" y="534"/>
      <point x="857" y="482"/>
      <point x="831" y="302" type="curve" smooth="yes"/>
      <point x="809" y="146"/>
      <point x="691" y="54"/>
      <point x="523" y="54" type="curve" smooth="yes"/>
      <point x="433" y="54"/>
      <point x="385" y="80"/>
      <point x="329" y="118" type="curve"/>
      <point x="279" y="52" type="line"/>
      <point x="337" y="6"/>
      <point x="443" y="-20"/>
    </contour>
  </outline>
</glyph>
<glyph name="ae" format="1">
  <advance width="1736"/>
  <unicode hex="00E6"/>
  <outline>
    <contour>
      <point x="358" y="-20" type="curve" smooth="yes"/>
      <point x="594" y="-20"/>
      <point x="718" y="120"/>
      <point x="794" y="210" type="curve" smooth="yes"/>
      <point x="800" y="216"/>
      <point x="802" y="216"/>
      <point x="804" y="210" type="curve" smooth="yes"/>
      <point x="844" y="126"/>
      <point x="918" y="-20"/>
      <point x="1138" y="-20" type="curve" smooth="yes"/>
      <point x="1316" y="-20"/>
      <point x="1478" y="78"/>
      <point x="1558" y="208" type="curve"/>
      <point x="1508" y="252" type="line"/>
      <point x="1442" y="166"/>
      <point x="1346" y="54"/>
      <point x="1152" y="54" type="curve" smooth="yes"/>
      <point x="952" y="54"/>
      <point x="826" y="286"/>
      <point x="854" y="494" type="curve"/>
      <point x="1628" y="496" type="line"/>
      <point x="1678" y="852"/>
      <point x="1540" y="1054"/>
      <point x="1294" y="1054" type="curve" smooth="yes"/>
      <point x="1126" y="1054"/>
      <point x="988" y="976"/>
      <point x="894" y="820" type="curve"/>
      <point x="878" y="976"/>
      <point x="788" y="1054"/>
      <point x="612" y="1054" type="curve" smooth="yes"/>
      <point x="456" y="1054"/>
      <point x="304" y="970"/>
      <point x="204" y="826" type="curve"/>
      <point x="254" y="784" type="line"/>
      <point x="358" y="910"/>
      <point x="468" y="978"/>
      <point x="586" y="978" type="curve" smooth="yes"/>
      <point x="766" y="978"/>
      <point x="848" y="874"/>
      <point x="824" y="708" type="curve" smooth="yes"/>
      <point x="812" y="620" type="line"/>
      <point x="576" y="600" type="line" smooth="yes"/>
      <point x="282" y="574"/>
      <point x="126" y="456"/>
      <point x="100" y="266" type="curve" smooth="yes"/>
      <point x="74" y="88"/>
      <point x="172" y="-20"/>
    </contour>
    <contour>
      <point x="386" y="56" type="curve" smooth="yes"/>
      <point x="234" y="48"/>
      <point x="160" y="138"/>
      <point x="178" y="270" type="curve" smooth="yes"/>
      <point x="198" y="420"/>
      <point x="330" y="508"/>
      <point x="602" y="530" type="curve" smooth="yes"/>
      <point x="802" y="546" type="line"/>
      <point x="774" y="346" type="line"/>
      <point x="752" y="194"/>
      <point x="580" y="66"/>
    </contour>
    <contour>
      <point x="1560" y="566" type="curve"/>
      <point x="870" y="568" type="line"/>
      <point x="906" y="816"/>
      <point x="1082" y="978"/>
      <point x="1278" y="978" type="curve" smooth="yes"/>
      <point x="1476" y="978"/>
      <point x="1592" y="794"/>
    </contour>
    <contour>
      <point x="934" y="1034" type="move" name="top"/>
    </contour>
  </outline>
</glyph>
<glyph name="eth" format="2">
	<advance width="1132"/>
	<unicode hex="00F0"/>
	<outline>
		<contour>
			<point x="485" y="-20" type="curve" smooth="yes"/>
			<point x="767" y="-20"/>
			<point x="966" y="201"/>
			<point x="1009" y="510" type="curve" smooth="yes"/>
			<point x="1056" y="842"/>
			<point x="995" y="1124"/>
			<point x="737" y="1335" type="curve"/>
			<point x="923" y="1440" type="line"/>
			<point x="903" y="1505" type="line"/>
			<point x="681" y="1382" type="line"/>
			<point x="618" y="1425"/>
			<point x="550" y="1466"/>
			<point x="468" y="1503" type="curve"/>
			<point x="395" y="1454" type="line"/>
			<point x="474" y="1417"/>
			<point x="544" y="1380"/>
			<point x="606" y="1337" type="curve"/>
			<point x="284" y="1159" type="line"/>
			<point x="311" y="1096" type="line"/>
			<point x="661" y="1294" type="line"/>
			<point x="804" y="1178"/>
			<point x="880" y="1044"/>
			<point x="917" y="901" type="curve"/>
			<point x="851" y="987"/>
			<point x="751" y="1038"/>
			<point x="620" y="1038" type="curve" smooth="yes"/>
			<point x="370" y="1038"/>
			<point x="159" y="815"/>
			<point x="116" y="504" type="curve" smooth="yes"/>
			<point x="73" y="197"/>
			<point x="218" y="-20"/>
		</contour>
		<contour>
			<point x="503" y="55" type="curve" smooth="yes"/>
			<point x="288" y="55"/>
			<point x="157" y="256"/>
			<point x="194" y="508" type="curve" smooth="yes"/>
			<point x="229" y="760"/>
			<point x="415" y="963"/>
			<point x="628" y="963" type="curve" smooth="yes"/>
			<point x="837" y="963"/>
			<point x="968" y="760"/>
			<point x="931" y="508" type="curve" smooth="yes"/>
			<point x="896" y="254"/>
			<point x="714" y="55"/>
		</contour>
	</outline>
</glyph>
<glyph name="divide" format="1">
  <advance width="980"/>
  <unicode hex="00F7"/>
  <outline>
    <contour>
      <point x="154" y="688" type="line"/>
      <point x="874" y="690" type="line"/>
      <point x="884" y="764" type="line"/>
      <point x="164" y="762" type="line"/>
    </contour>
    <contour>
      <point x="392" y="340" type="line"/>
      <point x="540" y="340" type="line"/>
      <point x="560" y="494" type="line"/>
      <point x="414" y="494" type="line"/>
    </contour>
    <contour>
      <point x="480" y="960" type="line"/>
      <point x="626" y="960" type="line"/>
      <point x="648" y="1114" type="line"/>
      <point x="500" y="1114" type="line"/>
    </contour>
  </outline>
</glyph>
<glyph name="oslash" format="1">
  <advance width="995"/>
  <unicode hex="00F8"/>
  <outline>
    <contour>
      <point x="24" y="-8" type="line"/>
      <point x="1030" y="982" type="line"/>
      <point x="976" y="1038" type="line"/>
      <point x="-30" y="48" type="line"/>
    </contour>
    <component base="o" xOffset="-70"/>
    <contour>
      <point x="502" y="1034" type="move" name="top"/>
    </contour>
  </outline>
</glyph>
<glyph name="thorn" format="1">
  <advance width="1092"/>
  <unicode hex="00FE"/>
  <outline>
    <contour>
      <point x="53" y="-322" type="line"/>
      <point x="125" y="-322" type="line"/>
      <point x="179" y="64" type="line" smooth="yes"/>
      <point x="183" y="90"/>
      <point x="189" y="96"/>
      <point x="205" y="78" type="curve" smooth="yes"/>
      <point x="251" y="32"/>
      <point x="333" y="-20"/>
      <point x="457" y="-20" type="curve" smooth="yes"/>
      <point x="719" y="-20"/>
      <point x="919" y="204"/>
      <point x="965" y="536" type="curve" smooth="yes"/>
      <point x="1013" y="882"/>
      <point x="857" y="1054"/>
      <point x="627" y="1054" type="curve" smooth="yes"/>
      <point x="427" y="1054"/>
      <point x="325" y="918"/>
      <point x="291" y="880" type="curve"/>
      <point x="369" y="1446" type="line"/>
      <point x="301" y="1446" type="line"/>
    </contour>
    <contour>
      <point x="465" y="54" type="curve" smooth="yes"/>
      <point x="355" y="54"/>
      <point x="273" y="112"/>
      <point x="199" y="202" type="curve"/>
      <point x="269" y="710" type="line" smooth="yes"/>
      <point x="287" y="826"/>
      <point x="429" y="978"/>
      <point x="607" y="978" type="curve" smooth="yes"/>
      <point x="787" y="978"/>
      <point x="931" y="838"/>
      <point x="889" y="528" type="curve" smooth="yes"/>
      <point x="847" y="232"/>
      <point x="671" y="54"/>
    </contour>
  </outline>
</glyph>
<glyph name="dcroat" format="1">
  <advance width="1161"/>
  <unicode hex="0111"/>
  <outline>
    <contour>
      <point x="568" y="1222" type="line"/>
      <point x="1130" y="1222" type="line"/>
      <point x="1130" y="1290" type="line"/>
      <point x="568" y="1290" type="line"/>
    </contour>
    <component base="d"/>
  </outline>
</glyph>
<glyph name="gcommaaccent" format="1">
  <advance width="1124"/>
  <unicode hex="0123"/>
  <outline>
    <contour>
      <point x="576" y="1232" type="line"/>
      <point x="688" y="1232" type="line"/>
      <point x="712" y="1394" type="line"/>
      <point x="666" y="1394" type="line"/>
      <point x="750" y="1532" type="line"/>
      <point x="688" y="1532" type="line"/>
      <point x="600" y="1402" type="line"/>
    </contour>
    <component base="g"/>
    <contour>
      <point x="558" y="1072" type="move" name="_top"/>
    </contour>
  </outline>
</glyph>
<glyph name="Hbar" format="1">
  <advance width="1291"/>
  <unicode hex="0126"/>
  <outline>
    <contour>
      <point x="106" y="1128" type="line"/>
      <point x="1356" y="1128" type="line"/>
      <point x="1368" y="1206" type="line"/>
      <point x="118" y="1206" type="line"/>
    </contour>
    <component base="H" xOffset="40"/>
  </outline>
</glyph>
<glyph name="hbar" format="1">
  <advance width="1159"/>
  <unicode hex="0127"/>
  <outline>
    <contour>
      <point x="141" y="1222" type="line"/>
      <point x="705" y="1222" type="line"/>
      <point x="713" y="1290" type="line"/>
      <point x="149" y="1290" type="line"/>
    </contour>
    <component base="h" xOffset="99"/>
  </outline>
</glyph>
<glyph name="idotless" format="1">
  <advance width="472"/>
  <unicode hex="0131"/>
  <outline>
    <contour>
      <point x="127" y="0" type="line"/>
      <point x="199" y="0" type="line"/>
      <point x="345" y="1034" type="line"/>
      <point x="273" y="1034" type="line"/>
    </contour>
    <contour>
      <point x="189" y="26" type="move" name="ogonek"/>
    </contour>
    <contour>
      <point x="307" y="1034" type="move" name="top"/>
    </contour>
  </outline>
</glyph>
<glyph name="kgreenlandic" format="1">
  <advance width="1042"/>
  <unicode hex="0138"/>
  <outline>
    <contour>
      <point x="117" y="0" type="line"/>
      <point x="189" y="0" type="line"/>
      <point x="233" y="316" type="line"/>
      <point x="523" y="592" type="line"/>
      <point x="777" y="0" type="line"/>
      <point x="869" y="0" type="line"/>
      <point x="587" y="658" type="line"/>
      <point x="979" y="1034" type="line"/>
      <point x="879" y="1034" type="line"/>
      <point x="249" y="428" type="line"/>
      <point x="335" y="1034" type="line"/>
      <point x="263" y="1034" type="line"/>
    </contour>
  </outline>
</glyph>
<glyph name="Lslash" format="1">
  <advance width="1075"/>
  <unicode hex="0141"/>
  <outline>
    <contour>
      <point x="87" y="634" type="line"/>
      <point x="661" y="784" type="line"/>
      <point x="661" y="856" type="line"/>
      <point x="87" y="710" type="line"/>
    </contour>
    <component base="L" xOffset="17"/>
  </outline>
</glyph>
<glyph name="lslash" format="1">
  <advance width="564"/>
  <unicode hex="0142"/>
  <outline>
    <contour>
      <point x="8" y="340" type="line"/>
      <point x="470" y="776" type="line"/>
      <point x="470" y="862" type="line"/>
      <point x="8" y="430" type="line"/>
    </contour>
    <component base="l" xOffset="16"/>
  </outline>
</glyph>
<glyph name="eng" format="1">
  <advance width="1080"/>
  <unicode hex="014B"/>
  <outline>
    <contour>
      <point x="577" y="-332" type="curve" smooth="yes"/>
      <point x="719" y="-332"/>
      <point x="793" y="-240"/>
      <point x="815" y="-80" type="curve" smooth="yes"/>
      <point x="935" y="766" type="line" smooth="yes"/>
      <point x="959" y="936"/>
      <point x="869" y="1054"/>
      <point x="685" y="1054" type="curve" smooth="yes"/>
      <point x="567" y="1054"/>
      <point x="479" y="1018"/>
      <point x="297" y="878" type="curve"/>
      <point x="319" y="1034" type="line"/>
      <point x="253" y="1034" type="line"/>
      <point x="107" y="0" type="line"/>
      <point x="179" y="0" type="line"/>
      <point x="291" y="796" type="line"/>
      <point x="423" y="908"/>
      <point x="551" y="980"/>
      <point x="665" y="980" type="curve" smooth="yes"/>
      <point x="835" y="980"/>
      <point x="879" y="876"/>
      <point x="857" y="724" type="curve" smooth="yes"/>
      <point x="743" y="-90" type="line" smooth="yes"/>
      <point x="725" y="-214"/>
      <point x="679" y="-262"/>
      <point x="583" y="-264" type="curve" smooth="yes"/>
      <point x="483" y="-266" type="line"/>
      <point x="475" y="-314" type="line" smooth="yes"/>
      <point x="473" y="-330"/>
      <point x="485" y="-332"/>
    </contour>
  </outline>
</glyph>
<glyph name="OE" format="1">
  <advance width="2052"/>
  <unicode hex="0152"/>
  <outline>
    <contour>
      <point x="596" y="-20" type="curve" smooth="yes"/>
      <point x="806" y="-20"/>
      <point x="978" y="80"/>
      <point x="1094" y="274" type="curve"/>
      <point x="1056" y="0" type="line"/>
      <point x="1838" y="0" type="line"/>
      <point x="1850" y="78" type="line"/>
      <point x="1148" y="78" type="line"/>
      <point x="1236" y="692" type="line"/>
      <point x="1764" y="692" type="line"/>
      <point x="1774" y="770" type="line"/>
      <point x="1246" y="770" type="line"/>
      <point x="1330" y="1368" type="line"/>
      <point x="2004" y="1368" type="line"/>
      <point x="2014" y="1446" type="line"/>
      <point x="1258" y="1446" type="line"/>
      <point x="1220" y="1170" type="line"/>
      <point x="1158" y="1366"/>
      <point x="1016" y="1466"/>
      <point x="806" y="1466" type="curve" smooth="yes"/>
      <point x="470" y="1466"/>
      <point x="228" y="1204"/>
      <point x="158" y="716" type="curve" smooth="yes"/>
      <point x="90" y="236"/>
      <point x="258" y="-20"/>
    </contour>
    <contour>
      <point x="612" y="62" type="curve" smooth="yes"/>
      <point x="314" y="62"/>
      <point x="184" y="278"/>
      <point x="246" y="720" type="curve" smooth="yes"/>
      <point x="308" y="1164"/>
      <point x="498" y="1384"/>
      <point x="796" y="1384" type="curve" smooth="yes"/>
      <point x="1090" y="1384"/>
      <point x="1212" y="1166"/>
      <point x="1148" y="720" type="curve" smooth="yes"/>
      <point x="1086" y="276"/>
      <point x="908" y="62"/>
    </contour>
  </outline>
</glyph>
<glyph name="oe" format="1">
  <advance width="1890"/>
  <unicode hex="0153"/>
  <outline>
    <contour>
      <point x="481" y="-20" type="curve" smooth="yes"/>
      <point x="653" y="-20"/>
      <point x="799" y="72"/>
      <point x="893" y="228" type="curve" smooth="yes"/>
      <point x="913" y="260"/>
      <point x="921" y="258"/>
      <point x="927" y="234" type="curve" smooth="yes"/>
      <point x="977" y="76"/>
      <point x="1101" y="-20"/>
      <point x="1273" y="-20" type="curve" smooth="yes"/>
      <point x="1445" y="-20"/>
      <point x="1583" y="56"/>
      <point x="1689" y="208" type="curve"/>
      <point x="1635" y="252" type="line"/>
      <point x="1549" y="124"/>
      <point x="1429" y="56"/>
      <point x="1285" y="56" type="curve" smooth="yes"/>
      <point x="1087" y="56"/>
      <point x="953" y="256"/>
      <point x="987" y="496" type="curve"/>
      <point x="1757" y="496" type="line"/>
      <point x="1805" y="844"/>
      <point x="1683" y="1054"/>
      <point x="1419" y="1054" type="curve" smooth="yes"/>
      <point x="1247" y="1054"/>
      <point x="1091" y="950"/>
      <point x="1003" y="784" type="curve" smooth="yes"/>
      <point x="993" y="766"/>
      <point x="985" y="766"/>
      <point x="979" y="784" type="curve" smooth="yes"/>
      <point x="933" y="952"/>
      <point x="811" y="1054"/>
      <point x="633" y="1054" type="curve" smooth="yes"/>
      <point x="371" y="1054"/>
      <point x="165" y="834"/>
      <point x="119" y="510" type="curve" smooth="yes"/>
      <point x="75" y="192"/>
      <point x="215" y="-20"/>
    </contour>
    <contour>
      <point x="495" y="56" type="curve" smooth="yes"/>
      <point x="277" y="56"/>
      <point x="157" y="240"/>
      <point x="195" y="514" type="curve" smooth="yes"/>
      <point x="235" y="790"/>
      <point x="405" y="976"/>
      <point x="623" y="976" type="curve" smooth="yes"/>
      <point x="837" y="976"/>
      <point x="955" y="790"/>
      <point x="917" y="514" type="curve" smooth="yes"/>
      <point x="877" y="238"/>
      <point x="713" y="56"/>
    </contour>
    <contour>
      <point x="1693" y="566" type="curve"/>
      <point x="1001" y="568" type="line"/>
      <point x="1033" y="804"/>
      <point x="1205" y="976"/>
      <point x="1413" y="976" type="curve" smooth="yes"/>
      <point x="1613" y="976"/>
      <point x="1725" y="796"/>
    </contour>
  </outline>
</glyph>
<glyph name="Tbar" format="1">
  <advance width="1110"/>
  <unicode hex="0166"/>
  <outline>
    <contour>
      <point x="214" y="702" type="line"/>
      <point x="928" y="702" type="line"/>
      <point x="928" y="784" type="line"/>
      <point x="214" y="784" type="line"/>
    </contour>
    <component base="T"/>
  </outline>
</glyph>
<glyph name="tbar" format="1">
  <advance width="675"/>
  <unicode hex="0167"/>
  <outline>
    <contour>
      <point x="144" y="546" type="line"/>
      <point x="590" y="546" type="line"/>
      <point x="590" y="614" type="line"/>
      <point x="144" y="614" type="line"/>
    </contour>
    <component base="t" xOffset="46"/>
  </outline>
</glyph>
<glyph name="Schwa" format="1">
  <advance width="1359"/>
  <unicode hex="018F"/>
  <outline>
    <contour>
      <point x="607" y="-20" type="curve" smooth="yes"/>
      <point x="1017" y="-20"/>
      <point x="1195" y="352"/>
      <point x="1247" y="714" type="curve" smooth="yes"/>
      <point x="1293" y="1036"/>
      <point x="1265" y="1466"/>
      <point x="815" y="1466" type="curve" smooth="yes"/>
      <point x="407" y="1466"/>
      <point x="275" y="1092"/>
      <point x="237" y="1018" type="curve" smooth="yes"/>
      <point x="233" y="1008"/>
      <point x="229" y="1002"/>
      <point x="237" y="1000" type="curve" smooth="yes"/>
      <point x="301" y="976" type="line" smooth="yes"/>
      <point x="309" y="974"/>
      <point x="311" y="972"/>
      <point x="313" y="976" type="curve" smooth="yes"/>
      <point x="349" y="1036"/>
      <point x="429" y="1382"/>
      <point x="803" y="1382" type="curve" smooth="yes"/>
      <point x="1193" y="1382"/>
      <point x="1193" y="982"/>
      <point x="1161" y="752" type="curve" smooth="yes"/>
      <point x="1159" y="742"/>
      <point x="1157" y="742"/>
      <point x="1147" y="742" type="curve" smooth="yes"/>
      <point x="187" y="742" type="line" smooth="yes"/>
      <point x="173" y="742"/>
      <point x="171" y="732"/>
      <point x="169" y="720" type="curve" smooth="yes"/>
      <point x="117" y="340"/>
      <point x="185" y="-20"/>
    </contour>
    <contour>
      <point x="619" y="64" type="curve" smooth="yes"/>
      <point x="265" y="64"/>
      <point x="215" y="374"/>
      <point x="253" y="648" type="curve" smooth="yes"/>
      <point x="255" y="656"/>
      <point x="259" y="660"/>
      <point x="269" y="660" type="curve" smooth="yes"/>
      <point x="1147" y="660" type="line"/>
      <point x="1101" y="372"/>
      <point x="969" y="64"/>
    </contour>
  </outline>
</glyph>
<glyph name="florin" format="2">
	<advance width="730"/>
	<unicode hex="0192"/>
	<outline>
		<contour>
			<point x="-347" y="-340" type="line"/>
			<point x="-243" y="-340" type="line" smooth="yes"/>
			<point x="-95" y="-340"/>
			<point x="-5" y="-246"/>
			<point x="44" y="-82" type="curve" smooth="yes"/>
			<point x="366" y="989" type="line"/>
			<point x="636" y="989" type="line"/>
			<point x="656" y="1059" type="line"/>
			<point x="386" y="1059" type="line"/>
			<point x="443" y="1243" type="line" smooth="yes"/>
			<point x="474" y="1346"/>
			<point x="542" y="1411"/>
			<point x="622" y="1411" type="curve" smooth="yes"/>
			<point x="771" y="1411" type="line"/>
			<point x="792" y="1481" type="line"/>
			<point x="650" y="1481" type="line" smooth="yes"/>
			<point x="513" y="1481"/>
			<point x="417" y="1399"/>
			<point x="366" y="1235" type="curve" smooth="yes"/>
			<point x="314" y="1059" type="line"/>
			<point x="157" y="1059" type="line"/>
			<point x="136" y="989" type="line"/>
			<point x="292" y="989" type="line"/>
			<point x="-34" y="-92" type="line" smooth="yes"/>
			<point x="-71" y="-219"/>
			<point x="-124" y="-268"/>
			<point x="-222" y="-270" type="curve" smooth="yes"/>
			<point x="-329" y="-272" type="line"/>
		</contour>
	</outline>
</glyph>
<glyph name="oinvertedbreve" format="1">
  <advance width="1059"/>
  <unicode hex="020F"/>
  <outline>
    <component base="o"/>
    <component base="breveinvertedcomb" xOffset="279"/>
    <contour>
      <point x="564" y="1034" type="move" name="top"/>
    </contour>
  </outline>
</glyph>
<glyph name="jdotless" format="1">
  <advance width="430"/>
  <unicode hex="0237"/>
  <outline>
    <contour>
      <point x="-71" y="-332" type="curve" smooth="yes"/>
      <point x="91" y="-332"/>
      <point x="141" y="-260"/>
      <point x="163" y="-100" type="curve" smooth="yes"/>
      <point x="323" y="1034" type="line"/>
      <point x="251" y="1034" type="line"/>
      <point x="93" y="-90" type="line" smooth="yes"/>
      <point x="75" y="-214"/>
      <point x="31" y="-258"/>
      <point x="-63" y="-260" type="curve" smooth="yes"/>
      <point x="-179" y="-262" type="line"/>
      <point x="-187" y="-314" type="line" smooth="yes"/>
      <point x="-189" y="-330"/>
      <point x="-179" y="-332"/>
    </contour>
    <contour>
      <point x="287" y="1034" type="move" name="top"/>
    </contour>
  </outline>
</glyph>
<glyph name="commaturnedmod" format="2">
	<advance width="362"/>
	<unicode hex="02BB"/>
	<outline>
		<contour>
			<point x="181" y="1094" type="line"/>
			<point x="337" y="1094" type="line"/>
			<point x="359" y="1253" type="line"/>
			<point x="271" y="1253" type="line"/>
			<point x="273" y="1262" type="line"/>
			<point x="282" y="1323"/>
			<point x="327" y="1395"/>
			<point x="370" y="1395" type="curve"/>
			<point x="380" y="1395" type="line"/>
			<point x="388" y="1450" type="line"/>
			<point x="327" y="1466"/>
			<point x="220" y="1370"/>
			<point x="202" y="1235" type="curve"/>
		</contour>
	</outline>
</glyph>
<glyph name="gravecomb" format="1">
  <advance width="412"/>
  <unicode hex="0300"/>
  <outline>
    <component base="acutecomb" xScale="-1" xOffset="592"/>
    <contour>
      <point x="436" y="1034" type="move" name="_top"/>
    </contour>
  </outline>
</glyph>
<glyph name="acutecomb" format="1">
  <advance width="330"/>
  <unicode hex="0301"/>
  <outline>
    <contour>
      <point x="328" y="1446" type="line"/>
      <point x="100" y="1155" type="line"/>
      <point x="171" y="1155" type="line"/>
      <point x="441" y="1446" type="line"/>
    </contour>
    <contour>
      <point x="124" y="1034" type="move" name="_top"/>
    </contour>
  </outline>
</glyph>
<glyph name="circumflexcomb" format="1">
  <advance width="498"/>
  <unicode hex="0302"/>
  <outline>
    <contour>
      <point x="92" y="1155" type="line"/>
      <point x="196" y="1155" type="line"/>
      <point x="356" y="1275" type="line"/>
      <point x="474" y="1155" type="line"/>
      <point x="586" y="1155" type="line"/>
      <point x="396" y="1345" type="line"/>
      <point x="338" y="1345" type="line"/>
    </contour>
    <contour>
      <point x="322" y="1034" type="move" name="_top"/>
    </contour>
  </outline>
</glyph>
<glyph name="tildecomb" format="2">
	<advance width="516"/>
	<unicode hex="0303"/>
	<anchor x="331" y="1059" name="_top"/>
	<outline>
		<contour>
			<point x="136" y="1229" type="line"/>
			<point x="167" y="1247"/>
			<point x="200" y="1278"/>
			<point x="261" y="1278" type="curve" smooth="yes"/>
			<point x="337" y="1278"/>
			<point x="368" y="1229"/>
			<point x="462" y="1229" type="curve" smooth="yes"/>
			<point x="536" y="1229"/>
			<point x="577" y="1257"/>
			<point x="605" y="1276" type="curve"/>
			<point x="587" y="1337" type="line"/>
			<point x="548" y="1311"/>
			<point x="521" y="1294"/>
			<point x="474" y="1294" type="curve" smooth="yes"/>
			<point x="392" y="1294"/>
			<point x="343" y="1346"/>
			<point x="263" y="1346" type="curve" smooth="yes"/>
			<point x="204" y="1346"/>
			<point x="165" y="1319"/>
			<point x="122" y="1286" type="curve"/>
		</contour>
	</outline>
</glyph>
<glyph name="macroncomb" format="1">
  <advance width="488"/>
  <unicode hex="0304"/>
  <outline>
    <contour>
      <point x="116" y="1211" type="line"/>
      <point x="568" y="1211" type="line"/>
      <point x="578" y="1285" type="line"/>
      <point x="126" y="1285" type="line"/>
    </contour>
    <contour>
      <point x="317" y="1034" type="move" name="_top"/>
    </contour>
  </outline>
</glyph>
<glyph name="brevecomb" format="1">
  <advance width="502"/>
  <unicode hex="0306"/>
  <outline>
    <contour>
      <point x="337" y="1155" type="curve" smooth="yes"/>
      <point x="483" y="1155"/>
      <point x="573" y="1265"/>
      <point x="601" y="1333" type="curve"/>
      <point x="511" y="1333" type="line"/>
      <point x="483" y="1295"/>
      <point x="433" y="1235"/>
      <point x="349" y="1235" type="curve" smooth="yes"/>
      <point x="253" y="1235"/>
      <point x="231" y="1305"/>
      <point x="219" y="1333" type="curve"/>
      <point x="131" y="1333" type="line"/>
      <point x="137" y="1253"/>
      <point x="195" y="1155"/>
    </contour>
    <contour>
      <point x="322" y="1038" type="move" name="_top"/>
    </contour>
  </outline>
</glyph>
<glyph name="dotaccentcomb" format="2">
	<advance width="109"/>
	<unicode hex="0307"/>
	<anchor x="127" y="1034" name="_top"/>
	<outline>
		<contour>
			<point x="114" y="1248" type="line"/>
			<point x="202" y="1248" type="line"/>
			<point x="218" y="1368" type="line"/>
			<point x="130" y="1368" type="line"/>
		</contour>
	</outline>
</glyph>
<glyph name="dieresiscomb" format="2">
	<advance width="341"/>
	<unicode hex="0308"/>
	<anchor x="238" y="1034" name="_top"/>
	<outline>
		<contour>
			<point x="346" y="1248" type="line"/>
			<point x="434" y="1248" type="line"/>
			<point x="450" y="1368" type="line"/>
			<point x="362" y="1368" type="line"/>
		</contour>
		<contour>
			<point x="114" y="1248" type="line"/>
			<point x="202" y="1248" type="line"/>
			<point x="218" y="1368" type="line"/>
			<point x="130" y="1368" type="line"/>
		</contour>
	</outline>
</glyph>
<glyph name="hookabovecomb" format="2">
	<advance width="1208"/>
	<unicode hex="0309"/>
	<guideline x="393" y="720" angle="302.6992"/>
	<guideline x="309" y="660" angle="302.6992"/>
	<guideline x="363" y="699" angle="302.6992"/>
	<guideline x="284" y="697" angle="32.7"/>
	<guideline x="307" y="663" angle="32.7"/>
	<guideline x="327" y="632" angle="32.7"/>
	<anchor x="693" y="1085" name="_top"/>
	<anchor x="630" y="1196" name="_topviet"/>
	<outline>
		<contour>
			<point x="757" y="1184" type="line"/>
			<point x="863" y="1249"/>
			<point x="919" y="1343"/>
			<point x="876" y="1434" type="curve" smooth="yes"/>
			<point x="840" y="1509"/>
			<point x="742" y="1522"/>
			<point x="634" y="1454" type="curve"/>
			<point x="663" y="1391" type="line"/>
			<point x="726" y="1432"/>
			<point x="792" y="1440"/>
			<point x="812" y="1391" type="curve" smooth="yes"/>
			<point x="831" y="1345"/>
			<point x="792" y="1286"/>
			<point x="728" y="1245" type="curve"/>
		</contour>
	</outline>
</glyph>
<glyph name="ringcomb" format="2">
	<advance width="402"/>
	<unicode hex="030A"/>
	<anchor x="276" y="1059" name="_top"/>
	<outline>
		<contour>
			<point x="295" y="1200" type="curve" smooth="yes"/>
			<point x="399" y="1200"/>
			<point x="494" y="1286"/>
			<point x="508" y="1399" type="curve" smooth="yes"/>
			<point x="524" y="1509"/>
			<point x="455" y="1595"/>
			<point x="352" y="1595" type="curve" smooth="yes"/>
			<point x="252" y="1595"/>
			<point x="156" y="1509"/>
			<point x="141" y="1403" type="curve" smooth="yes"/>
			<point x="125" y="1288"/>
			<point x="195" y="1200"/>
		</contour>
		<contour>
			<point x="305" y="1280" type="curve" smooth="yes"/>
			<point x="248" y="1280"/>
			<point x="205" y="1335"/>
			<point x="215" y="1399" type="curve" smooth="yes"/>
			<point x="225" y="1468"/>
			<point x="283" y="1516"/>
			<point x="338" y="1516" type="curve" smooth="yes"/>
			<point x="399" y="1516"/>
			<point x="438" y="1468"/>
			<point x="430" y="1399" type="curve" smooth="yes"/>
			<point x="420" y="1335"/>
			<point x="365" y="1280"/>
		</contour>
	</outline>
</glyph>
<glyph name="hungarumlautcomb" format="1">
  <advance width="460"/>
  <unicode hex="030B"/>
  <outline>
    <component base="dblgravecomb" xScale="-1" xOffset="722"/>
    <contour>
      <point x="226" y="1034" type="move" name="_top"/>
    </contour>
  </outline>
</glyph>
<glyph name="caroncomb" format="2">
	<advance width="512"/>
	<unicode hex="030C"/>
	<anchor x="331" y="1059" name="_top"/>
	<outline>
		<contour>
			<point x="333" y="1286" type="line"/>
			<point x="394" y="1286" type="line"/>
			<point x="642" y="1481" type="line"/>
			<point x="529" y="1481" type="line"/>
			<point x="372" y="1358" type="line"/>
			<point x="243" y="1481" type="line"/>
			<point x="134" y="1481" type="line"/>
		</contour>
	</outline>
</glyph>
<glyph name="dblgravecomb" format="1">
  <advance width="532"/>
  <unicode hex="030F"/>
  <outline>
    <contour>
      <point x="473" y="1446" type="line"/>
      <point x="363" y="1446" type="line"/>
      <point x="544" y="1155" type="line"/>
      <point x="612" y="1155" type="line"/>
    </contour>
    <contour>
      <point x="250" y="1446" type="line"/>
      <point x="141" y="1446" type="line"/>
      <point x="354" y="1155" type="line"/>
      <point x="422" y="1155" type="line"/>
    </contour>
    <contour>
      <point x="487" y="1034" type="move" name="_top"/>
    </contour>
  </outline>
</glyph>
<glyph name="breveinvertedcomb" format="1">
  <advance width="480"/>
  <unicode hex="0311"/>
  <outline>
    <component base="brevecomb" yScale="-1" yxScale="-0.2811" xOffset="341" yOffset="2512"/>
    <contour>
      <point x="328" y="1034" type="move" name="_top"/>
    </contour>
  </outline>
</glyph>
<glyph name="horncomb" format="1">
  <advance width="236"/>
  <unicode hex="031B"/>
  <outline>
    <contour>
      <point x="65" y="980" type="line"/>
      <point x="221" y="962"/>
      <point x="311" y="1048"/>
      <point x="337" y="1238" type="curve"/>
      <point x="243" y="1238" type="line"/>
      <point x="219" y="1092"/>
      <point x="179" y="1060"/>
      <point x="77" y="1062" type="curve"/>
    </contour>
    <contour>
      <point x="65" y="980" type="move" name="_horn"/>
    </contour>
    <contour>
      <point x="193" y="1060" type="move" name="_topright"/>
    </contour>
    <contour>
      <point x="193" y="1060" type="move" name="topright"/>
    </contour>
  </outline>
</glyph>
<glyph name="commaaccentcomb" format="1">
  <advance width="143"/>
  <unicode hex="0326"/>
  <outline>
    <component base="comma" xOffset="-164" yOffset="-320"/>
    <contour>
      <point x="-1" y="0" type="move" name="_bottom"/>
    </contour>
  </outline>
</glyph>
<glyph name="cedillacomb" format="2">
	<advance width="358"/>
	<unicode hex="0327"/>
	<guideline x="331" y="-121" angle="0"/>
	<anchor x="131" y="0" name="_bottom"/>
	<outline>
		<contour>
			<point x="27" y="-408" type="curve" smooth="yes"/>
			<point x="125" y="-408"/>
			<point x="215" y="-358"/>
			<point x="229" y="-258" type="curve" smooth="yes"/>
			<point x="238" y="-195"/>
			<point x="215" y="-127"/>
			<point x="102" y="-117" type="curve"/>
			<point x="168" y="10" type="line"/>
			<point x="104" y="10" type="line"/>
			<point x="14" y="-158" type="line" smooth="yes"/>
			<point x="10" y="-162"/>
			<point x="10" y="-166"/>
			<point x="20" y="-166" type="curve" smooth="yes"/>
			<point x="115" y="-170"/>
			<point x="158" y="-199"/>
			<point x="147" y="-262" type="curve" smooth="yes"/>
			<point x="139" y="-317"/>
			<point x="104" y="-348"/>
			<point x="27" y="-348" type="curve" smooth="yes"/>
			<point x="-31" y="-348"/>
			<point x="-57" y="-330"/>
			<point x="-80" y="-303" type="curve"/>
			<point x="-109" y="-360" type="line"/>
			<point x="-74" y="-391"/>
			<point x="-31" y="-408"/>
		</contour>
	</outline>
</glyph>
<glyph name="ogonekcomb" format="2">
	<advance width="357"/>
	<unicode hex="0328"/>
	<anchor x="203" y="25" name="_ogonek"/>
	<outline>
		<contour>
			<point x="64" y="-336" type="curve" smooth="yes"/>
			<point x="129" y="-336"/>
			<point x="190" y="-317"/>
			<point x="221" y="-301" type="curve"/>
			<point x="231" y="-238" type="line"/>
			<point x="213" y="-248"/>
			<point x="156" y="-268"/>
			<point x="92" y="-268" type="curve" smooth="yes"/>
			<point x="16" y="-268"/>
			<point x="-8" y="-240"/>
			<point x="-2" y="-184" type="curve" smooth="yes"/>
			<point x="10" y="-106"/>
			<point x="80" y="-57"/>
			<point x="211" y="4" type="curve"/>
			<point x="150" y="23" type="line"/>
			<point x="-10" y="-27"/>
			<point x="-70" y="-92"/>
			<point x="-82" y="-180" type="curve" smooth="yes"/>
			<point x="-94" y="-270"/>
			<point x="-53" y="-336"/>
		</contour>
	</outline>
</glyph>
<glyph name="pi" format="2">
	<advance width="1326"/>
	<unicode hex="03C0"/>
	<outline>
		<contour>
			<point x="244" y="0" type="curve"/>
			<point x="311" y="0" type="line"/>
			<point x="377" y="195"/>
			<point x="432" y="582"/>
			<point x="432" y="989" type="curve"/>
			<point x="979" y="989" type="line"/>
			<point x="981" y="0" type="line"/>
			<point x="1061" y="0" type="line"/>
			<point x="1061" y="989" type="line"/>
			<point x="1329" y="989" type="line"/>
			<point x="1329" y="1059" type="line"/>
			<point x="135" y="1059" type="line"/>
			<point x="135" y="989" type="line"/>
			<point x="342" y="989" type="line" smooth="yes"/>
			<point x="352" y="989"/>
			<point x="358" y="981"/>
			<point x="358" y="969" type="curve" smooth="yes"/>
			<point x="358" y="580"/>
			<point x="303" y="225"/>
		</contour>
	</outline>
</glyph>
<glyph name="endash" format="1">
  <advance width="981"/>
  <unicode hex="2013"/>
  <outline>
    <contour>
      <point x="124" y="466" type="line"/>
      <point x="844" y="468" type="line"/>
      <point x="854" y="546" type="line"/>
      <point x="134" y="544" type="line"/>
    </contour>
  </outline>
</glyph>
<glyph name="quoteright" format="1">
  <advance width="386"/>
  <unicode hex="2019"/>
  <outline>
    <contour>
      <point x="195" y="1064" type="line"/>
      <point x="259" y="1064" type="line"/>
      <point x="397" y="1310" type="line"/>
      <point x="397" y="1446" type="line"/>
      <point x="231" y="1446" type="line"/>
      <point x="231" y="1288" type="line"/>
      <point x="301" y="1288" type="line"/>
    </contour>
  </outline>
</glyph>
<glyph name="quotesinglbase" format="1">
  <advance width="395"/>
  <unicode hex="201A"/>
  <outline>
    <contour>
      <point x="-24" y="-222" type="line"/>
      <point x="36" y="-222" type="line"/>
      <point x="196" y="24" type="line"/>
      <point x="214" y="160" type="line"/>
      <point x="60" y="160" type="line"/>
      <point x="38" y="0" type="line"/>
      <point x="104" y="0" type="line"/>
    </contour>
  </outline>
</glyph>
<glyph name="quotedblleft" format="1">
  <advance width="701"/>
  <unicode hex="201C"/>
  <outline>
    <contour>
      <point x="232" y="1064" type="line"/>
      <point x="398" y="1064" type="line"/>
      <point x="398" y="1224" type="line"/>
      <point x="328" y="1224" type="line"/>
      <point x="436" y="1446" type="line"/>
      <point x="372" y="1446" type="line"/>
      <point x="232" y="1202" type="line"/>
    </contour>
    <contour>
      <point x="518" y="1064" type="line"/>
      <point x="684" y="1064" type="line"/>
      <point x="684" y="1224" type="line"/>
      <point x="612" y="1224" type="line"/>
      <point x="720" y="1446" type="line"/>
      <point x="656" y="1446" type="line"/>
      <point x="518" y="1202" type="line"/>
    </contour>
  </outline>
</glyph>
<glyph name="quotedblright" format="1">
  <advance width="670"/>
  <unicode hex="201D"/>
  <outline>
    <contour>
      <point x="479" y="1064" type="line"/>
      <point x="543" y="1064" type="line"/>
      <point x="681" y="1310" type="line"/>
      <point x="681" y="1446" type="line"/>
      <point x="517" y="1446" type="line"/>
      <point x="517" y="1288" type="line"/>
      <point x="587" y="1288" type="line"/>
    </contour>
    <contour>
      <point x="195" y="1064" type="line"/>
      <point x="259" y="1064" type="line"/>
      <point x="397" y="1310" type="line"/>
      <point x="397" y="1446" type="line"/>
      <point x="231" y="1446" type="line"/>
      <point x="231" y="1288" type="line"/>
      <point x="301" y="1288" type="line"/>
    </contour>
  </outline>
</glyph>
<glyph name="dagger" format="2">
	<advance width="744"/>
	<unicode hex="2020"/>
	<outline>
		<contour>
			<point x="204" y="-330" type="line"/>
			<point x="302" y="-330" type="line"/>
			<point x="447" y="848" type="line"/>
			<point x="785" y="836" type="line"/>
			<point x="800" y="930" type="line"/>
			<point x="464" y="920" type="line"/>
			<point x="556" y="1481" type="line"/>
			<point x="458" y="1481" type="line"/>
			<point x="390" y="920" type="line"/>
			<point x="56" y="930" type="line"/>
			<point x="44" y="836" type="line"/>
			<point x="386" y="848" type="line"/>
		</contour>
	</outline>
</glyph>
<glyph name="daggerdbl" format="2">
	<advance width="745"/>
	<unicode hex="2021"/>
	<outline>
		<contour>
			<point x="205" y="-330" type="line"/>
			<point x="303" y="-330" type="line"/>
			<point x="369" y="231" type="line"/>
			<point x="700" y="221" type="line"/>
			<point x="715" y="317" type="line"/>
			<point x="373" y="303" type="line"/>
			<point x="449" y="848" type="line"/>
			<point x="786" y="836" type="line"/>
			<point x="801" y="930" type="line"/>
			<point x="465" y="920" type="line"/>
			<point x="557" y="1481" type="line"/>
			<point x="459" y="1481" type="line"/>
			<point x="391" y="920" type="line"/>
			<point x="57" y="930" type="line"/>
			<point x="45" y="836" type="line"/>
			<point x="387" y="848" type="line"/>
			<point x="311" y="303" type="line"/>
			<point x="-29" y="317" type="line"/>
			<point x="-43" y="221" type="line"/>
			<point x="295" y="231" type="line"/>
		</contour>
	</outline>
</glyph>
<glyph name="bullet" format="2">
	<advance width="576"/>
	<unicode hex="2022"/>
	<outline>
		<contour>
			<point x="319" y="608" type="curve" smooth="yes"/>
			<point x="399" y="608"/>
			<point x="463" y="674"/>
			<point x="463" y="754" type="curve" smooth="yes"/>
			<point x="463" y="834"/>
			<point x="399" y="897"/>
			<point x="319" y="897" type="curve" smooth="yes"/>
			<point x="240" y="897"/>
			<point x="176" y="834"/>
			<point x="176" y="754" type="curve" smooth="yes"/>
			<point x="176" y="674"/>
			<point x="240" y="608"/>
		</contour>
	</outline>
</glyph>
<glyph name="perthousand" format="2">
	<advance width="2386"/>
	<unicode hex="2030"/>
	<outline>
		<contour>
			<point x="1158" y="-20" type="curve" smooth="yes"/>
			<point x="1332" y="-20"/>
			<point x="1476" y="125"/>
			<point x="1517" y="408" type="curve" smooth="yes"/>
			<point x="1555" y="684"/>
			<point x="1453" y="831"/>
			<point x="1277" y="831" type="curve" smooth="yes"/>
			<point x="1103" y="831"/>
			<point x="955" y="684"/>
			<point x="916" y="408" type="curve" smooth="yes"/>
			<point x="878" y="125"/>
			<point x="982" y="-20"/>
		</contour>
		<contour>
			<point x="441" y="653" type="curve" smooth="yes"/>
			<point x="615" y="653"/>
			<point x="759" y="799"/>
			<point x="798" y="1079" type="curve" smooth="yes"/>
			<point x="837" y="1358"/>
			<point x="734" y="1503"/>
			<point x="560" y="1503" type="curve" smooth="yes"/>
			<point x="384" y="1503"/>
			<point x="239" y="1358"/>
			<point x="200" y="1079" type="curve" smooth="yes"/>
			<point x="159" y="799"/>
			<point x="265" y="653"/>
		</contour>
		<contour>
			<point x="447" y="713" type="curve" smooth="yes"/>
			<point x="304" y="713"/>
			<point x="232" y="868"/>
			<point x="263" y="1079" type="curve" smooth="yes"/>
			<point x="292" y="1288"/>
			<point x="407" y="1444"/>
			<point x="550" y="1444" type="curve" smooth="yes"/>
			<point x="693" y="1444"/>
			<point x="763" y="1290"/>
			<point x="734" y="1079" type="curve" smooth="yes"/>
			<point x="703" y="866"/>
			<point x="591" y="713"/>
		</contour>
		<contour>
			<point x="1164" y="41" type="curve" smooth="yes"/>
			<point x="1027" y="41"/>
			<point x="951" y="201"/>
			<point x="980" y="406" type="curve" smooth="yes"/>
			<point x="1009" y="608"/>
			<point x="1129" y="770"/>
			<point x="1267" y="770" type="curve" smooth="yes"/>
			<point x="1404" y="770"/>
			<point x="1480" y="610"/>
			<point x="1451" y="406" type="curve" smooth="yes"/>
			<point x="1422" y="201"/>
			<point x="1302" y="41"/>
		</contour>
		<contour>
			<point x="1887" y="-20" type="curve" smooth="yes"/>
			<point x="2061" y="-20"/>
			<point x="2205" y="125"/>
			<point x="2246" y="408" type="curve" smooth="yes"/>
			<point x="2285" y="684"/>
			<point x="2182" y="831"/>
			<point x="2006" y="831" type="curve" smooth="yes"/>
			<point x="1832" y="831"/>
			<point x="1684" y="684"/>
			<point x="1646" y="408" type="curve" smooth="yes"/>
			<point x="1607" y="125"/>
			<point x="1711" y="-20"/>
		</contour>
		<contour>
			<point x="1893" y="41" type="curve" smooth="yes"/>
			<point x="1756" y="41"/>
			<point x="1680" y="201"/>
			<point x="1709" y="406" type="curve" smooth="yes"/>
			<point x="1738" y="608"/>
			<point x="1859" y="770"/>
			<point x="1996" y="770" type="curve" smooth="yes"/>
			<point x="2133" y="770"/>
			<point x="2209" y="610"/>
			<point x="2180" y="406" type="curve" smooth="yes"/>
			<point x="2151" y="201"/>
			<point x="2031" y="41"/>
		</contour>
		<component base="fraction" xScale="0.92" yxScale="0.1405" xOffset="553"/>
	</outline>
</glyph>
<glyph name="guilsinglleft" format="2">
	<advance width="477"/>
	<unicode hex="2039"/>
	<outline>
		<contour>
			<point x="279" y="156" type="line"/>
			<point x="330" y="156" type="line"/>
			<point x="158" y="514" type="line"/>
			<point x="436" y="889" type="line"/>
			<point x="385" y="889" type="line"/>
			<point x="59" y="514" type="line"/>
		</contour>
	</outline>
</glyph>
<glyph name="guilsinglright" format="2">
	<advance width="478"/>
	<unicode hex="203A"/>
	<outline>
		<contour>
			<point x="45" y="156" type="line"/>
			<point x="92" y="156" type="line"/>
			<point x="414" y="514" type="line"/>
			<point x="195" y="889" type="line"/>
			<point x="143" y="889" type="line"/>
			<point x="317" y="514" type="line"/>
		</contour>
	</outline>
</glyph>
<glyph name="fraction" format="1">
  <advance width="407"/>
  <unicode hex="2044"/>
  <outline>
    <contour>
      <point x="-354" y="-8" type="line"/>
      <point x="-282" y="-8" type="line"/>
      <point x="820" y="1462" type="line"/>
      <point x="752" y="1462" type="line"/>
    </contour>
  </outline>
</glyph>
<glyph name="colonsign" format="1">
  <advance width="1073"/>
  <unicode hex="20A1"/>
  <outline>
    <contour>
      <point x="471" y="0" type="line"/>
      <point x="553" y="0" type="line"/>
      <point x="619" y="240" type="line"/>
      <point x="541" y="260" type="line"/>
    </contour>
    <contour>
      <point x="281" y="0" type="line"/>
      <point x="365" y="0" type="line"/>
      <point x="429" y="240" type="line"/>
      <point x="351" y="260" type="line"/>
    </contour>
    <contour>
      <point x="597" y="1188" type="line"/>
      <point x="667" y="1446" type="line"/>
      <point x="583" y="1446" type="line"/>
      <point x="519" y="1208" type="line"/>
    </contour>
    <contour>
      <point x="785" y="1188" type="line"/>
      <point x="855" y="1446" type="line"/>
      <point x="773" y="1446" type="line"/>
      <point x="707" y="1208" type="line"/>
    </contour>
    <component base="c" xOffset="29" yOffset="206"/>
  </outline>
</glyph>
<glyph name="franc" format="2">
	<advance width="1126"/>
	<unicode hex="20A3"/>
	<outline>
		<contour>
			<point x="120" y="0" type="line"/>
			<point x="204" y="0" type="line"/>
			<point x="300" y="682" type="line"/>
			<point x="970" y="682" type="line"/>
			<point x="982" y="762" type="line"/>
			<point x="310" y="762" type="line"/>
			<point x="400" y="1401" type="line"/>
			<point x="1125" y="1401" type="line"/>
			<point x="1138" y="1481" type="line"/>
			<point x="327" y="1481" type="line"/>
		</contour>
		<contour>
			<point x="-22" y="301" type="line"/>
			<point x="581" y="303" type="line"/>
			<point x="591" y="379" type="line"/>
			<point x="-11" y="377" type="line"/>
		</contour>
	</outline>
</glyph>
<glyph name="lira" format="2">
	<advance width="1101"/>
	<unicode hex="20A4"/>
	<outline>
		<contour>
			<point x="-53" y="0" type="line"/>
			<point x="573" y="0" type="line" smooth="yes"/>
			<point x="737" y="0"/>
			<point x="866" y="72"/>
			<point x="944" y="219" type="curve"/>
			<point x="881" y="250" type="line"/>
			<point x="817" y="123"/>
			<point x="721" y="80"/>
			<point x="586" y="80" type="curve"/>
			<point x="184" y="80" type="line"/>
			<point x="289" y="190"/>
			<point x="344" y="381"/>
			<point x="350" y="526" type="curve"/>
			<point x="647" y="526" type="line"/>
			<point x="659" y="602" type="line"/>
			<point x="350" y="600" type="line"/>
			<point x="346" y="825" type="line"/>
			<point x="690" y="827" type="line"/>
			<point x="700" y="903" type="line"/>
			<point x="362" y="901" type="line" smooth="yes"/>
			<point x="352" y="901"/>
			<point x="346" y="907"/>
			<point x="346" y="918" type="curve" smooth="yes"/>
			<point x="344" y="1012"/>
			<point x="344" y="1092"/>
			<point x="348" y="1133" type="curve" smooth="yes"/>
			<point x="375" y="1313"/>
			<point x="520" y="1415"/>
			<point x="680" y="1415" type="curve" smooth="yes"/>
			<point x="817" y="1415"/>
			<point x="885" y="1362"/>
			<point x="918" y="1270" type="curve"/>
			<point x="991" y="1309" type="line"/>
			<point x="969" y="1403"/>
			<point x="844" y="1501"/>
			<point x="688" y="1501" type="curve" smooth="yes"/>
			<point x="455" y="1501"/>
			<point x="258" y="1364"/>
			<point x="264" y="944" type="curve" smooth="yes"/>
			<point x="266" y="901" type="line"/>
			<point x="104" y="901" type="line"/>
			<point x="94" y="825" type="line"/>
			<point x="268" y="825" type="line"/>
			<point x="272" y="600" type="line"/>
			<point x="63" y="600" type="line"/>
			<point x="53" y="524" type="line"/>
			<point x="258" y="524" type="line" smooth="yes"/>
			<point x="268" y="524"/>
			<point x="270" y="522"/>
			<point x="272" y="514" type="curve" smooth="yes"/>
			<point x="268" y="477"/>
			<point x="266" y="451"/>
			<point x="264" y="428" type="curve" smooth="yes"/>
			<point x="229" y="186"/>
			<point x="131" y="76"/>
			<point x="35" y="78" type="curve" smooth="yes"/>
			<point x="-43" y="78" type="line"/>
		</contour>
	</outline>
</glyph>
<glyph name="naira" format="2">
	<advance width="1300"/>
	<unicode hex="20A6"/>
	<outline>
		<contour>
			<point x="60" y="887" type="line"/>
			<point x="1340" y="889" type="line"/>
			<point x="1351" y="965" type="line"/>
			<point x="71" y="963" type="line"/>
		</contour>
		<contour>
			<point x="15" y="567" type="line"/>
			<point x="1295" y="569" type="line"/>
			<point x="1306" y="645" type="line"/>
			<point x="26" y="643" type="line"/>
		</contour>
		<component base="N" xScale="0.92" yxScale="0.1405" xOffset="-75"/>
	</outline>
</glyph>
<glyph name="won" format="2">
	<advance width="1821"/>
	<unicode hex="20A9"/>
	<outline>
		<contour>
			<point x="82" y="887" type="line"/>
			<point x="1851" y="889" type="line"/>
			<point x="1862" y="965" type="line"/>
			<point x="92" y="963" type="line"/>
		</contour>
		<contour>
			<point x="37" y="567" type="line"/>
			<point x="1806" y="569" type="line"/>
			<point x="1817" y="645" type="line"/>
			<point x="47" y="643" type="line"/>
		</contour>
		<component base="W" xScale="0.92" yxScale="0.1405" xOffset="-78"/>
	</outline>
</glyph>
<glyph name="dong" format="2">
	<advance width="916"/>
	<unicode hex="20AB"/>
	<outline>
		<contour>
			<point x="400" y="252" type="curve" smooth="yes"/>
			<point x="568" y="252"/>
			<point x="652" y="365"/>
			<point x="685" y="399" type="curve"/>
			<point x="667" y="268" type="line"/>
			<point x="732" y="268" type="line"/>
			<point x="902" y="1479" type="line"/>
			<point x="833" y="1479" type="line"/>
			<point x="773" y="1065" type="line" smooth="yes"/>
			<point x="771" y="1044"/>
			<point x="769" y="1038"/>
			<point x="753" y="1055" type="curve" smooth="yes"/>
			<point x="712" y="1098"/>
			<point x="663" y="1151"/>
			<point x="544" y="1151" type="curve" smooth="yes"/>
			<point x="325" y="1151"/>
			<point x="153" y="963"/>
			<point x="114" y="684" type="curve" smooth="yes"/>
			<point x="73" y="397"/>
			<point x="210" y="252"/>
		</contour>
		<contour>
			<point x="54" y="0" type="line"/>
			<point x="703" y="0" type="line"/>
			<point x="714" y="70" type="line"/>
			<point x="62" y="70" type="line"/>
		</contour>
		<contour>
			<point x="425" y="330" type="curve" smooth="yes"/>
			<point x="280" y="330"/>
			<point x="165" y="442"/>
			<point x="200" y="690" type="curve" smooth="yes"/>
			<point x="232" y="930"/>
			<point x="372" y="1069"/>
			<point x="538" y="1069" type="curve" smooth="yes"/>
			<point x="628" y="1069"/>
			<point x="695" y="1028"/>
			<point x="753" y="954" type="curve"/>
			<point x="695" y="545" type="line" smooth="yes"/>
			<point x="683" y="451"/>
			<point x="566" y="330"/>
		</contour>
		<contour>
			<point x="515" y="1268" type="line"/>
			<point x="988" y="1268" type="line"/>
			<point x="998" y="1337" type="line"/>
			<point x="525" y="1337" type="line"/>
		</contour>
	</outline>
</glyph>
<glyph name="euro" format="2">
	<advance width="1033"/>
	<unicode hex="20AC"/>
	<guideline x="498" y="474" angle="90"/>
	<outline>
		<contour>
			<point x="601" y="-20" type="curve" smooth="yes"/>
			<point x="706" y="-20"/>
			<point x="808" y="14"/>
			<point x="898" y="72" type="curve"/>
			<point x="863" y="141" type="line"/>
			<point x="792" y="94"/>
			<point x="708" y="66"/>
			<point x="620" y="66" type="curve" smooth="yes"/>
			<point x="302" y="66"/>
			<point x="179" y="305"/>
			<point x="239" y="735" type="curve" smooth="yes"/>
			<point x="302" y="1180"/>
			<point x="495" y="1415"/>
			<point x="794" y="1415" type="curve" smooth="yes"/>
			<point x="884" y="1415"/>
			<point x="953" y="1378"/>
			<point x="1011" y="1323" type="curve"/>
			<point x="1074" y="1401" type="line"/>
			<point x="998" y="1464"/>
			<point x="902" y="1501"/>
			<point x="802" y="1501" type="curve" smooth="yes"/>
			<point x="458" y="1501"/>
			<point x="216" y="1219"/>
			<point x="148" y="735" type="curve" smooth="yes"/>
			<point x="81" y="254"/>
			<point x="245" y="-20"/>
		</contour>
		<contour>
			<point x="-38" y="547" type="line"/>
			<point x="656" y="549" type="line"/>
			<point x="667" y="625" type="line"/>
			<point x="-28" y="623" type="line"/>
		</contour>
		<contour>
			<point x="7" y="866" type="line"/>
			<point x="701" y="868" type="line"/>
			<point x="712" y="944" type="line"/>
			<point x="17" y="942" type="line"/>
		</contour>
	</outline>
</glyph>
<glyph name="rupeeIndian" format="2">
	<advance width="995"/>
	<unicode hex="20B9"/>
	<outline>
		<contour>
			<point x="607" y="0" type="line"/>
			<point x="699" y="0" type="line"/>
			<point x="556" y="735" type="line" smooth="yes"/>
			<point x="554" y="741"/>
			<point x="558" y="748"/>
			<point x="564" y="750" type="curve" smooth="yes"/>
			<point x="697" y="791"/>
			<point x="863" y="885"/>
			<point x="898" y="1128" type="curve" smooth="yes"/>
			<point x="931" y="1362"/>
			<point x="792" y="1481"/>
			<point x="527" y="1481" type="curve" smooth="yes"/>
			<point x="134" y="1481" type="line"/>
			<point x="124" y="1401" type="line"/>
			<point x="515" y="1401" type="line" smooth="yes"/>
			<point x="738" y="1401"/>
			<point x="833" y="1309"/>
			<point x="806" y="1126" type="curve" smooth="yes"/>
			<point x="773" y="895"/>
			<point x="632" y="809"/>
			<point x="368" y="809" type="curve" smooth="yes"/>
			<point x="40" y="809" type="line"/>
			<point x="30" y="729" type="line"/>
			<point x="462" y="729" type="line"/>
		</contour>
		<contour>
			<point x="83" y="1085" type="line"/>
			<point x="1041" y="1087" type="line"/>
			<point x="1054" y="1163" type="line"/>
			<point x="93" y="1161" type="line"/>
		</contour>
		<contour>
			<point x="128" y="1405" type="line"/>
			<point x="1086" y="1407" type="line"/>
			<point x="1097" y="1483" type="line"/>
			<point x="138" y="1481" type="line"/>
		</contour>
	</outline>
</glyph>
<glyph name="liraTurkish" format="2">
	<advance width="906"/>
	<unicode hex="20BA"/>
	<outline>
		<contour>
			<point x="118" y="0" type="line"/>
			<point x="321" y="0" type="line" smooth="yes"/>
			<point x="544" y="0"/>
			<point x="751" y="145"/>
			<point x="873" y="434" type="curve"/>
			<point x="798" y="457" type="line"/>
			<point x="667" y="184"/>
			<point x="521" y="80"/>
			<point x="329" y="80" type="curve" smooth="yes"/>
			<point x="214" y="80" type="line"/>
			<point x="411" y="1481" type="line"/>
			<point x="327" y="1481" type="line"/>
		</contour>
		<contour>
			<point x="40" y="410" type="line"/>
			<point x="601" y="618" type="line"/>
			<point x="583" y="705" type="line"/>
			<point x="26" y="496" type="line"/>
		</contour>
		<contour>
			<point x="87" y="743" type="line"/>
			<point x="648" y="952" type="line"/>
			<point x="630" y="1038" type="line"/>
			<point x="73" y="829" type="line"/>
		</contour>
	</outline>
</glyph>
<glyph name="literSign" format="1">
  <advance width="826"/>
  <unicode hex="2113"/>
  <outline>
    <contour>
      <point x="368" y="-20" type="curve" smooth="yes"/>
      <point x="630" y="238" type="line"/>
      <point x="616" y="222"/>
      <point x="618" y="222"/>
      <point x="618" y="222" type="curve" smooth="yes"/>
      <point x="556" y="136"/>
      <point x="500" y="58"/>
      <point x="374" y="58" type="curve" smooth="yes"/>
      <point x="252" y="58"/>
      <point x="208" y="134"/>
      <point x="246" y="402" type="curve"/>
      <point x="250" y="436" type="line"/>
      <point x="464" y="630"/>
      <point x="736" y="882"/>
      <point x="778" y="1172" type="curve" smooth="yes"/>
      <point x="802" y="1344"/>
      <point x="738" y="1466"/>
      <point x="596" y="1466" type="curve" smooth="yes"/>
      <point x="450" y="1466"/>
      <point x="306" y="1334"/>
      <point x="264" y="1038" type="curve" smooth="yes"/>
      <point x="186" y="480" type="line"/>
      <point x="30" y="372" type="line"/>
      <point x="60" y="306" type="line"/>
      <point x="160" y="376" type="line" smooth="yes"/>
      <point x="166" y="380"/>
      <point x="170" y="382"/>
      <point x="170" y="372" type="curve" smooth="yes"/>
      <point x="174" y="328"/>
      <point x="86" y="-20"/>
    </contour>
    <contour>
      <point x="266" y="538" type="curve"/>
      <point x="326" y="974" type="line" smooth="yes"/>
      <point x="370" y="1282"/>
      <point x="456" y="1384"/>
      <point x="582" y="1384" type="curve" smooth="yes"/>
      <point x="682" y="1384"/>
      <point x="728" y="1318"/>
      <point x="710" y="1194" type="curve" smooth="yes"/>
      <point x="670" y="910"/>
      <point x="412" y="660"/>
    </contour>
  </outline>
</glyph>
<glyph name="published" format="2">
	<advance width="1522"/>
	<unicode hex="2117"/>
	<outline>
		<contour>
			<point x="685" y="-20" type="curve" smooth="yes"/>
			<point x="1068" y="-20"/>
			<point x="1431" y="317"/>
			<point x="1490" y="741" type="curve" smooth="yes"/>
			<point x="1549" y="1159"/>
			<point x="1283" y="1501"/>
			<point x="898" y="1501" type="curve" smooth="yes"/>
			<point x="511" y="1501"/>
			<point x="148" y="1159"/>
			<point x="91" y="741" type="curve" smooth="yes"/>
			<point x="32" y="317"/>
			<point x="296" y="-20"/>
		</contour>
		<contour>
			<point x="697" y="68" type="curve" smooth="yes"/>
			<point x="364" y="68"/>
			<point x="116" y="332"/>
			<point x="173" y="741" type="curve" smooth="yes"/>
			<point x="230" y="1145"/>
			<point x="552" y="1415"/>
			<point x="886" y="1415" type="curve" smooth="yes"/>
			<point x="1211" y="1415"/>
			<point x="1465" y="1145"/>
			<point x="1408" y="741" type="curve" smooth="yes"/>
			<point x="1351" y="332"/>
			<point x="1021" y="68"/>
		</contour>
		<contour>
			<point x="503" y="336" type="line"/>
			<point x="577" y="336" type="line"/>
			<point x="624" y="678" type="line"/>
			<point x="812" y="678" type="line" smooth="yes"/>
			<point x="962" y="678"/>
			<point x="1082" y="760"/>
			<point x="1107" y="930" type="curve" smooth="yes"/>
			<point x="1127" y="1073"/>
			<point x="1025" y="1135"/>
			<point x="871" y="1135" type="curve" smooth="yes"/>
			<point x="615" y="1135" type="line"/>
		</contour>
		<contour>
			<point x="634" y="750" type="line"/>
			<point x="679" y="1063" type="line"/>
			<point x="859" y="1063" type="line" smooth="yes"/>
			<point x="968" y="1063"/>
			<point x="1046" y="1030"/>
			<point x="1029" y="909" type="curve" smooth="yes"/>
			<point x="1013" y="799"/>
			<point x="923" y="750"/>
			<point x="822" y="750" type="curve" smooth="yes"/>
		</contour>
	</outline>
</glyph>
<glyph name="Ohm" format="2">
	<advance width="1465"/>
	<unicode hex="2126"/>
	<outline>
		<contour>
			<point x="139" y="0" type="line"/>
			<point x="580" y="0" type="line"/>
			<point x="594" y="92" type="line"/>
			<point x="334" y="324"/>
			<point x="236" y="524"/>
			<point x="279" y="825" type="curve" smooth="yes"/>
			<point x="322" y="1133"/>
			<point x="520" y="1452"/>
			<point x="862" y="1452" type="curve"/>
			<point x="1202" y="1452"/>
			<point x="1313" y="1133"/>
			<point x="1270" y="825" type="curve" smooth="yes"/>
			<point x="1212" y="418"/>
			<point x="905" y="201"/>
			<point x="748" y="92" type="curve"/>
			<point x="735" y="0" type="line"/>
			<point x="1176" y="0" type="line"/>
			<point x="1188" y="86" type="line"/>
			<point x="854" y="86" type="line"/>
			<point x="1190" y="352"/>
			<point x="1319" y="520"/>
			<point x="1364" y="838" type="curve" smooth="yes"/>
			<point x="1415" y="1202"/>
			<point x="1255" y="1540"/>
			<point x="874" y="1540" type="curve"/>
			<point x="494" y="1540"/>
			<point x="240" y="1204"/>
			<point x="186" y="836" type="curve" smooth="yes"/>
			<point x="119" y="350"/>
			<point x="444" y="125"/>
			<point x="481" y="86" type="curve"/>
			<point x="152" y="86" type="line"/>
		</contour>
	</outline>
</glyph>
<glyph name="partialdiff" format="2">
	<advance width="1103"/>
	<unicode hex="2202"/>
	<outline>
		<contour>
			<point x="458" y="-20" type="curve" smooth="yes"/>
			<point x="742" y="-20"/>
			<point x="951" y="256"/>
			<point x="1021" y="752" type="curve" smooth="yes"/>
			<point x="1091" y="1251"/>
			<point x="953" y="1501"/>
			<point x="660" y="1501" type="curve" smooth="yes"/>
			<point x="536" y="1501"/>
			<point x="384" y="1452"/>
			<point x="304" y="1368" type="curve"/>
			<point x="327" y="1309" type="line"/>
			<point x="411" y="1364"/>
			<point x="488" y="1413"/>
			<point x="615" y="1413" type="curve" smooth="yes"/>
			<point x="871" y="1413"/>
			<point x="992" y="1210"/>
			<point x="929" y="770" type="curve" smooth="yes"/>
			<point x="929" y="762"/>
			<point x="925" y="758"/>
			<point x="906" y="768" type="curve" smooth="yes"/>
			<point x="816" y="834"/>
			<point x="755" y="870"/>
			<point x="617" y="870" type="curve" smooth="yes"/>
			<point x="331" y="870"/>
			<point x="138" y="707"/>
			<point x="101" y="444" type="curve" smooth="yes"/>
			<point x="64" y="180"/>
			<point x="212" y="-20"/>
		</contour>
		<contour>
			<point x="452" y="66" type="line" smooth="yes"/>
			<point x="280" y="66"/>
			<point x="161" y="236"/>
			<point x="189" y="438" type="curve" smooth="yes"/>
			<point x="218" y="639"/>
			<point x="380" y="784"/>
			<point x="579" y="784" type="curve" smooth="yes"/>
			<point x="710" y="784"/>
			<point x="849" y="721"/>
			<point x="902" y="641" type="curve" smooth="yes"/>
			<point x="912" y="627"/>
			<point x="912" y="612"/>
			<point x="904" y="569" type="curve" smooth="yes"/>
			<point x="835" y="266"/>
			<point x="646" y="66"/>
			<point x="454" y="66" type="curve" smooth="yes"/>
		</contour>
	</outline>
</glyph>
<glyph name="emptyset" format="2">
	<advance width="1078"/>
	<unicode hex="2205"/>
	<outline>
		<contour>
			<point x="155" y="322" type="line"/>
			<point x="1023" y="1083" type="line"/>
			<point x="984" y="1139" type="line"/>
			<point x="112" y="377" type="line"/>
		</contour>
		<contour>
			<point x="515" y="348" type="curve" smooth="yes"/>
			<point x="714" y="348"/>
			<point x="904" y="526"/>
			<point x="935" y="745" type="curve" smooth="yes"/>
			<point x="966" y="963"/>
			<point x="826" y="1141"/>
			<point x="626" y="1141" type="curve" smooth="yes"/>
			<point x="425" y="1141"/>
			<point x="237" y="963"/>
			<point x="206" y="745" type="curve" smooth="yes"/>
			<point x="175" y="526"/>
			<point x="312" y="348"/>
		</contour>
		<contour>
			<point x="525" y="420" type="curve" smooth="yes"/>
			<point x="359" y="420"/>
			<point x="247" y="565"/>
			<point x="273" y="745" type="curve" smooth="yes"/>
			<point x="298" y="922"/>
			<point x="450" y="1069"/>
			<point x="615" y="1069" type="curve" smooth="yes"/>
			<point x="781" y="1069"/>
			<point x="894" y="922"/>
			<point x="869" y="745" type="curve" smooth="yes"/>
			<point x="845" y="565"/>
			<point x="691" y="420"/>
		</contour>
	</outline>
</glyph>
<glyph name="increment" format="1">
  <advance width="1176"/>
  <unicode hex="2206"/>
  <outline>
    <contour>
      <point x="-33" y="0" type="line"/>
      <point x="1063" y="0" type="line"/>
      <point x="717" y="1446" type="line"/>
    </contour>
    <contour>
      <point x="91" y="84" type="line"/>
      <point x="683" y="1210" type="line"/>
      <point x="959" y="84" type="line"/>
    </contour>
  </outline>
</glyph>
<glyph name="product" format="2">
	<advance width="1162"/>
	<unicode hex="220F"/>
	<outline>
		<contour>
			<point x="161" y="0" type="line"/>
			<point x="245" y="0" type="line"/>
			<point x="441" y="1399" type="line"/>
			<point x="966" y="1399" type="line"/>
			<point x="769" y="0" type="line"/>
			<point x="853" y="0" type="line"/>
			<point x="1050" y="1399" type="line"/>
			<point x="1254" y="1399" type="line"/>
			<point x="1265" y="1481" type="line"/>
			<point x="165" y="1481" type="line"/>
			<point x="155" y="1399" type="line"/>
			<point x="357" y="1399" type="line"/>
		</contour>
	</outline>
</glyph>
<glyph name="summation" format="2">
	<advance width="922"/>
	<unicode hex="2211"/>
	<outline>
		<contour>
			<point x="-23" y="0" type="line"/>
			<point x="807" y="0" type="line"/>
			<point x="817" y="80" type="line"/>
			<point x="94" y="80" type="line"/>
			<point x="594" y="743" type="line"/>
			<point x="307" y="1401" type="line"/>
			<point x="969" y="1401" type="line"/>
			<point x="981" y="1481" type="line"/>
			<point x="213" y="1481" type="line"/>
			<point x="203" y="1409" type="line"/>
			<point x="498" y="741" type="line"/>
			<point x="-14" y="68" type="line"/>
		</contour>
	</outline>
</glyph>
<glyph name="minus" format="1">
  <advance width="980"/>
  <unicode hex="2212"/>
  <outline>
    <contour>
      <point x="154" y="688" type="line"/>
      <point x="874" y="690" type="line"/>
      <point x="884" y="764" type="line"/>
      <point x="164" y="762" type="line"/>
    </contour>
  </outline>
</glyph>
<glyph name="bulletoperator" format="2">
	<advance width="562"/>
	<unicode hex="2219"/>
	<outline>
		<contour>
			<point x="299" y="657" type="curve" smooth="yes"/>
			<point x="348" y="657"/>
			<point x="393" y="700"/>
			<point x="399" y="754" type="curve" smooth="yes"/>
			<point x="408" y="807"/>
			<point x="375" y="848"/>
			<point x="328" y="848" type="curve" smooth="yes"/>
			<point x="279" y="848"/>
			<point x="233" y="807"/>
			<point x="227" y="754" type="curve" smooth="yes"/>
			<point x="219" y="700"/>
			<point x="252" y="657"/>
		</contour>
	</outline>
</glyph>
<glyph name="radical" format="1">
  <advance width="1069"/>
  <unicode hex="221A"/>
  <outline>
    <contour>
      <point x="398" y="-322" type="line"/>
      <point x="488" y="-322" type="line"/>
      <point x="1238" y="1650" type="line"/>
      <point x="1166" y="1650" type="line"/>
      <point x="454" y="-210" type="line"/>
      <point x="278" y="748" type="line"/>
      <point x="50" y="658" type="line"/>
      <point x="64" y="586" type="line"/>
      <point x="206" y="644" type="line"/>
    </contour>
  </outline>
</glyph>
<glyph name="infinity" format="2">
	<advance width="1285"/>
	<unicode hex="221E"/>
	<outline>
		<contour>
			<point x="325" y="248" type="curve" smooth="yes"/>
			<point x="476" y="248"/>
			<point x="579" y="381"/>
			<point x="611" y="414" type="curve" smooth="yes"/>
			<point x="628" y="432"/>
			<point x="632" y="428"/>
			<point x="640" y="414" type="curve" smooth="yes"/>
			<point x="699" y="324"/>
			<point x="751" y="248"/>
			<point x="871" y="248" type="curve" smooth="yes"/>
			<point x="1019" y="248"/>
			<point x="1158" y="360"/>
			<point x="1187" y="557" type="curve" smooth="yes"/>
			<point x="1187" y="559" type="line" smooth="yes"/>
			<point x="1211" y="739"/>
			<point x="1117" y="850"/>
			<point x="972" y="850" type="curve" smooth="yes"/>
			<point x="843" y="850"/>
			<point x="759" y="764"/>
			<point x="695" y="698" type="curve" smooth="yes"/>
			<point x="677" y="680"/>
			<point x="673" y="680"/>
			<point x="656" y="698" type="curve" smooth="yes"/>
			<point x="597" y="784"/>
			<point x="550" y="850"/>
			<point x="429" y="850" type="curve" smooth="yes"/>
			<point x="265" y="850"/>
			<point x="130" y="731"/>
			<point x="105" y="549" type="curve" smooth="yes"/>
			<point x="79" y="367"/>
			<point x="183" y="248"/>
		</contour>
		<contour>
			<point x="339" y="338" type="line" smooth="yes"/>
			<point x="239" y="338"/>
			<point x="167" y="426"/>
			<point x="185" y="555" type="curve" smooth="yes"/>
			<point x="204" y="680"/>
			<point x="290" y="766"/>
			<point x="398" y="766" type="curve" smooth="yes"/>
			<point x="493" y="766"/>
			<point x="550" y="698"/>
			<point x="601" y="590" type="curve" smooth="yes"/>
			<point x="624" y="545"/>
			<point x="624" y="537"/>
			<point x="591" y="498" type="curve" smooth="yes"/>
			<point x="538" y="430"/>
			<point x="439" y="338"/>
			<point x="345" y="338" type="curve" smooth="yes"/>
		</contour>
		<contour>
			<point x="904" y="338" type="curve" smooth="yes"/>
			<point x="857" y="338"/>
			<point x="769" y="358"/>
			<point x="691" y="512" type="curve" smooth="yes"/>
			<point x="677" y="532"/>
			<point x="673" y="563"/>
			<point x="703" y="598" type="curve" smooth="yes"/>
			<point x="775" y="676"/>
			<point x="859" y="766"/>
			<point x="957" y="766" type="curve" smooth="yes"/>
			<point x="959" y="766" type="line" smooth="yes"/>
			<point x="1066" y="766"/>
			<point x="1121" y="666"/>
			<point x="1105" y="553" type="curve" smooth="yes"/>
			<point x="1091" y="449"/>
			<point x="1017" y="338"/>
		</contour>
	</outline>
</glyph>
<glyph name="integral" format="2">
	<advance width="778"/>
	<unicode hex="222B"/>
	<outline>
		<contour>
			<point x="101" y="-350" type="curve" smooth="yes"/>
			<point x="230" y="-350"/>
			<point x="368" y="-236"/>
			<point x="398" y="-14" type="curve" smooth="yes"/>
			<point x="462" y="444"/>
			<point x="433" y="926"/>
			<point x="499" y="1386" type="curve" smooth="yes"/>
			<point x="521" y="1546"/>
			<point x="620" y="1618"/>
			<point x="718" y="1618" type="curve" smooth="yes"/>
			<point x="781" y="1618"/>
			<point x="820" y="1604"/>
			<point x="884" y="1563" type="curve"/>
			<point x="925" y="1651" type="line"/>
			<point x="857" y="1700"/>
			<point x="820" y="1710"/>
			<point x="718" y="1710" type="curve" smooth="yes"/>
			<point x="583" y="1710"/>
			<point x="445" y="1595"/>
			<point x="415" y="1374" type="curve" smooth="yes"/>
			<point x="349" y="907"/>
			<point x="380" y="440"/>
			<point x="314" y="-27" type="curve" smooth="yes"/>
			<point x="292" y="-186"/>
			<point x="194" y="-258"/>
			<point x="101" y="-258" type="curve" smooth="yes"/>
			<point x="38" y="-258"/>
			<point x="-1" y="-244"/>
			<point x="-65" y="-203" type="curve"/>
			<point x="-105" y="-291" type="line"/>
			<point x="-36" y="-340"/>
			<point x="-1" y="-350"/>
		</contour>
	</outline>
</glyph>
<glyph name="approxequal" format="2">
	<advance width="1028"/>
	<unicode hex="2248"/>
	<outline>
		<contour>
			<point x="200" y="836" type="line"/>
			<point x="245" y="879"/>
			<point x="310" y="922"/>
			<point x="404" y="922" type="curve" smooth="yes"/>
			<point x="542" y="922"/>
			<point x="597" y="836"/>
			<point x="734" y="836" type="curve" smooth="yes"/>
			<point x="847" y="836"/>
			<point x="919" y="885"/>
			<point x="949" y="920" type="curve"/>
			<point x="935" y="991" type="line"/>
			<point x="896" y="952"/>
			<point x="845" y="907"/>
			<point x="746" y="907" type="curve" smooth="yes"/>
			<point x="615" y="907"/>
			<point x="542" y="997"/>
			<point x="411" y="997" type="curve" smooth="yes"/>
			<point x="306" y="997"/>
			<point x="241" y="948"/>
			<point x="185" y="901" type="curve"/>
		</contour>
		<contour>
			<point x="146" y="453" type="line"/>
			<point x="191" y="498"/>
			<point x="255" y="541"/>
			<point x="351" y="541" type="curve" smooth="yes"/>
			<point x="482" y="541"/>
			<point x="534" y="453"/>
			<point x="681" y="453" type="curve" smooth="yes"/>
			<point x="794" y="453"/>
			<point x="865" y="504"/>
			<point x="896" y="539" type="curve"/>
			<point x="882" y="608" type="line"/>
			<point x="843" y="571"/>
			<point x="790" y="524"/>
			<point x="693" y="524" type="curve" smooth="yes"/>
			<point x="562" y="524"/>
			<point x="488" y="614"/>
			<point x="357" y="614" type="curve" smooth="yes"/>
			<point x="253" y="614"/>
			<point x="187" y="567"/>
			<point x="132" y="520" type="curve"/>
		</contour>
	</outline>
</glyph>
<glyph name="notequal" format="2">
	<advance width="1004"/>
	<unicode hex="2260"/>
	<outline>
		<contour>
			<point x="250" y="172" type="line"/>
			<point x="324" y="172" type="line"/>
			<point x="807" y="1253" type="line"/>
			<point x="737" y="1253" type="line"/>
		</contour>
		<component base="equal"/>
	</outline>
</glyph>
<glyph name="lessequal" format="2">
	<advance width="1003"/>
	<unicode hex="2264"/>
	<outline>
		<contour>
			<point x="867" y="520" type="line"/>
			<point x="880" y="614" type="line"/>
			<point x="310" y="881" type="line"/>
			<point x="957" y="1145" type="line"/>
			<point x="970" y="1243" type="line"/>
			<point x="204" y="928" type="line"/>
			<point x="191" y="831" type="line"/>
		</contour>
		<contour>
			<point x="818" y="166" type="line"/>
			<point x="830" y="242" type="line"/>
			<point x="93" y="244" type="line"/>
			<point x="83" y="168" type="line"/>
		</contour>
	</outline>
</glyph>
<glyph name="greaterequal" format="2">
	<advance width="1004"/>
	<unicode hex="2265"/>
	<outline>
		<contour>
			<point x="134" y="520" type="line"/>
			<point x="898" y="831" type="line"/>
			<point x="910" y="928" type="line"/>
			<point x="234" y="1243" type="line"/>
			<point x="220" y="1145" type="line"/>
			<point x="794" y="881" type="line"/>
			<point x="146" y="614" type="line"/>
		</contour>
		<contour>
			<point x="83" y="166" type="line"/>
			<point x="820" y="168" type="line"/>
			<point x="830" y="244" type="line"/>
			<point x="93" y="242" type="line"/>
		</contour>
	</outline>
</glyph>
<glyph name="lozenge" format="2">
	<advance width="804"/>
	<unicode hex="25CA"/>
	<outline>
		<contour>
			<point x="275" y="0" type="line"/>
			<point x="368" y="0" type="line"/>
			<point x="763" y="743" type="line"/>
			<point x="587" y="1481" type="line"/>
			<point x="497" y="1481" type="line"/>
			<point x="101" y="739" type="line"/>
		</contour>
		<contour>
			<point x="341" y="84" type="line"/>
			<point x="196" y="750" type="line"/>
			<point x="525" y="1399" type="line"/>
			<point x="671" y="739" type="line"/>
		</contour>
	</outline>
</glyph>
<glyph name="__horn" format="1">
  <advance width="166"/>
  <outline>
    <contour>
      <point x="65" y="980" type="line"/>
      <point x="221" y="962"/>
      <point x="311" y="1048"/>
      <point x="337" y="1238" type="curve"/>
      <point x="250" y="1238" type="line"/>
      <point x="226" y="1092"/>
      <point x="178" y="1051"/>
      <point x="76" y="1053" type="curve"/>
    </contour>
    <contour>
      <point x="65" y="980" type="move" name="_horn"/>
    </contour>
    <contour>
      <point x="193" y="1060" type="move" name="_topright"/>
    </contour>
    <contour>
      <point x="193" y="1060" type="move" name="topright"/>
    </contour>
  </outline>
</glyph>
<glyph name="_emdash" format="2">
	<advance width="2223"/>
	<outline>
		<contour>
			<point x="1837" y="559" type="line"/>
			<point x="394" y="557" type="line"/>
			<point x="383" y="477" type="line"/>
			<point x="1826" y="479" type="line"/>
		</contour>
	</outline>
</glyph>
<glyph name="_j-hook" format="2">
	<advance width="1191"/>
	<outline>
		<contour>
			<point x="177" y="-20" type="curve" smooth="yes"/>
			<point x="355" y="-20"/>
			<point x="425" y="98"/>
			<point x="450" y="287" type="curve" smooth="yes"/>
			<point x="478" y="485" type="line"/>
			<point x="407" y="485" type="line"/>
			<point x="382" y="315" type="line" smooth="yes"/>
			<point x="357" y="129"/>
			<point x="304" y="63"/>
			<point x="185" y="63" type="curve" smooth="yes"/>
			<point x="89" y="63"/>
			<point x="48" y="106"/>
			<point x="9" y="127" type="curve"/>
			<point x="-22" y="39" type="line"/>
			<point x="-9" y="27"/>
			<point x="71" y="-20"/>
		</contour>
	</outline>
</glyph>
<glyph name=".notdef" format="1">
  <advance width="1647"/>
  <outline>
    <contour>
      <point x="408" y="-322" type="curve" smooth="yes"/>
      <point x="1280" y="-322" type="line" smooth="yes"/>
      <point x="1326" y="-322"/>
      <point x="1346" y="-306"/>
      <point x="1346" y="-266" type="curve"/>
      <point x="1346" y="1610" type="line" smooth="yes"/>
      <point x="1346" y="1636"/>
      <point x="1332" y="1652"/>
      <point x="1310" y="1652" type="curve" smooth="yes"/>
      <point x="392" y="1652" type="line" smooth="yes"/>
      <point x="370" y="1652"/>
      <point x="354" y="1636"/>
      <point x="354" y="1606" type="curve" smooth="yes"/>
      <point x="354" y="-274" type="line" smooth="yes"/>
      <point x="354" y="-306"/>
      <point x="366" y="-322"/>
    </contour>
    <contour>
      <point x="500" y="-224" type="line" smooth="yes"/>
      <point x="466" y="-224"/>
      <point x="456" y="-210"/>
      <point x="456" y="-184" type="curve" smooth="yes"/>
      <point x="456" y="1518" type="line" smooth="yes"/>
      <point x="456" y="1540"/>
      <point x="470" y="1554"/>
      <point x="488" y="1554" type="curve" smooth="yes"/>
      <point x="1214" y="1554" type="line" smooth="yes"/>
      <point x="1232" y="1554"/>
      <point x="1244" y="1540"/>
      <point x="1244" y="1520" type="curve" smooth="yes"/>
      <point x="1244" y="-178" type="line"/>
      <point x="1244" y="-210"/>
      <point x="1226" y="-224"/>
      <point x="1190" y="-224" type="curve" smooth="yes"/>
    </contour>
    <contour>
      <point x="1190" y="-268" type="line"/>
      <point x="1306" y="-258" type="line"/>
      <point x="498" y="1624" type="line"/>
      <point x="396" y="1572" type="line"/>
    </contour>
  </outline>
</glyph>
<glyph name="_ringacute" format="2">
	<advance width="1390"/>
	<anchor x="828" y="1481" name="_top"/>
	<outline>
		<contour>
			<point x="816" y="1401" type="curve" smooth="yes"/>
			<point x="921" y="1401"/>
			<point x="1013" y="1487"/>
			<point x="1029" y="1602" type="curve" smooth="yes"/>
			<point x="1046" y="1712"/>
			<point x="976" y="1798"/>
			<point x="871" y="1798" type="curve" smooth="yes"/>
			<point x="771" y="1798"/>
			<point x="677" y="1712"/>
			<point x="663" y="1606" type="curve" smooth="yes"/>
			<point x="646" y="1489"/>
			<point x="712" y="1401"/>
		</contour>
		<contour>
			<point x="826" y="1481" type="curve" smooth="yes"/>
			<point x="769" y="1481"/>
			<point x="726" y="1538"/>
			<point x="734" y="1599" type="curve" smooth="yes"/>
			<point x="744" y="1669"/>
			<point x="802" y="1718"/>
			<point x="859" y="1718" type="curve" smooth="yes"/>
			<point x="919" y="1718"/>
			<point x="960" y="1669"/>
			<point x="949" y="1599" type="curve" smooth="yes"/>
			<point x="941" y="1538"/>
			<point x="886" y="1481"/>
		</contour>
		<contour>
			<point x="837" y="1747" type="line"/>
			<point x="906" y="1747" type="line"/>
			<point x="1000" y="1925" type="line"/>
			<point x="902" y="1925" type="line"/>
		</contour>
	</outline>
</glyph>
